<svg xmlns="http://www.w3.org/2000/svg" viewBox="0 0 969.6 685.07"><defs><style>.a7ee5175-8fce-4d06-897e-a1fab3038bd7{fill:#8cbdb1;}.\32 f9bc07b-1ba6-4160-aabf-817920ce65a4{fill:#8dbdb1;}.fd56f6a0-dac0-4fe3-9e56-511143133a88{fill:#8ebeb3;}.\39 bb23664-25f3-4ce1-8327-551c93546661{fill:#d2ebe8;}.a43c0ba1-d333-41d3-8c5a-2a391da10090{fill:#eceef3;}.\39 be37c51-aeb0-4568-a66a-c6a46d42cdba{fill:#afcac6;}.c23a475a-7b27-420b-8327-169027844ddc{fill:#3f4139;}.c2d783f1-2112-437a-951b-b64d4c7238d4{fill:#232223;}.\39 29fb3ba-b2eb-40aa-8cdd-af14b35fc2f6{fill:#364b5e;}.cbb7595b-6fab-4802-8fb4-f54893d967bb{fill:#c92f26;}.e113cac3-cd60-4ef9-b4a2-6eb38a03c645{fill:#040302;}.cb1fa5a5-ba43-41e2-966e-f78a3c517120{fill:#eacdb5;}.\37 4db0de6-1a1c-4cf6-bf10-f56407374767{fill:#573b26;}.\31 6bf3496-370e-49b9-9c27-7f724350afb2{fill:#cfe2e1;}.\32 e0df551-5578-4e70-9b03-7ea8466846e0{fill:#7ca59c;}.\39 3b174d3-638c-4641-89d6-1eaf11918540{fill:#a82323;}</style></defs><title>Ресурс 1</title><g id="b5d224e1-4f1a-4e48-be95-c70cbd500dab" data-name="Слой 2"><g id="2a8f731b-2338-4053-ab16-2029b6e4be1b" data-name="Слой 1"><path class="a7ee5175-8fce-4d06-897e-a1fab3038bd7" d="M1.62,452.2q0-222.06-.15-444.12c0-5.53,1.09-6.62,6.61-6.61q480.46.26,960.92.15,0,217.06,0,434.13c0,2.84-1,6,1.59,8.38v3.23c-3.06,4.25-7.6,3.22-11.79,3.22q-304.76,0-609.51.06c-3.4,0-7-1-10.18,1.27l-6.39.33c-12.1-10.23-24.23-20.43-37.81-28.7,1.81-15.47,7.86-30,8.81-46.95,5.77,3.79,10,6.58,14.19,9.29,3.16,2,6.27,3.89,10.43,2.53,11.4-3.73,23-7,33.79-12.32a37.91,37.91,0,0,0,6.38-.13c7.52-1.4,12.83-7,19.24-10.48-1.68-2.59-3.87-5-4.91-7.8-1.45-3.92-3.38-4.45-6.49-2.16-3.61,2.67-7.72,1.33-11.62,1.52-4.18.21-8.34.17-10.72,4.52-5.62,3.28-12.11,3.67-18.14,5.55-7.82,2.43-13-.23-18.12-6-6.48-7.27-11.23-16.06-19.25-22-.18-3.13.89-5.31,4.4-5.08,4.93.32,5.65-2.6,5.54-6.54-.09-3.13-.48-6.35,1.76-9.13,1.29-1.6,1.42-3.36-.41-4.88-4.6-3.83-4.61-9.21-4.83-14.51,3.34-2.49,5.75-5.63,6.29-9.86.43-3.43-1.17-5.84-4.54-4-7.41,3.95-15.26,3.58-22.83,2.29-13.06-2.23-24.47,17.2-16.75,27.79,2.83,3.87,5.11,8.14,7.65,12.22-.3,1.94-2.31,3.88,0,5.82-1.81,2.42-4.42,2.8-7.17,2.79-14.25-.06-28.12,3-42.14,4.92-6.68.9-11.86,3.56-15.95,9.23-8.11,11.26-16.77,22.13-25.2,33.15-1.16,5.61-6.15,8.16-9.6,11.94-3.79,6.55-8,7.7-13.87,2-2.83-2.75-7.34-2.92-11.13-4.19-5.33-1.79-7.87,0-10,4.71-4.41,9.79-9.19,19.41-13.92,29.05-6.62,13.49-6.66,13.47,5.08,21.69.15.1.08.51.11.78-1.59,4.48-5.45,2.64-8.3,2.65C82.34,452.14,42,452.15,1.62,452.2Zm517.8-346.79a.53.53,0,0,0-.51.53c-.78,2.82-3.78,3.74-5.17,5.85-4.42,6.7-14,9-15.77,18.44,1.45.17,2.49.39,3.53.4,10.81.05,10.79,0,5.83,9.35a13.67,13.67,0,0,0-.81,3.08c-4.81.24-9.63.68-14.44.69q-183,.05-366,0c-3,0-5.91,0-8.87.06-1.83.06-4-.09-3.7,3.28h7.62c3.41,4.29,10.5,3.56,12.85,9.37.09.22,1,.14,1.55.15,18.14.24,36.31,2.36,54.28,2.67,80.34,1.36,160.71.58,241.08.64,3,0,6.31-1,9.27,1.34-4.52,3-4.52,3-1.9,5.36-.61,3.9,2.37,2.46,4.17,2.84,2.07.44,5.19-1.16,5.56,2.74-3.22.16-6.43.47-9.65.47q-179.21,0-358.42.1c-3.14,0-6.65-1-10.36,1.73,3.64,2.08,6.62,1.36,9.41,1.36q176.38.08,352.77.09c4,0,8.11-.76,11.86,1.38-.69,3.47-5.65,1.78-6.34,5.25H107.83v2.28c3,1.65,6.29.9,9.44.9q154.55.06,309.1,0c3.48,0,7,.34,10.45.52l-.73,5.76H235.39l0,3.32H435.87c2,5.17-.73,10.88,1.27,16.43l8.36-6.93c6.44-3.44,12.48-8.67,20.33-7.45,10.4,1.61,20.81.24,31.18,1,4.23.33,8.43.27,12.7,1.15,10.33,2.14,20.83,3.5,31.26,5.17,2.74,2.4-2,8.76,5.06,9,17.18.64,34.2,3.72,51.46,3.2,10.79,2.58,20.89-.6,30.27-5s17.74-4.82,26.86-.07c8.41,4.39,17.12,6.31,25.95.46,2.84-1.88,6.38-1.12,9.48-.63,23.83,3.8,47.71.85,71.56.81,3.34,0,5.83-.65,6.34-4.43,6.62,0,13,.16,19.38,3.15,5.52,2.61,10.5,1.22,12-6,.41-1.93,1.63-3.69,2.76-6.12-11.68-2.49-23.07.24-34.37-.33-2-2.7-4.84-1.64-7.36-1.69-9-.16-18.06-.08-27.09-.23-2.69,0-5.62.23-8.26-2.36L733.3,189l-.05,0a7.17,7.17,0,0,0,4.55-2.52c2.11-1.62,4.58-2.93,6.27-4.92,6-7,6.74-15.12,3.56-23.47-2.76-7.23-8.67-9.88-16.13-9.42a6.27,6.27,0,0,1-5.12-1.83c-4.93-4.89-10.31-3.69-15.55-.8a52.61,52.61,0,0,1-12,4.71c-10.87,1-19.9-5.62-30.13-7.3l0,.12c-.55-.32-.91-1.67-1.77-.33-9.07-4.28-17.93-8.61-28.23-10-16.23-2.19-31.06-8.4-44.89-17.57-9.67-6.41-19-13.71-30.35-17.34-.54-.85-1-2.37-1.65-2.45-8.5-1-16.43-5.07-25.43-4-5.53.66-11.52,1.51-16.73-2.28-.94,5.43-1.34,10.42.56,15.3A1.25,1.25,0,0,1,519.41,105.41ZM327.1,293.18l.46,2.23c5.47-.08,10.34-2.77,15.41-4.54,1.22-.43,2.7-1.33,2.09-2.89-.87-2.24-2.68-1-4-.5C336.36,289.31,331.74,291.27,327.1,293.18Zm14-17.29c-7.69,1.85-11.55,6-16.07,9-1,.65-2.26,2-.76,3.22a2.94,2.94,0,0,0,2.84,0C331.24,284.47,336.66,282.41,341.13,275.89ZM328.59,302.2c8,2.43,13.54.08,19.1-2C341.59,297.71,336,299.23,328.59,302.2Z" transform="translate(-1.46 -1.46)"/><path class="a7ee5175-8fce-4d06-897e-a1fab3038bd7" d="M969,686.38q-480.09,0-960.18.16c-6.2,0-7.44-1.57-7.35-7.49.37-23.93.15-47.87.15-71.81q317.89,0,635.78.07,166.61,0,333.22-.07v3.23C968,612.86,969,616,969,618.82,969,641.34,969,663.86,969,686.38Z" transform="translate(-1.46 -1.46)"/><path class="2f9bc07b-1ba6-4160-aabf-817920ce65a4" d="M970.62,541v3.23c-2.39,2.09-1.58,4.92-1.6,7.49q-.11,18.35,0,36.7c0,2.56-.79,5.39,1.6,7.49v3.23c-1.29.66-1.56,1.86-1.68,3.14-3.23.07-6.46.19-9.68.19H9.69c-2.69,0-5.38-.07-8.07-.1V534.57c35,0,69.92,0,104.88-.07,2.88,0,6.75,1.71,8.16-2.89h9.54c-4.58,2.44-8,3.89-11.05,6-4,2.75-3.59,14.63.6,16,3.87,1.22,8.41,3.33,12.24-.26,3.37-3.16,6.47-6.5,3.39-11.87-1-1.67-.38-4.21-.51-6.36,7.13-.16,14.25-.29,21.37-.51,2.51-.08,5.54.78,6.41-2.95,9.84-.23,19.67-.71,29.5.34l-3.65,5.81c-3.89,3.65-7.92,7.17-11.64,11s-4.57,7.77.53,11.3c-4.27,3.51-10,3.22-14.72,5.93-7.41,4.29-7.8,7.26-.73,12.08A19,19,0,0,0,161.1,580c23,7,46.87,8.1,70.62,9.39,22.8,1.24,45.62-.33,68.18-3.44,10.42-1.43,21.31-2,31-7.29,3.21-1.75,6.61-2.9,6.43-7.16s-3.58-5.41-7-6.7c-17.28-6.5-35.49-8.33-53.56-8.9-28.14-.88-56.37-1.23-84.5,1.3l0-3.18,0,.06c4.24-2.82,8.51-5.61,11.69-9.7l16.38-13.07,13.94-.09,55.83.08c3.27,1.09,6.57,2.09,9.8,3.28,3.38,1.25,5.51.09,6.74-3.13l5.11.18c2,5.2,6.48,2.87,9.77,2.87q313.22.18,626.45.11c2.15,0,4.3,0,6.46-.08a3.24,3.24,0,0,0,3.3-2.91l11.2,0C969.54,534.72,967.72,538.3,970.62,541ZM153.4,557.19c-1.1-3.65-1.74-8.21-6.56-8.69-4.47-.45-7.74,2.16-7.69,7,0,3.88,1.59,7.46,6.21,7.8C149.49,563.58,152.58,561.92,153.4,557.19Z" transform="translate(-1.46 -1.46)"/><path class="fd56f6a0-dac0-4fe3-9e56-511143133a88" d="M970.62,455.43v72.68c-2.42-.08-4.83-.22-7.25-.22q-169.44,0-338.88,0-159,0-317.9.1c-1.43-.54-1-3-3-2.94-3.06-1.27-2.82-5.9-6.57-6.45-2.39-2.06-5.39-3.52-6.6-6.75,1-.35,2.3-.42,2.85-1.11,14.31-18,29.38-35.54,41.19-55.44,4.3.08,8.61.23,12.91.23q302.34,0,604.69,0C958.24,455.57,964.43,455.48,970.62,455.43ZM628.08,510.32c39.61,1.65,85.36-2.38,131.13-5.11a153.66,153.66,0,0,0,39.37-7.27c2.83-.94,6.48-1.64,6.37-5.08-.1-3.22-3.84-2.93-6.34-3.68-21.21-6.38-43.27-6.94-65-9.38-26.67-3-53.57-1.85-80.36-3-24.88-1.05-49.89-.26-74.88.69-33,1.25-65.89,2-98.72,5.31a230.4,230.4,0,0,0-37.06,6.79c-1.71.46-4,.9-4.11,3.23-.08,2.1,1.68,3.4,3.43,4a76.72,76.72,0,0,0,11.51,3.62c39.06,7.71,78.83,7.18,118.32,9.65C588.33,511.19,605.07,510.32,628.08,510.32Z" transform="translate(-1.46 -1.46)"/><path class="fd56f6a0-dac0-4fe3-9e56-511143133a88" d="M1.62,528.11V455.43q68,.05,136.08.08c2.06,0,4.37.62,5.92-1.51,13.48,6.45,27,12.79,40.42,19.41,5.15,2.54,8.3,1.86,10.67-3.75,2.05-4.87,3.67-10,7.16-14.23,11,.71,22.05-.75,33,.81-2.13,11.3-2.84,23.48-9.94,32.73a333.29,333.29,0,0,1-34.35,38.1c-4.19,1.37-8.51.83-12.77.84Q89.72,528,1.62,528.11Z" transform="translate(-1.46 -1.46)"/><path class="9bb23664-25f3-4ce1-8327-551c93546661" d="M1.62,602.4c2.69,0,5.38.1,8.07.1H959.25c3.23,0,6.46-.12,9.68-.19l1.68.08v4.85q-166.61,0-333.22.07-317.89,0-635.78-.07Z" transform="translate(-1.46 -1.46)"/><path class="a43c0ba1-d333-41d3-8c5a-2a391da10090" d="M306.59,528q159-.05,317.9-.1,169.44,0,338.88,0c2.42,0,4.83.15,7.25.22v3.23l-1.73.25-11.2,0c-2.68-.08-5.37-.23-8.05-.23q-314.94,0-629.87,0c-2.68,0-5.37.16-8.05.25l-5.11-.18Q306.59,529.71,306.59,528Z" transform="translate(-1.46 -1.46)"/><path class="a43c0ba1-d333-41d3-8c5a-2a391da10090" d="M970.62,455.43c-6.19,0-12.37.14-18.56.14q-302.34,0-604.69,0c-4.3,0-8.61-.15-12.91-.23l-1.71-3.11,6.39-.33c2.41.11,4.83.31,7.24.31H970.62Z" transform="translate(-1.46 -1.46)"/><path class="9be37c51-aeb0-4568-a66a-c6a46d42cdba" d="M970.62,452.2H346.37c-2.41,0-4.83-.2-7.24-.31,3.15-2.31,6.78-1.27,10.18-1.27q304.76-.08,609.51-.06c4.19,0,8.73,1,11.79-3.22Z" transform="translate(-1.46 -1.46)"/><path class="a43c0ba1-d333-41d3-8c5a-2a391da10090" d="M1.62,528.11q88.1-.09,176.2-.21c4.26,0,8.59.53,12.77-.84a10.8,10.8,0,0,1-4.46,4.88c-9.82-1-19.66-.56-29.49-.34-9.25-.17-18.5-1-27.72.46-.79.51-2.25,1-2.25,1.54,0,1.09,1.21,1.32,2.26,1.25l-.08.21c.13,2.14-.44,4.69.51,6.35,3.08,5.37,0,8.71-3.39,11.87-3.83,3.59-8.37,1.48-12.24.26-4.19-1.32-4.56-13.2-.6-16,3-2.09,6.47-3.54,11.05-6h-9.54l-113-.26Z" transform="translate(-1.46 -1.46)"/><path class="9be37c51-aeb0-4568-a66a-c6a46d42cdba" d="M970.62,444.13c-2.59-2.4-1.59-5.55-1.59-8.38Q969,218.68,969,1.62c3.38,1.79,1.51,4.9,1.51,7.27Q970.68,226.5,970.62,444.13Z" transform="translate(-1.46 -1.46)"/><path class="a43c0ba1-d333-41d3-8c5a-2a391da10090" d="M143.62,454c-1.55,2.13-3.86,1.51-5.92,1.51q-68,0-136.08-.08V452.2c40.36-.05,80.73-.06,121.09-.24,2.85,0,6.71,1.82,8.3-2.65Z" transform="translate(-1.46 -1.46)"/><path class="fd56f6a0-dac0-4fe3-9e56-511143133a88" d="M1.62,531.34l113,.26c-1.41,4.6-5.28,2.88-8.16,2.89-35,.11-69.92.07-104.88.07Z" transform="translate(-1.46 -1.46)"/><path class="9be37c51-aeb0-4568-a66a-c6a46d42cdba" d="M969,686.38c0-22.52,0-45,0-67.55,0-2.83-1-6,1.58-8.35,0,23.69,0,47.37-.1,71.06C970.5,683.07,972.46,685.74,969,686.38Z" transform="translate(-1.46 -1.46)"/><path class="9be37c51-aeb0-4568-a66a-c6a46d42cdba" d="M970.62,595.93c-2.39-2.09-1.58-4.92-1.6-7.49q-.11-18.35,0-36.7c0-2.56-.79-5.39,1.6-7.49Z" transform="translate(-1.46 -1.46)"/><path class="9be37c51-aeb0-4568-a66a-c6a46d42cdba" d="M968.89,531.59l1.73-.25V541C967.72,538.3,969.54,534.72,968.89,531.59Z" transform="translate(-1.46 -1.46)"/><path class="9be37c51-aeb0-4568-a66a-c6a46d42cdba" d="M970.62,602.4l-1.68-.08c.12-1.28.39-2.49,1.68-3.15Z" transform="translate(-1.46 -1.46)"/><path class="c23a475a-7b27-420b-8327-169027844ddc" d="M362.15,376.09c-10.82,5.32-22.38,8.59-33.79,12.32-4.16,1.36-7.26-.51-10.43-2.53-4.23-2.71-8.42-5.51-14.19-9.29-.95,16.95-7,31.48-8.81,46.95-2,5.18-1.69,10.72-.48,15.7,1.81,7.5-1.76,7.06-6.66,5.79A94.91,94.91,0,0,0,277,442.38c-13.12-1.8-26.47-2.88-38.41-9.49-6.16-5.28-11.07-11.62-16-18-3.23-4.22-3.21-7,1-10.71,10.79-9.5,16.8-22.16,21.81-35.31.7-1.83,3.32-4.9-.77-5.85-6.83-1.58-14.42-3-19.94,2.28C214.34,375,204.85,385.69,195,396c-2.69-2-5.17-4.44-8.13-5.92-3.29-1.64-4.14-3.53-2.55-6.7,8.43-11,17.09-21.89,25.2-33.15,4.09-5.68,9.27-8.33,15.95-9.23,14-1.9,27.89-5,42.14-4.92,2.74,0,5.36-.37,7.16-2.79a4.07,4.07,0,0,0,1.53.27c.47,4.47.91,8.94,1.43,13.41,1.17,10.13,4.21,19.51,11,27.35.58,5.61,4.46,8.27,9.93,11.44V366.4c.62-9.42.68-18.77-2.94-27.74l2.73.51c8,5.9,12.78,14.69,19.26,22,5.12,5.75,10.3,8.42,18.12,6,6-1.88,12.52-2.27,18.14-5.55,2.43-.37,4.06.27,4.73,3C359.73,368.44,361,372.25,362.15,376.09Z" transform="translate(-1.46 -1.46)"/><path class="c2d783f1-2112-437a-951b-b64d4c7238d4" d="M238.56,432.89c11.95,6.61,25.3,7.68,38.42,9.49A94.91,94.91,0,0,1,287.79,445c4.91,1.26,8.48,1.7,6.66-5.79-1.21-5-1.49-10.53.48-15.7,13.58,8.28,25.71,18.47,37.81,28.7l1.71,3.11c-11.82,19.9-26.88,37.39-41.19,55.43-.55.69-1.88.75-2.85,1.11-5.68-3.18-12.5-5.1-14.09-12.8,3.34-8.88,9-16.41,13.92-24.41,7.94-13,8-13-5.88-18-1.51-.55-3-1.17-4.54-1.66-10.62-3.34-10.6-3.32-13.71,7.23-1.6,5.41-3.58,10.71-4.9,16.18a58.77,58.77,0,0,1-18.84,31.15c-5.81,5.13-10.91,11-16.33,16.61-2.3,1.27-4.54,2.62-5.77,5.11L203.9,544.34c-5.85.88-9.89,3.94-11.69,9.7l0-.06c-9.46-1.14-12.54-6.26-9.77-16.23l3.65-5.81a10.8,10.8,0,0,0,4.45-4.88A333.22,333.22,0,0,0,224.95,489c7.1-9.25,7.81-21.43,9.94-32.73l.86-4C237.67,445.94,239.65,439.64,238.56,432.89Zm6.9,9.65c-.77-1.3-1.46-2.76-3.35-2.47a1.28,1.28,0,0,0-.57,1.09c.81,1.82,2.54,1.16,4,1.34,1.41,4.34,4.89,3.88,9.89,5.27C251.69,443.32,248.73,442.57,245.46,442.53ZM266,453.08c-1.67-3.64-4.33-5.66-8.38-3.47Z" transform="translate(-1.46 -1.46)"/><path class="c23a475a-7b27-420b-8327-169027844ddc" d="M668.75,143.5c10.23,1.68,19.26,8.28,30.13,7.3L685,155.05c7.79,2,8.19,8.71,13,11.29l-.78,4.95c-2.34-3.84-6.26-4.42-10.22-4.91-1-7.17-6.6-9.71-12.85-6-2.89,1.7-6.09,4.16-9.1,4.1-10.27-.21-6.68,4.89-4.34,9.79-5.16,8.52-12.7,14.25-23.31,18.38,10.87,2.88,20.32,4.77,29.31,7.94,10.55,3.7,19.4-.84,28.6-4.24,2.38-.88,2.42-3.31,2.27-5.54,1.8-.78,2.88.09,4.06,1.43,4.62,5.26,10.09,5.26,15.81,2.08,3-1.67,5.82-3.67,8.73-5.52l7.17.27L725,194.6c2.64,2.6,5.57,2.32,8.26,2.36,9,.14,18.06.07,27.09.23,2.51,0,5.4-1,7.36,1.69l.2,9.28c-.51,3.78-3,4.43-6.34,4.43-23.85,0-47.73,3-71.56-.81-3.1-.49-6.64-1.26-9.48.63-8.83,5.86-17.54,3.93-25.95-.46-9.12-4.75-17.55-4.35-26.86.07s-19.48,7.63-30.27,5c-1.75-12,2-20.45,15.85-22.68-3.37-1.91-6.18-2.65-8.73-3.92-4.86-2.43-9.53-5.27-10.28-11.41-.78-6.39-2.21-12.73-1.48-19.23,10.7.67,21.25-.78,32.12,2.86,11.73,3.93,22.2-3.81,32.43-9.14,2.59-1.24,5-3.35,8-3.08C673,151.14,670.86,147.37,668.75,143.5Z" transform="translate(-1.46 -1.46)"/><path class="929fb3ba-b2eb-40aa-8cdd-af14b35fc2f6" d="M143.62,454,131,449.32c0-.27,0-.68-.11-.78-11.74-8.22-11.7-8.2-5.08-21.69,4.73-9.64,9.51-19.26,13.92-29.05,2.14-4.75,4.69-6.49,10-4.71,3.79,1.27,8.3,1.43,11.13,4.19,5.88,5.72,10.09,4.57,13.87-2,2.65,1.86.6,3.69,0,5.55-.57,1.69-1.88,4.14.85,4.49,4.16.52,8.79,9.66,12.8-.31.17-.41,2.46,0,3.76.08-2.2,5.54-2.51,9.41,5.48,10.09,4.61.39,8.37,4.24,12.39,6.84,4.87,3.15,4.76,6,2.4,10.52-3.32,6.35-6.07,13-9.06,19.53l-1.49,3.34c-3.48,4.18-5.11,9.36-7.16,14.23-2.37,5.62-5.52,6.3-10.67,3.75C170.63,466.79,157.1,460.45,143.62,454Zm19.09-19c-2.45.6-2.9,4.11-3.29,7a3.46,3.46,0,0,0,4,3.93c3.26-.73,5.17-3.34,5.46-6.85C169.18,435.8,167.11,435,162.71,435Z" transform="translate(-1.46 -1.46)"/><path class="fd56f6a0-dac0-4fe3-9e56-511143133a88" d="M438.25,166.64c-2.63-2.39-2.63-2.39,1.89-5.36-3-2.32-6.27-1.34-9.27-1.34-80.36-.06-160.74.72-241.08-.64-18-.3-36.14-2.43-54.28-2.67-.54,0-1.46.07-1.55-.15-2.35-5.81-9.43-5.08-12.85-9.37,1.88-.05,3.76-.15,5.65-.15q184.46,0,368.92,0c4,0,8.14.91,11.65-1.94l1.42,2.79c3.22,7.94.56,15.58-1.13,23.28-4.85,2.22-9.94,1.63-15,1.34.38-1.77,1.54-3,3.27-2.71,9.35,1.65,10.47-3.75,9.62-11-1.19-4.3-4.68-2-6.89-2q-154.15-.19-308.3,0c-1.95,0-4.3-1-6.66,1.69h8.72q117.43,0,234.86,0c8.86,0,17.73.27,26.59.42-1.62,3.09,7.56,1.77,2.55,6.24C450.3,165.29,444.49,168.49,438.25,166.64Z" transform="translate(-1.46 -1.46)"/><path class="cbb7595b-6fab-4802-8fb4-f54893d967bb" d="M508.76,147.79,507.34,145l-.82-2a13.67,13.67,0,0,1,.81-3.08c5-9.31,5-9.29-5.83-9.35-1,0-2.08-.23-3.53-.4,1.74-9.44,11.35-11.75,15.77-18.44,1.39-2.11,4.39-3,5.16-5.83a.48.48,0,0,0,.52-.55,1.24,1.24,0,0,0,.87-.46c1.41-.09,3.29-.71,3.11-1.92-1.29-8.56,4-7.74,9.84-8,10.35-.45,20.17,2.64,30.31,3.35,11.33,3.63,20.68,10.94,30.35,17.34,13.83,9.17,28.66,15.38,44.89,17.57,10.3,1.39,19.16,5.72,28.21,10l1.78.34,0-.13c2.11,3.87,4.29,7.63-3.36,7-3-.27-5.4,1.85-8,3.08-2.11-.3-4.43-.14-6.31-1-15.53-6.76-32.12-7.47-48.6-8.81-10.85-.88-21.11-4.16-30.77-8.68-15.27-7.14-31-9-47.39-6.38C516.41,130,509.09,139.58,508.76,147.79Z" transform="translate(-1.46 -1.46)"/><path class="e113cac3-cd60-4ef9-b4a2-6eb38a03c645" d="M592.85,159.82c-.74,6.5.69,12.85,1.47,19.23.75,6.14,5.42,9,10.28,11.41,2.55,1.27,5.37,2,8.73,3.92-13.81,2.23-17.61,10.66-15.85,22.68-17.25.52-34.28-2.56-51.46-3.2-7.05-.26-2.32-6.62-5.06-9l-.22-35.18c2.94-1.4.85-7.35,5.46-6.77C562,164.84,577.42,162.52,592.85,159.82Z" transform="translate(-1.46 -1.46)"/><path class="cb1fa5a5-ba43-41e2-966e-f78a3c517120" d="M540.76,169.66l.22,35.18c-10.43-1.67-20.93-3-31.26-5.17-4.27-.88-8.46-.82-12.7-1.15-10.37-.8-20.78.56-31.18-1-7.85-1.22-13.89,4-20.33,7.45,1.53-9,7.45-14.8,14.6-19.66h35.07c-11.17-3.76-22.55-2.69-33.89-2.28-6.52-.87-9.64,5.87-15.8,7.44,2.62-9.79,10.14-14.76,16.35-20.76,9.93,4.66,20.41,3.12,30.79,2.74,5.07.29,10.17.88,15-1.34Z" transform="translate(-1.46 -1.46)"/><path class="74db0de6-1a1c-4cf6-bf10-f56407374767" d="M698,166.34c-4.78-2.58-5.17-9.28-13-11.29l13.89-4.25a52.6,52.6,0,0,0,12-4.71c5.24-2.89,10.62-4.09,15.55.8a6.27,6.27,0,0,0,5.12,1.83c7.46-.46,13.37,2.19,16.13,9.42,3.18,8.35,2.4,16.46-3.56,23.47-1.68,2-4.16,3.3-6.27,4.92-2.74-1.37-4.28-.58-4.55,2.52l.05,0-7.17-.27c.44-1.57,3.41-2.7,1.41-4.64-6.43-6.22-8.24-14-7.53-22.82-5.31,1.7-9.65,7.79-14.26,4.23C701.72,162.41,700.37,164.6,698,166.34Z" transform="translate(-1.46 -1.46)"/><path class="16bf3496-370e-49b9-9c27-7f724350afb2" d="M506.52,143.06l.82,2c-3.51,2.85-7.69,1.94-11.65,1.94q-184.46,0-368.92,0c-1.88,0-3.76.1-5.65.15H113.5c-.28-3.38,1.86-3.23,3.7-3.28,3-.09,5.91-.06,8.87-.06q183,0,366,0C496.89,143.74,501.7,143.3,506.52,143.06Z" transform="translate(-1.46 -1.46)"/><path class="16bf3496-370e-49b9-9c27-7f724350afb2" d="M443.59,177.36c-3.75-2.14-7.88-1.38-11.86-1.38q-176.38-.07-352.77-.09c-2.79,0-5.78.71-9.41-1.36,3.71-2.75,7.23-1.73,10.36-1.73q179.21-.11,358.42-.1c3.22,0,6.43-.31,9.65-.46C447.23,174.56,445.24,175.82,443.59,177.36Z" transform="translate(-1.46 -1.46)"/><path class="cb1fa5a5-ba43-41e2-966e-f78a3c517120" d="M276.33,333.54a4.07,4.07,0,0,1-1.53-.27c-2.31-1.95-.3-3.89,0-5.83,4.18-.9,4-.81,1.11-5-2.54-3.66-8.19-8.23,1.84-9.75,1.9-.29,1.85-2.45,2.49-3.84C284.81,299,294.7,295.1,305,299c.23,5.3.23,10.68,4.83,14.51,1.83,1.52,1.69,3.29.41,4.88-2.25,2.78-1.85,6-1.76,9.13.11,3.94-.61,6.86-5.54,6.54-3.52-.23-4.59,2-4.4,5.08l-2.74-.51c-6.64,3.24-11.44.28-15.7-4.61C279,332.85,278.07,330.1,276.33,333.54Zm30.21-7c-.95-1.65-1-4.85-4.63-4.76-3,.08-2.9,2.49-3,4.61-.16,2.74.62,4.68,3.87,4.6C305.28,330.9,306.79,329.91,306.53,326.51Z" transform="translate(-1.46 -1.46)"/><path class="16bf3496-370e-49b9-9c27-7f724350afb2" d="M436.82,186.34c-3.48-.18-7-.52-10.45-.52q-154.55,0-309.1,0c-3.15,0-6.44.75-9.44-.9V182.6H437.24A3.53,3.53,0,0,1,436.82,186.34Z" transform="translate(-1.46 -1.46)"/><path class="74db0de6-1a1c-4cf6-bf10-f56407374767" d="M305,299c-10.29-3.93-20.18,0-24.74,9.81-.65,1.39-.59,3.55-2.49,3.84-10,1.52-4.38,6.09-1.84,9.75,2.92,4.19,3.07,4.1-1.11,5-2.53-4.09-4.82-8.35-7.64-12.22-7.73-10.59,3.69-30,16.75-27.79,7.57,1.29,15.41,1.66,22.83-2.29,3.37-1.79,5,.61,4.54,4C310.74,293.41,308.33,296.54,305,299Z" transform="translate(-1.46 -1.46)"/><path class="16bf3496-370e-49b9-9c27-7f724350afb2" d="M435.87,195.42H235.41l0-3.32h200.7Z" transform="translate(-1.46 -1.46)"/><path class="c23a475a-7b27-420b-8327-169027844ddc" d="M435.87,195.42l.22-3.32.73-5.76a3.53,3.53,0,0,0,.42-3.73c.7-3.46,5.65-1.78,6.35-5.25,1.66-1.54,3.64-2.8,4.39-5.13-.37-3.91-3.49-2.3-5.56-2.75-1.8-.39-4.78,1.05-4.17-2.84,6.25,1.85,12.06-1.35,18.13-1.55l5.45,4.58c-6.21,6-13.73,11-16.35,20.76,6.16-1.57,9.28-8.31,15.8-7.44l-1.18,2.28c-7.15,4.86-13.06,10.63-14.6,19.66l-8.36,6.92C435.14,206.3,437.9,200.59,435.87,195.42Z" transform="translate(-1.46 -1.46)"/><path class="cb1fa5a5-ba43-41e2-966e-f78a3c517120" d="M362.15,376.09c-1.14-3.84-2.42-7.65-3.38-11.54-.67-2.71-2.3-3.35-4.73-3,2.38-4.35,6.54-4.31,10.72-4.52,3.9-.19,8,1.14,11.62-1.52,3.11-2.3,5-1.76,6.49,2.16,1,2.82,3.23,5.22,4.91,7.8-6.41,3.51-11.73,9.08-19.24,10.48A37.91,37.91,0,0,1,362.15,376.09Z" transform="translate(-1.46 -1.46)"/><path class="cb1fa5a5-ba43-41e2-966e-f78a3c517120" d="M767.95,208.15l-.2-9.28c11.31.58,22.69-2.16,34.37.33-1.12,2.44-2.34,4.19-2.76,6.12-1.54,7.19-6.51,8.57-12,6C781,208.31,774.56,208.18,767.95,208.15Z" transform="translate(-1.46 -1.46)"/><path class="cb1fa5a5-ba43-41e2-966e-f78a3c517120" d="M192.14,405.09c-1.3,0-3.6-.49-3.76-.08-4,10-8.64.83-12.8.31-2.73-.34-1.42-2.8-.85-4.49.62-1.85,2.67-3.69,0-5.55,3.46-3.78,8.44-6.33,9.61-11.94-1.6,3.17-.75,5.07,2.54,6.71,3,1.47,5.44,3.91,8.13,5.92C194.31,399.09,190.69,401.29,192.14,405.09Z" transform="translate(-1.46 -1.46)"/><path class="2e0df551-5578-4e70-9b03-7ea8466846e0" d="M563.54,98.38c-10.14-.71-20-3.8-30.31-3.35-5.82.25-11.13-.56-9.84,8,.18,1.22-1.7,1.83-3.11,1.92-1.9-4.88-1.5-9.86-.56-15.3,5.21,3.79,11.21,2.94,16.73,2.28,9-1.08,16.93,3,25.43,4C562.53,96,563,97.53,563.54,98.38Z" transform="translate(-1.46 -1.46)"/><path class="9bb23664-25f3-4ce1-8327-551c93546661" d="M327.1,293.18c4.64-1.91,9.26-3.87,13.93-5.71,1.36-.53,3.17-1.73,4,.5.61,1.57-.87,2.46-2.09,2.89-5.07,1.77-9.94,4.46-15.41,4.54Z" transform="translate(-1.46 -1.46)"/><path class="9bb23664-25f3-4ce1-8327-551c93546661" d="M341.13,275.89c-4.47,6.52-9.9,8.58-14,12.19a2.94,2.94,0,0,1-2.84,0c-1.5-1.25-.24-2.57.76-3.22C329.59,281.93,333.44,277.74,341.13,275.89Z" transform="translate(-1.46 -1.46)"/><path class="9bb23664-25f3-4ce1-8327-551c93546661" d="M328.59,302.2c7.37-3,13-4.49,19.1-2C342.13,302.28,336.61,304.63,328.59,302.2Z" transform="translate(-1.46 -1.46)"/><path class="c23a475a-7b27-420b-8327-169027844ddc" d="M733.25,189c.27-3.09,1.81-3.89,4.55-2.52A7.17,7.17,0,0,1,733.25,189Z" transform="translate(-1.46 -1.46)"/><path class="c23a475a-7b27-420b-8327-169027844ddc" d="M668.78,143.63l-1.78-.34C667.87,142,668.23,143.3,668.78,143.63Z" transform="translate(-1.46 -1.46)"/><path class="2e0df551-5578-4e70-9b03-7ea8466846e0" d="M519.41,105.41a.48.48,0,0,1-.52.55A.55.55,0,0,1,519.41,105.41Z" transform="translate(-1.46 -1.46)"/><path class="2e0df551-5578-4e70-9b03-7ea8466846e0" d="M192.31,557.15c28.13-2.53,56.36-2.18,84.5-1.3,18.07.57,36.29,2.39,53.56,8.9,3.42,1.29,6.82,2.46,7,6.7s-3.22,5.41-6.43,7.16c-9.72,5.31-20.62,5.86-31,7.29-22.57,3.11-45.38,4.68-68.18,3.44C208,588,184.11,587,161.1,580a19,19,0,0,1-5.17-1.92c-7.07-4.82-6.68-7.78.73-12.08,4.68-2.71,10.45-2.42,14.72-5.93,5.64,1,9.45,4.87,13,8.82,4.14,4.63,9,6.51,15,5.56,2.13-.33,5.23,1.23,5.73-2.56.39-2.93-1.52-4.4-3.93-5.32C196.72,564.82,193.36,562.09,192.31,557.15Z" transform="translate(-1.46 -1.46)"/><path class="fd56f6a0-dac0-4fe3-9e56-511143133a88" d="M311.71,531.59c2.68-.09,5.37-.25,8.05-.25q314.94,0,629.87,0c2.68,0,5.37.15,8.05.23a3.24,3.24,0,0,1-3.3,2.91c-2.15.06-4.3.08-6.46.08q-313.22,0-626.45-.11C318.18,534.45,313.68,536.79,311.71,531.59Z" transform="translate(-1.46 -1.46)"/><path class="e113cac3-cd60-4ef9-b4a2-6eb38a03c645" d="M276.33,499.08c1.58,7.69,8.4,9.62,14.09,12.8,1.21,3.22,4.21,4.68,6.6,6.74-.69,1.6-4.6,2.24-2.08,4.65,2.23,2.12,5,4.92,8.66,1.81,2-.06,1.57,2.4,3,2.94q0,1.7,0,3.4c-1.24,3.22-3.36,4.38-6.74,3.13-3.23-1.19-6.53-2.19-9.8-3.28-1.8-2.13-4.39-2.81-6.87-3.7-3.11-3.23-7.54-3.82-11.36-5.63-4.17-2-6.33-3.9-3.58-9.12C270.74,508.09,273.85,503.78,276.33,499.08Z" transform="translate(-1.46 -1.46)"/><path class="e113cac3-cd60-4ef9-b4a2-6eb38a03c645" d="M192.31,557.15c1.05,4.94,4.42,7.66,8.9,9.37,2.41.92,4.32,2.39,3.93,5.32-.51,3.79-3.6,2.22-5.73,2.56-6,.95-10.9-.93-15-5.56-3.53-4-7.35-7.81-13-8.82-5.1-3.53-4.24-7.5-.53-11.3s7.75-7.33,11.64-11c-2.77,10,.31,15.09,9.77,16.23Z" transform="translate(-1.46 -1.46)"/><path class="9bb23664-25f3-4ce1-8327-551c93546661" d="M153.4,557.19c-.82,4.73-3.91,6.39-8,6.08-4.62-.34-6.17-3.92-6.21-7.8-.05-4.81,3.22-7.42,7.69-7C151.67,549,152.3,553.54,153.4,557.19Z" transform="translate(-1.46 -1.46)"/><path class="a43c0ba1-d333-41d3-8c5a-2a391da10090" d="M283.19,527.57c2.47.89,5.06,1.56,6.87,3.7l-55.83-.08-.11-3.26Z" transform="translate(-1.46 -1.46)"/><path class="fd56f6a0-dac0-4fe3-9e56-511143133a88" d="M128.92,532.06c9.22-1.47,18.48-.63,27.72-.46-.87,3.73-3.9,2.87-6.41,2.95-7.12.21-14.25.34-21.37.51l.08-.21Q128.93,533.45,128.92,532.06Z" transform="translate(-1.46 -1.46)"/><path class="e113cac3-cd60-4ef9-b4a2-6eb38a03c645" d="M192.21,554c1.8-5.76,5.85-8.82,11.69-9.7C200.72,548.42,196.45,551.21,192.21,554Z" transform="translate(-1.46 -1.46)"/><path class="9bb23664-25f3-4ce1-8327-551c93546661" d="M234.11,527.92l.11,3.26-13.94.09c1.23-2.49,3.47-3.84,5.77-5.11C228.26,528.93,231.42,527.36,234.11,527.92Z" transform="translate(-1.46 -1.46)"/><path class="2e0df551-5578-4e70-9b03-7ea8466846e0" d="M628.08,510.32c-23,0-39.75.86-56.37-.17-39.49-2.47-79.26-1.94-118.32-9.65a76.72,76.72,0,0,1-11.51-3.62c-1.75-.64-3.51-1.95-3.43-4,.09-2.34,2.4-2.77,4.11-3.23a230.4,230.4,0,0,1,37.06-6.79c32.84-3.28,65.77-4.06,98.72-5.31,25-.95,50-1.74,74.88-.69,26.79,1.13,53.69,0,80.36,3,21.75,2.44,43.82,3,65,9.38,2.5.75,6.23.46,6.34,3.68.11,3.44-3.54,4.14-6.37,5.08a153.66,153.66,0,0,1-39.37,7.27C713.45,507.95,667.69,512,628.08,510.32Z" transform="translate(-1.46 -1.46)"/><path class="c23a475a-7b27-420b-8327-169027844ddc" d="M303.59,525.08c-3.63,3.11-6.43.31-8.66-1.81-2.52-2.4,1.39-3,2.08-4.65C300.78,519.18,300.54,523.81,303.59,525.08Z" transform="translate(-1.46 -1.46)"/><path class="a43c0ba1-d333-41d3-8c5a-2a391da10090" d="M201.86,455.42l1.49-3.34,32.39.17-.86,4C223.91,454.67,212.86,456.13,201.86,455.42Z" transform="translate(-1.46 -1.46)"/><path class="2f9bc07b-1ba6-4160-aabf-817920ce65a4" d="M128.92,532.06q0,1.39,0,2.78c-1.05.07-2.26-.16-2.27-1.25C126.67,533.09,128.13,532.57,128.92,532.06Z" transform="translate(-1.46 -1.46)"/><path class="2f9bc07b-1ba6-4160-aabf-817920ce65a4" d="M235.74,452.25l-32.39-.17c3-6.53,5.74-13.18,9.06-19.53,2.36-4.51,2.47-7.37-2.4-10.52-4-2.61-7.78-6.45-12.39-6.84-8-.68-7.68-4.55-5.48-10.09-1.45-3.8,2.17-6,2.87-9.12,9.83-10.28,19.32-20.93,29.63-30.71,5.52-5.23,13.1-3.86,19.94-2.28,4.1.95,1.47,4,.77,5.85-5,13.15-11,25.81-21.81,35.31-4.17,3.67-4.19,6.48-1,10.71,4.91,6.41,9.81,12.76,16,18C239.65,439.64,237.67,445.94,235.74,452.25Z" transform="translate(-1.46 -1.46)"/><path class="a43c0ba1-d333-41d3-8c5a-2a391da10090" d="M276.33,333.54c1.74-3.44,2.71-.68,3.75.52,4.27,4.89,9.07,7.84,15.7,4.61,3.62,9,3.57,18.32,2.94,27.74-4.5-6.14-3.46-14.06-6.89-20.83.07,9.81-3.29,19.05-3,28.73-6.83-7.85-9.88-17.22-11-27.35C277.24,342.48,276.8,338,276.33,333.54Z" transform="translate(-1.46 -1.46)"/><path class="74db0de6-1a1c-4cf6-bf10-f56407374767" d="M288.8,374.3c-.26-9.67,3.1-18.92,3-28.73,3.44,6.77,2.4,14.68,6.89,20.83,0,6,0,12.08,0,19.34C293.26,382.57,289.38,379.91,288.8,374.3Z" transform="translate(-1.46 -1.46)"/><path class="2f9bc07b-1ba6-4160-aabf-817920ce65a4" d="M234.11,527.92c-2.69-.56-5.85,1-8.06-1.76,5.42-5.57,10.52-11.49,16.33-16.61a58.77,58.77,0,0,0,18.84-31.15c1.31-5.47,3.3-10.78,4.9-16.18,3.12-10.55,3.1-10.56,13.71-7.23,1.54.48,3,1.11,4.54,1.66,13.92,5.07,13.82,5,5.88,18-4.88,8-10.58,15.54-13.92,24.41-2.48,4.7-5.59,9-8.09,13.74-2.75,5.22-.59,7.14,3.58,9.12,3.82,1.81,8.25,2.41,11.36,5.63Z" transform="translate(-1.46 -1.46)"/><path class="e113cac3-cd60-4ef9-b4a2-6eb38a03c645" d="M266,453.08l-8.38-3.47C261.63,447.42,264.29,449.44,266,453.08Z" transform="translate(-1.46 -1.46)"/><path class="e113cac3-cd60-4ef9-b4a2-6eb38a03c645" d="M245.46,442.53c3.26,0,6.23.79,9.93,5.22-5-1.39-8.48-.93-9.89-5.27Z" transform="translate(-1.46 -1.46)"/><path class="e113cac3-cd60-4ef9-b4a2-6eb38a03c645" d="M245.51,442.48c-1.42-.18-3.14.48-4-1.34a1.28,1.28,0,0,1,.57-1.09c1.89-.29,2.57,1.18,3.35,2.47Z" transform="translate(-1.46 -1.46)"/><path class="93b174d3-638c-4641-89d6-1eaf11918540" d="M540.76,169.66l-33.13,1.41c1.7-7.69,4.36-15.34,1.14-23.28.33-8.21,7.66-17.83,15.57-19.09,16.35-2.6,32.12-.76,47.39,6.38,9.66,4.52,19.92,7.8,30.77,8.68,16.48,1.34,33.07,2.06,48.6,8.81,1.89.82,4.2.66,6.31,1-10.23,5.34-20.7,13.07-32.43,9.15-10.87-3.64-21.42-2.2-32.12-2.86-15.43,2.7-30.86,5-46.64,3.07C541.61,162.32,543.69,168.26,540.76,169.66Z" transform="translate(-1.46 -1.46)"/><path class="cb1fa5a5-ba43-41e2-966e-f78a3c517120" d="M698,166.34c2.41-1.74,3.76-3.93,7.8-.81,4.61,3.56,9-2.53,14.26-4.23-.71,8.81,1.11,16.59,7.53,22.82,2,1.94-1,3.06-1.41,4.64-2.9,1.85-5.73,3.84-8.73,5.52-5.72,3.19-11.19,3.18-15.81-2.08-1.18-1.34-2.26-2.2-4.06-1.43q-12.07,0-24.14-.06c-2.62,0-6.47,1-7.09-2-.67-3.25,3.22-4.24,5.82-5.55,8.26-4.14,17.47-6.29,25-11.87Z" transform="translate(-1.46 -1.46)"/><path class="929fb3ba-b2eb-40aa-8cdd-af14b35fc2f6" d="M697.18,171.28c-7.58,5.57-16.78,7.73-25,11.87-2.6,1.31-6.49,2.3-5.82,5.55.62,3,4.47,2,7.09,2q12.07,0,24.14.06c.15,2.23.11,4.66-2.27,5.54-9.2,3.4-18.05,7.95-28.6,4.24-9-3.16-18.44-5.05-29.31-7.94,10.61-4.13,18.15-9.86,23.31-18.38,5.58-1.32,11-3.24,17-1.46,5.16,1.53,8.86-.39,9.3-6.39C690.92,166.86,694.83,167.44,697.18,171.28Z" transform="translate(-1.46 -1.46)"/><path class="cb1fa5a5-ba43-41e2-966e-f78a3c517120" d="M687,166.37c-.44,6-4.14,7.92-9.3,6.39-6-1.78-11.41.14-17,1.46-2.34-4.9-5.93-10,4.34-9.79,3,.06,6.22-2.4,9.1-4.1C680.36,156.66,685.95,159.2,687,166.37Z" transform="translate(-1.46 -1.46)"/><path class="2e0df551-5578-4e70-9b03-7ea8466846e0" d="M162.71,435c4.4,0,6.47.77,6.19,4.12-.29,3.51-2.2,6.11-5.46,6.85a3.46,3.46,0,0,1-4-3.93C159.81,439.14,160.26,435.62,162.71,435Z" transform="translate(-1.46 -1.46)"/><path class="a7ee5175-8fce-4d06-897e-a1fab3038bd7" d="M461.83,169.67l-5.45-4.58c5-4.47-4.17-3.15-2.55-6.25l13.17,0a60.31,60.31,0,0,0,25.37-.08l3.43.14c.09,2.17.44,4.12,3.27,4.1s3.13-2,3.21-4.16l3.22-.06c.85,7.21-.27,12.61-9.62,11-1.73-.3-2.89.94-3.27,2.71C482.23,172.79,471.75,174.32,461.83,169.67Z" transform="translate(-1.46 -1.46)"/><path class="a43c0ba1-d333-41d3-8c5a-2a391da10090" d="M495.79,158.86l-3.43-.14L467,158.8l-13.17,0c-8.86-.14-17.73-.41-26.59-.42q-117.43,0-234.86,0h-8.72c2.36-2.73,4.71-1.69,6.66-1.69q154.15-.13,308.3,0c2.21,0,5.7-2.29,6.89,2l-3.22.06Z" transform="translate(-1.46 -1.46)"/><path class="fd56f6a0-dac0-4fe3-9e56-511143133a88" d="M460.1,185.27l1.18-2.28c11.34-.41,22.72-1.48,33.89,2.28Z" transform="translate(-1.46 -1.46)"/><path class="a43c0ba1-d333-41d3-8c5a-2a391da10090" d="M306.53,326.51c.25,3.4-1.25,4.39-3.77,4.45-3.25.08-4-1.86-3.87-4.6.12-2.12,0-4.53,3-4.61C305.51,321.66,305.59,324.86,306.53,326.51Z" transform="translate(-1.46 -1.46)"/><path class="fd56f6a0-dac0-4fe3-9e56-511143133a88" d="M467,158.8l25.37-.08A60.28,60.28,0,0,1,467,158.8Z" transform="translate(-1.46 -1.46)"/><path class="fd56f6a0-dac0-4fe3-9e56-511143133a88" d="M495.79,158.86l6.49-.07c-.09,2.15-.37,4.15-3.21,4.17S495.88,161,495.79,158.86Z" transform="translate(-1.46 -1.46)"/></g></g></svg>