<svg xmlns="http://www.w3.org/2000/svg" viewBox="0 0 983.2 693.74"><defs><style>.a47ca5f1-30c0-4952-b82e-c82789247d6e{fill:#44b285;}.\31 cce1ddf-ffdc-4c3c-8adb-81e42c42d9ed{fill:#f9fbfb;}.fd19d268-188e-4517-8bcc-3150dbbd2ff3{fill:#4d4e4d;}.\30 b24e19f-8648-47f2-b226-aafee14b36c5{fill:#37926d;}.\38 c77d45c-708e-431b-a76f-0682093b364a{fill:#e9eae9;}.f2492ace-7b4f-4fab-9e29-5aa246446b62{fill:#76e6b8;}.a7ce91f4-4299-4c97-b804-f9488383183d{fill:#b5b8b7;}.\37 8c83c26-f886-4ee0-afe2-67dcaff97394{fill:#f7f9f8;}.\33 b932c3e-9e85-4662-b2db-29bbb59b48e4{fill:#4c514e;}.\33 8f76e22-df11-4499-a11a-fc9f4fa33a87{fill:#de5252;}.\31 d3ad4e9-0740-4a84-b77b-5ab4270ce1fe{fill:#474847;}.\32 63cd3b5-85a3-4f2c-bd29-d7ac9af135ad{fill:#d7d8d8;}.\35 c09fac2-b7a5-4b63-aa8f-038aa418cf65{fill:#71dfb3;}.\33 e5e75ed-a2fa-48b5-a50b-045387a9e12a{fill:#3c6a53;}.ddde4094-3c07-4be0-ad0b-78ad60665727{fill:#47b186;}.\38 74a981f-abcd-4540-aa0d-9d7f53446b7b{fill:#f9f7f5;}</style></defs><title>Ресурс 2</title><g id="3a07634c-c22a-40d6-93b3-f90dfe75f1c1" data-name="Слой 2"><g id="6870c33a-63f1-42ef-9abf-db7e47b5f476" data-name="Слой 1"><path class="a47ca5f1-30c0-4952-b82e-c82789247d6e" d="M981.56,694H2.42Q2.43,353,2.25,12.07c0-8.14,1.83-10.21,10.13-10.21q479.61.36,959.22,0c8.3,0,10.14,2.06,10.13,10.21Q981.38,353,981.56,694ZM206.48,411.77l.06,0c-8,5-7.15,15.94,1.74,22.7l3,1.68c3.13,3.81,7.07,7.35,12,5.27,6.7-2.82,14.25-5.72,13.94-15.29l.09-7.71c.37-19.61-4-22.64-24.36-16.83.51,2.56,3.85,3.87,3.2,6.91-3.27-1.94-5.48.34-7.85,2C206.82,409.67,206.64,410.7,206.48,411.77Zm-13,101.17c-1.74.4-4,.47-3.7,3,.28,2,2.36,1.53,3.85,1.68l4.69-.07,78.25.14c4,0,8.92,1.55,11.56-2.08,7.42-10.21,17.49-17.78,25.82-27.06a25.26,25.26,0,0,0,3,3.77c18,15.76,38.75,22.84,62.85,20.82,42-3.51,75.56-40.23,74.48-82.07.58-15.23-4.88-28.86-11.18-42.26,9.6-3.2,19.5-.84,29.24-1.55,6.87,6.76,12.94,14.38,21.17,19.69,5.79,2.87,12,.88,17.94,1.49.12,7.06.5,14.12.28,21.17-.2,6.48,2.25,9.52,9,9.5q61.95-.19,123.89-.06c5.56,0,7.81-2.09,7.73-7.7-.13-9.22.23-18.44.39-27.66,5.83,13.73,16.81,22.65,28.72,30.7v.11c-.08,2.42.56,4.3,3.37,4.61l196.83,0,1.8-1.7a4.17,4.17,0,0,1,.14-1.28c11.29-6.34,18-17.63,27.72-25.69C913,409,913,406.55,913,404.36q-.21-21.05-.44-42.1l.08-2.48L911.22,358l-23.65-21.84c3.14-16.58,3.86-32.93-.32-49.69a111.61,111.61,0,0,0-24.62-46.88c1.53-3.76,3.61-7.06,7.36-9,7.58,0,15.16,0,22.74-.09,2.42,0,5,.29,6.94-1.59q22-21.58,44-43.24c.95-.93,1.89-2.1,1.17-3.57S942.6,181,941.28,181l-23.51.78c.38-2.58-.81-4.48-2.62-6.12-1.46-5.9-.49-11.92-.91-17.86-.2-2.8,1.42-6.74-2-8-2.77-1-4.57,2.35-6.44,4.19-7,6.86-13.11,14.81-20.89,20.57-17.39,12.88-24.48,29.35-21,50.56a17.13,17.13,0,0,1-9,6.7c-17.81-16.46-39.3-24.71-63-27.06a96.32,96.32,0,0,0-44.56,6.09c-34.09,13.08-55.69,37.36-66.43,71.85-2.26.2-5-.22-5.6,2.84-.46,2.19,1.19,3.19,3,3.83-.16,6.77-.17,13.55-.51,20.31A95.61,95.61,0,0,0,688,357.25c6.33,12.89,15.58,23.59,25.11,34.11l-25.22.55c-5.09-1.45-9.06-4.47-12.7-8.29-6.64-7-13.62-13.6-21.08-21-1.42,13.15.94,25.38-1.38,37.4l-.9-43.71q.12-11,.24-21.95c.05-4-1.78-6-5.91-6q-63.6.05-127.19,0c-5.26,0-7.29,2.6-7.21,7.58.11,6.79.07,13.58.1,20.38l-.41,3-16.48.33c-2.48-.73-3.69-2.85-5.32-4.61-5.24-5.65-10-11.89-17-15.57-3.21-1.92-6.78-1.34-10.23-1.37-16.1-.13-32.21-.19-48.31-.28l-.18-2.95a103.33,103.33,0,0,0,.06-35.85c3.76-5.92,4.86.24,6.2,1.7,22.42,24.56,56.7,20.12,71.54-9.58a64.06,64.06,0,0,0,6.73-36.33l.41-1.7c.29-6.66,3.17-11.71,9-15.13,4-2.33,5.5-6.6,7.37-10.49s4.4-5.52,9.08-4.25c10.19,2.76,20.54,4.95,30.83,7.37,3.9,6,10.06,4.87,15.28,3.73,5.38-1.18,3.44-6.67,3.46-10.44q.22-43.93.08-87.86c0-3.8,1.8-9.15-3.52-10.48s-11.37-2.36-15.39,3.53a57.4,57.4,0,0,1-6.87,2.44c-21.36,4.76-42.78,9.25-64.11,14.17-10.45,2.41-21.4,3.07-31.09,8.32-3.41-.87-6.59.07-9.76,1.16L441.62,152c0-3.52.19-7.05.07-10.57-.3-8.49-4-12-12.68-12.28-1.89-.06-3.78-.18-5.67-.28-.12-10.27-.14-20.55-.38-30.82-.63-27.51-20.09-49.36-45.45-50.21-16.76-.56-33.56,0-50.34.07-15.17-.09-30.35-.26-45.52-.25-28.88,0-50.06,21.25-50.32,50.33-.09,10.3-.13,20.59-.2,30.89-17.17.65-18.66,2.21-18.65,19.65,0,.81,0,1.62,0,2.44.22,9.67,3.2,13.29,13,13.82,5.28.29,6.12,2.59,6.12,7.09,0,10.28,3.41,19.56,9,28.17,6,9.24,15.6,13.79,24.51,19.27-7.39,2.66-15,1-22.57,1.24-14.07.49-24.47,9-26.46,22.73-3.92,27.06,2.62,51.73,18,74.09a20,20,0,0,1,3.86,12.05c-.1,15.21-.22,30.43.07,45.64.26,13.74,8.23,24.2,19.78,25a253.74,253.74,0,0,0,38.23,0c-3.63,9.14-6.1,18.53-6.34,28.43-.52,21.25,6.47,39.91,19.45,56.52l-23.77,23.12c-9.29,3.88-19.08,3-28.77,3-17.94,0-35.88,0-53.82,0-3.22,0-6.58-.53-9.4,1.74Zm-26.39-83.15.19-.25c7.13.36,9.17-3.61,9-10-.18-6.14-3.46-7.81-8.88-7.1-.09-5.39,0-10.8-.31-16.18-.82-13.17-9.82-21.93-22.94-22.21-8.08-.17-16.18.13-24.27.22-6.79-.09-13.58-.36-20.36-.22-13.55.29-22,9-22.33,22.69Q77,404.85,76.82,413c-4-1.08-8.13-1.12-8.82,4-.61,4.5-2.28,10.27,4.51,12.1,2.69.73,4.53,1.61,4.52,4.61,0,9.12,5.58,14.82,12.06,20C84.43,458.13,77,460,77.35,468.86c.5,13,0,26.06.2,39.09.16,9.32,5.64,13.87,14.92,12.44,4.33-.67,8.68-1.47,12.94-.78,15.13,2.42,30.34,1,45.51,1.25,11.81.17,16-4.18,16.23-16.26.19-10,.08-20.09,0-30.13,0-12.06-2.5-15.5-14-19.92,3.67-2.32,7.14-4.84,9.07-8.93C166.41,441.1,167,435.51,167.13,429.79Zm20.7,175.95c8.53,9.07,15.45,8,22.06-3.42.91-6.55,7.47-9.72,9.4-15.66q19.5,9.09,39,18.19c4.55,2.14,9.64,4.74,12.63-1.35,2.9-5.9-1.74-8.65-6.44-11-10.66-5.25-21.89-9.35-32-15.67.26-2.31,1.67-3.87,3.24-5.46,4.75-4.84,9.46-9.72,14-14.74,2.85-3.13,3.52-7,1.1-10.49-2.23-3.18-6.07-3.09-8.69-.75-8.67,7.7-16.92,15.86-22.65,26.14-7.9-3.64-15.88-7.09-23.65-11-4-2-6.93-1.58-10.29,1.34-9.63,8.37-19.5,16.46-29.28,24.66-1.23-1-2.32-2.66-3.71-3-16.36-3.59-32.75-7.09-49.18-10.33-4.1-.81-7.9.84-8.46,5.48-.5,4.2,2.81,6.33,6.38,7.18,10.25,2.44,20.54,4.72,30.87,6.75,3.49.69,7,.72,9.14,4.22-6.6,10.77-10.62,12.46-22.36,9.54-5.24-1.31-10.49-2.64-15.79-3.71A6.54,6.54,0,0,0,96,605.46a6,6,0,0,0-.24,6.86c3.3,5.71,36.14,12.31,41.42,8.27,2.36-1.81,4.6-3.77,6.89-5.66l19.36-16C170.82,603.91,180,602.47,187.83,605.74Zm131.48-55.67c3-.1,4.48-1.57,4.25-4.65-.26-3.47-3-5-5.37-6.75s-4.08,0-5.7,1.53c-5.06,4.73-4,12.4,2.18,16,1.53.89,3.74,1.34,2.94,4.36-2.43.78-5.55-4.45-7.45,0-1.59,3.74,1.45,6,4.06,8,2.14,1.64,4,.66,5.86-.79,5.6-4.4,5-11.85-1.52-16.9ZM678.19,184.78c-7.35-4-15.49-.32-23-2.38,1.33-.23,2.7-.78,4-.64,11.62,1.28,22.07.33,27.33-12.49.76-1.86,3-3.07,4.5-4.67a36.29,36.29,0,0,0,8.08-14c4.67-15-3.05-32.82-17.26-40.17-15.94-8.24-33.82-4-45.14,10.63-9.36,12.11-8.44,31.43,2.77,43.62,5,5.47,9.64,11,12.52,17.83v2.44c.27,5.15.12,10.37.93,15.43C654,207,657.83,211,665.15,210.88c7.62-.16,11.5-4.42,12.44-11.45C678.24,194.61,678,189.67,678.19,184.78Zm-271,362.17c-4.85.06-9.69.17-14.54.17-18.76,0-18.76,0-20.08,18.22-7.6,4.2-15.08,8.63-22.83,12.51-4.14,2.07-5,4.39-2.81,8.33q9.27,16.73,18.36,33.57c1.48,2.73,3.21,4.43,6.43,2.42,13.1-8.19,27.77-13.6,40.41-22.62,20.3-.12,40.59-.42,60.89-.23,5.64.05,7.63-1.59,7.46-7.33-.37-12.44-.47-24.91,0-37.35.22-6.28-2.1-7.84-8-7.66-10.81.33-21.64-.09-32.46-.2-1.24-2.7-2.64-5.33-3.67-8.11-1.94-5.22-4.7-5.38-9.19-2.6C420.68,540.07,413.84,543.36,407.17,546.94ZM139.52,300.68c2.06-.64,4.29-1,6.14-2,22.69-12.37,31.19-41.57,19-65-11.76-22.56-41-32.15-63.8-20.48-11.09,5.69-20.55,13.3-23,26.68-5.29,6.61-3.93,14.48-3.57,21.88C75.75,292.41,111.91,313.8,139.52,300.68Zm486.27,279c2.68-6.43,2-13,.5-19.5q0-1.74,0-3.49c6.11-1.17,8.29-4.77,7.8-11a112.16,112.16,0,0,1,0-19.47c.67-7-1.42-12-7.79-15.11l-.1-3.25a5.78,5.78,0,0,0-.07-6.54l0-6.55A3.54,3.54,0,0,0,626,490c-2.51-6.19-7.4-8.08-13.7-8.05-26.65.11-53.3.19-79.94,0-7.61-.05-10.88,3.1-10.84,10.69q.2,41.6,0,83.2c0,7.54,3,10.69,10.74,10.61,26.92-.28,53.84-.21,80.76,0C618.72,586.5,623.05,584.86,625.8,579.7ZM210.19,180.57c-3.31-2.3-6.64-4.57-9.93-6.89-8.93-6.29-14.45-13.95-13.69-25.85.85-13.27.38-26.63.13-39.95-.26-13.51-6.74-20.63-19.9-20.74-35.61-.31-71.22-.22-106.83,0-9,0-16.46,7.11-16.57,15.89q-.48,36.28,0,72.57c.12,8.35,6.6,14.11,14.86,14.14,37.24.1,74.48,0,111.73.06,5.85,0,10.88-1.62,13.66-7.08,2.12-4.16,4.9-4.17,8.75-2.85C198,181.74,203.73,182.64,210.19,180.57Zm634.32-61.72c0-13.29-.29-26.59.12-39.87.21-6.64-2.48-8.84-8.62-8.25a27.34,27.34,0,0,1-5.69,0c-6.67-.76-9,2-8.9,8.76.33,24.14.14,48.28.15,72.42,0,15.74,0,15.53,15.4,15.27,5.62-.09,7.72-2,7.62-7.65C844.35,146,844.51,132.41,844.51,118.85ZM784.22,131c0,7.05,0,14.11,0,21.16.1,16.17-1.7,14.45,14.88,15,7.27.25,9.46-2.39,9.28-9.4-.39-15.45-.12-30.92-.12-46.39,0-17.26-.47-17.55-17.93-16.22-4.53.34-6.21,2.16-6.15,6.54C784.32,111.51,784.23,121.28,784.22,131Zm62.69,435.3c36.44,1.16,39.76-17.86,38.08-39.83-.13-1.75-.08-4.32-2.83-3.95-2,.28-1.7,2.49-1.75,4-.1,3.53,0,7.07-.08,10.6-.35,16.91-8.49,24.91-25.43,24.53-16-.36-32-.78-48-1.82-8.9-.58-16.38,5.46-23.73,5.65s-14.74-6.26-23.71-5.67c-17.06,1.13-34.18,1.55-51.28,1.79-13.34.19-21.79-8.45-22.16-21.81-.13-4.62-.06-9.24-.21-13.86-.05-1.62-.46-3.6-2.52-3.49s-2,2.27-2,3.81c-.1,3.8-.07,7.61-.06,11.42.06,18.84,10.44,29.6,29.4,28.6,17.64-.93,35.28-1.26,52.92-1.64,6.08-.13,11.41,1.37,15.2,6.22,2.84,3.63,5.11,4.28,8.31.41,4.51-5.45,10.61-6.83,17.55-6.67C820.09,565,835.57,565,846.91,566.34ZM645.49,255.69c.08-8.76-10.33-19.62-15.87-16.47-9.4,5.35-12.76,13.39-12.46,24.76.27,10,6.38,10.49,12.66,12.55a12.91,12.91,0,0,1,3.68,1.69c3.21,2.39,2.29,5.81,1.84,9a3.41,3.41,0,0,1-3.38,3c-3.79.23-4.28-2.53-4.68-5.35-.3-2.15-1.44-3.46-3.72-3.56-1.92-.08-4.3-.35-5,1.69-1.52,4.2-2.28,9.62,1,12.32,4.25,3.46,7.84,11.5,13.34,9.14,4.94-2.12,12.13-5.55,12.41-13.3.22-6.2,1.76-12.83-.89-18.52-2.21-4.73-8.53-4-12.87-6a9.3,9.3,0,0,1-2.21-1c-3-2.57-1.92-6-1.62-9.12a3.32,3.32,0,0,1,3.36-3c3.77-.32,4.35,2.34,4.89,5.16.64,3.4,3.08,4.32,6.1,3.81C646.41,261.78,645.14,258.14,645.49,255.69ZM665.85,90.17c-22.64,0-40.34,11.77-48.91,32.61-7.71,18.75-3,41.63,11.51,55.56,1.94,1.85,4.19,6.17,7,3.4,2.4-2.35-1.9-4.34-3.48-6.21-12.62-14.94-18.56-31.67-10.83-50.49,12.32-30,48.1-40.68,75.06-18.73,21.47,17.47,21.43,48.3,1.41,69.6-1.59,1.69-5.8,3.36-2.84,6.22,1.94,1.88,4.22-1.32,6-2.9,15.65-14.3,20.64-35.45,13.06-55.09C705.6,102.91,687.66,90.2,665.85,90.17Zm59.31,444v-.08c3.52,0,7,.09,10.56,0s6.66-1.88,7-5.52c.84-8.06,1.52-16.23-1-24.17-1.45-4.57-4.29-6.67-9.29-4.58a16.62,16.62,0,0,1-10.35.85c-10.45-2.38-12-1.42-13.55,9.24a102.74,102.74,0,0,0-.79,14.57c0,6.58,3.18,10.09,10.06,9.74C720.28,534.1,722.72,534.2,725.16,534.2Zm57.49-.11c3.53,0,7.07.17,10.59,0s6.5-2.12,6.77-5.86c.54-7.56,1.3-15.19-.73-22.68-1.45-5.36-4.41-7.95-10.19-5.44-4.23,1.83-8.51,1-12.79-.07-5.26-1.35-8.42,1.08-9.76,6A49.79,49.79,0,0,0,765,514.8C763.52,531.83,765.74,534.23,782.65,534.09Zm56.55.14v-.11c3.52,0,7,.1,10.56,0,3.94-.15,7.1-2,7.41-6.09.54-7.26,1.2-14.62-.56-21.81-1.32-5.4-3.92-9-10.4-6.18a15.72,15.72,0,0,1-9.57.73c-10.64-2.18-13.19-.16-13.53,10.72-.14,4.6,0,9.21,0,13.81,0,5.94,2.57,9.19,8.81,9C834.33,534.16,836.77,534.23,839.21,534.23Zm-56.38-37.6c10,.12,17.27-6.64,17.5-16.39s-7.77-17.95-17.24-17.94C773,462.32,766.18,469,766,479,765.78,489.72,772.25,496.5,782.82,496.63Zm57.21,0c10.24.08,17.5-7.08,17.51-17.28,0-9.11-8.05-17.09-17.25-17.07-9.91,0-17,6.93-17.16,16.75C823,489.76,829.48,496.57,840,496.65ZM708.81,480c.08,10.45,6.88,16.81,17.78,16.63,9.74-.17,16.59-7.34,16.57-17.36,0-9-8.23-17-17.36-17C715.62,462.4,708.73,469.58,708.81,480Zm-213.63-6.54c0-6.76-9.32-16-13.79-13.34-7.48,4.42-10.88,10.83-10.74,20.13.12,7.76,4.16,9.68,10,11.31,1.79.5,3.89,1.24,5,2.58,2,2.49,2.5,5.9-.3,8s-4.36-.22-5.23-2.91c-1.33-4.14-4.94-5.3-7.5-2.71-3.42,3.47-2.54,9.43.77,11.69,3.8,2.59,5.65,10.7,13,6.42,8.43-4.93,9.47-12.6,9-21.51-.35-7.57-6.36-7-10.62-9.11-2-1-3.91-2.07-4.22-4.54s-.95-5.26,1.74-6.54c3.2-1.52,4.33.9,4.82,3.56.59,3.2,2.78,3.92,5.44,3.18C495.69,478.71,495,475.83,495.18,473.46Zm59.47-164.6c14.83,1.34,23.81-11.51,23.64-23.92a23.32,23.32,0,0,0-23.44-23c-13.57,0-23.78,10.54-23.65,24.49C531.33,299.62,541,308.92,554.65,308.87ZM770.92,153.21a59.43,59.43,0,0,1,0-7.33c.83-6.61-2.13-8.29-8.41-8.14-15.16.37-15.16.08-15.16,16.06a35.43,35.43,0,0,1,0,4.07c-.81,7,1.32,10.07,9.28,9.71C770.87,167,770.89,167.51,770.92,153.21ZM231.7,472c9,0,17.95.1,26.91,0,3.5-.06,8.28,1.4,8.08-4.92-.17-5.42-4.22-4.74-7.69-4.75q-28.14-.07-56.28,0c-3.62,0-7.62-.18-7.41,5.08s4.31,4.65,7.83,4.66C212.67,472,222.19,472,231.7,472ZM766.49,114.54c.79-4.17-1.15-7.76-7.4-8.54a4.09,4.09,0,0,1-3.87-4.43c0-1.38.23-2.83,1.77-3.27,2.89-.83,2.56,2,3.6,3.31,1.69,2.14,4.19,2.32,5.13-.07,1.28-3.23,1.77-7.15-2-9.4-3-1.74-4.78-6.72-10-1.75-7.27,6.93-7.22,16.34,1.55,21.1,1.83,1,3.69,1.82,2.58,4.08-1.23,2.5-2.38.09-3.69-.37-5.42-1.9-6.17,1.12-5.26,5.44,1.6,7.6,8.55,9.81,14.54,5.09C766.9,123,766.07,119.54,766.49,114.54ZM664.72,471.91c-9.13.14-16.06,7.07-15.9,15.91a16.73,16.73,0,0,0,16.65,16.41c8.88,0,16.13-8.35,15.76-18.08C680.91,477.74,674,471.77,664.72,471.91ZM208.16,335.48c-.34-5.1-3.57-7.76-7.25-8.12a7.82,7.82,0,0,0-8.35,6.36c-1.16,6.13-2.3,12.76,6.62,14.77,2.52.57,4.46,2.48,3.34,5.47-.75,2-2.61,2-3.81.53-1.58-2-3.06-4.66-5.56-1.83-2.09,2.37-.83,5.36,1.24,7.28,1.89,1.74,3.85,4.77,6.74,3.68,3.21-1.2,6.41-3.44,6.83-7.35.61-5.69,1.47-11.64-6.42-13.59-2.71-.67-4.2-3.32-2.69-5.75,1.92-3.09,3.46-.7,4.72,1.17.92,1.36,2.38,1.69,3.4.58C207.79,337.8,207.9,336.26,208.16,335.48ZM197.06,479.14l0,1.62h67.81l0-1.62Zm0,10,0,1.62h67.79l0-1.62Zm1.41,9.74.09,1.58h66.34l0-1.58ZM95.65,337l0,1.5h53.76l0-1.5ZM810,603.31q0-.8,0-1.61h-53.4v1.61ZM95.64,317.64l.05,1.61H149l0-1.61Zm0,9.73.1,2.52c17.76-.33,35.54.78,53.26-2.52ZM809.87,613.3l.08-1.6H756.63l0,1.6Zm.09-19.5,0-1.58H756.6l0,1.58Z" transform="translate(-0.39 -0.23)"/><path class="1cce1ddf-ffdc-4c3c-8adb-81e42c42d9ed" d="M981.56,694q0-340.95.17-681.9c0-8.14-1.83-10.21-10.13-10.21Q492,2.22,12.38,1.86c-8.3,0-10.14,2.07-10.13,10.21Q2.6,353,2.42,694C-.95,692.5.89,689.56.89,687.44Q.72,565.91.79,444.38.79,226.19.66,8C.66,2.31,1.25.23,7.89.23Q492,.55,976.09.3c5.42,0,7.3.53,7.29,6.88q-.35,340.13-.29,680.26C983.09,689.56,984.93,692.5,981.56,694Z" transform="translate(-0.39 -0.23)"/><path class="fd19d268-188e-4517-8bcc-3150dbbd2ff3" d="M498.45,254.91a64.05,64.05,0,0,1-6.73,36.33c-14.84,29.71-49.13,34.14-71.54,9.58-1.34-1.47-2.44-7.62-6.2-1.7q0,17.92-.06,35.85.09,1.47.17,2.95-.34,11.23-.67,22.46c-26.58-14-53.47-15-80.26-1-11.56,6.06-22,13.86-28.13,26-4.89,3.76-6.39,9.59-9,14.73a253.74,253.74,0,0,1-38.23,0c-11.56-.83-19.52-11.29-19.78-25-.29-15.21-.17-30.43-.07-45.64a20,20,0,0,0-3.86-12.05c-15.39-22.36-21.93-47-18-74.09,2-13.75,12.39-22.24,26.46-22.73,7.52-.26,15.18,1.42,22.57-1.24l11.61,1.37,26.35,68.05c5,13.37,9.72,26.84,15.08,40.06,2,4.87,2.07,13.37,7.52,13.47,7.11.13,6.45-9,8.66-14.11,5.53-12.79,11.24-25.59,14.45-39.27,10-22.23,18.1-45.2,26.51-68l13.78-1.58c17.33.75,25.77,11.46,31.81,26.45a88.93,88.93,0,0,0,23.19,32.9c7.65,6.88,14.56,5,18.08-4.68a70.46,70.46,0,0,0,3.86-19Z" transform="translate(-0.39 -0.23)"/><path class="0b24e19f-8648-47f2-b226-aafee14b36c5" d="M210.19,180.57c-6.46,2.07-12.22,1.17-17.77-.73-3.85-1.32-6.64-1.31-8.75,2.85-2.78,5.46-7.81,7.09-13.66,7.08-37.24,0-74.48,0-111.73-.06-8.26,0-14.74-5.79-14.86-14.14q-.53-36.28,0-72.57C43.51,94.22,51,87.16,60,87.11c35.61-.19,71.22-.28,106.83,0,13.16.11,19.64,7.24,19.9,20.74.25,13.32.72,26.68-.13,39.95-.76,11.9,4.76,19.56,13.69,25.85C203.56,176,206.88,178.27,210.19,180.57Zm-95.74-58.1v0c10.84,0,21.69,0,32.53,0,2.72,0,6.08,0,6.17-3.65.08-3.25-3.12-3.41-5.5-3.42q-33.34-.13-66.69,0c-2.39,0-5.55.14-5.74,3.24-.24,3.88,3.27,3.77,5.89,3.8C92.22,122.53,103.34,122.47,114.45,122.47Zm.16,30c-11.14,0-22.27,0-33.41,0-2.43,0-5.57-.07-5.88,3-.41,4.07,3.37,3.76,5.83,3.78q33,.29,66,.17c2.44,0,6.25.17,5.8-3.88-.41-3.74-4-3-6.55-3.07C135.8,152.36,125.21,152.42,114.61,152.43Zm-1.19-11.69c11.12,0,22.25.07,33.37-.05,2.52,0,6.2.55,6-3.48-.13-3.29-3.36-3-5.74-3q-33,0-65.92,0c-2.36,0-5.62-.33-5.64,3,0,3.94,3.6,3.36,6.16,3.39C92.27,140.78,102.85,140.72,113.43,140.74Z" transform="translate(-0.39 -0.23)"/><path class="8c77d45c-708e-431b-a76f-0682093b364a" d="M276.72,220.69l-11.61-1.37c-8.91-5.48-18.49-10-24.51-19.27-5.61-8.61-9-17.89-9-28.17,0-4.5-.85-6.8-6.12-7.09-9.76-.54-12.74-4.15-13-13.82,0-.81,0-1.62,0-2.44,0-17.44,1.48-19,18.65-19.65,1.41,2.05-.24,5,2.25,7.12,6.92-11.14,11.59-23.11,15.16-35.55.81-2.82,1.09-5.35,5.15-3.7,23.76,9.66,48.73,8.16,73.57,7.82l-.19.5.05,61.73c-10.35,3-11.81,5.93-11.33,21.55.23,7.56,3,12.56,11.25,13q.14,9.56.29,19.13Z" transform="translate(-0.39 -0.23)"/><path class="fd19d268-188e-4517-8bcc-3150dbbd2ff3" d="M626.31,556.71q0,1.74,0,3.49-.25,9.75-.5,19.5c-2.74,5.16-7.07,6.8-12.82,6.76-26.92-.18-53.84-.25-80.76,0-7.78.08-10.77-3.07-10.74-10.61q.21-41.6,0-83.2c0-7.58,3.23-10.74,10.84-10.69,26.65.18,53.29.1,79.94,0,6.31,0,11.19,1.86,13.7,8.05q.13,2.39.26,4.79,0,3.27,0,6.55t.07,6.54q0,1.62.09,3.25c-1.84,3.69-5.24,3.2-8.49,3.2-11.39,0-22.78-.11-34.16.11-12.16.24-20.29,9.08-19.83,21,.34,9,6.09,14,13,18.21,0,5.27,4.06,3.06,6.29,3.09,14.19.24,28.39.16,42.59.18Z" transform="translate(-0.39 -0.23)"/><path class="f2492ace-7b4f-4fab-9e29-5aa246446b62" d="M296,400.11c2.62-5.14,4.12-11,9-14.73,3.5-.09,5.89,2.15,8.5,4,6.74,4.74,13.54,9.4,20.32,14.1-.59.91-1.19,1.82-1.76,2.74-13,21-7.9,48.15,11.87,63.5,17.76,13.78,45,11.22,61.81-5.17,9.19-8.94,11.76-20.45,14.7-32,11.23-1.4,22.61.68,33.81-1.46,1.07,41.84-32.52,78.56-74.48,82.07-24.1,2-44.83-5.06-62.85-20.82a25.08,25.08,0,0,1-3-3.77l7.21-6.92c4.24.52,8.18.14,10.06-4.43a6.87,6.87,0,0,0-1.7-8.08,7.48,7.48,0,0,0-8.22-1.5c-4.94,1.92-5.48,6-4.53,10.61-2.49,2.38-4.34,5.46-7.7,6.85-13-16.61-20-35.27-19.44-56.52C289.93,418.64,292.4,409.25,296,400.11Z" transform="translate(-0.39 -0.23)"/><path class="a7ce91f4-4299-4c97-b804-f9488383183d" d="M555.16,230.71c-10.29-2.42-20.64-4.61-30.83-7.37-4.69-1.27-7.16.25-9.08,4.25s-3.39,8.16-7.37,10.49c-5.85,3.42-8.72,8.47-9,15.14-1.57-2.76,2-9.22-4.37-8.23-10.39,1.62-19.6-1-28.74-5.12-5.26-9.11-11.32-17.9-10-29.35.16-1.42-1.87-3.09-2.89-4.64l.14-51.75c9.69-5.26,20.64-5.92,31.09-8.33,21.32-4.92,42.75-9.41,64.11-14.17a57.24,57.24,0,0,0,6.87-2.45C556,163,555.79,196.87,555.16,230.71Zm-82.68-3.59c6.65,7.9,14.74,9.16,24.06,3.75a10.88,10.88,0,0,0,2.32-.7c3.47-2,6.35-4.56,5.77-8.91-.6-4.57-4.78-3.4-7.73-4.13-6.55-1.62-13.06-3.37-19.64-4.85-2.75-.62-6-2.59-8.33.21s-1.33,6.23,0,9.24A42,42,0,0,0,472.48,227.12ZM466.81,168c.53-.1,1.07-.18,1.6-.3,23.5-5.29,47-10.54,70.5-15.92,3-.68,6.12-2,4.85-6-1.19-3.8-4.39-3.36-7.44-2.68q-13.08,2.92-26.15,5.85-21.79,4.92-43.57,9.9c-2.76.64-5.39,1.85-5.06,5.3C461.82,167.17,464,168.14,466.81,168Z" transform="translate(-0.39 -0.23)"/><path class="78c83c26-f886-4ee0-afe2-67dcaff97394" d="M651.84,356.33l.9,43.71,0,3.63c-.16,9.22-.52,18.44-.39,27.66.08,5.61-2.17,7.72-7.73,7.7q-61.95-.14-123.89.06c-6.72,0-9.17-3-9-9.5.22-7-.16-14.11-.28-21.17q0-24.51,0-49l.41-3Zm-89.68,37c-2.1.68-5.29,0-4.76,3.9.5,3.6,3.5,2.88,5.66,2.91,13.73.14,27.46,0,41.19.18,3.17,0,6-1.2,6.08-3.86.11-2.84-3.45-2.68-5.75-3.19a47.64,47.64,0,0,0-22.8,0l-3.32,0A24.59,24.59,0,0,0,562.16,393.31Zm20.41-18h20.34c10,0,20.07,0,30.11-.07,2.49,0,5.41-.42,5.48-3.55s-2.8-3.53-5.33-3.66c-1.35-.07-2.71-.07-4.07-.07q-46.79,0-93.59,0a38.52,38.52,0,0,0-6.48.41c-1.91.33-3.76,1.22-3.52,3.67.18,1.91,1.69,2.77,3.37,3a53.46,53.46,0,0,0,6.49.3Q559,375.38,582.57,375.33Zm29.88,37.57v0c7,0,14.06,0,21.09,0,2.19,0,4.66-.18,4.9-3.06.27-3.27-2.2-4.14-4.78-4.15-14.33,0-28.66,0-43,.13-2.28,0-5.4.37-5,3.84.35,3.21,3.29,3.17,5.7,3.2C598.38,413,605.42,412.91,612.45,412.91Zm-63.37,0v-.06c6.49,0,13,.05,19.46,0,2.24,0,4.57-.51,4.65-3.38s-2.24-3.65-4.44-3.67c-12.7-.11-25.4-.14-38.1,0-2.35,0-5.37.59-5.08,3.88s3.23,3.2,5.67,3.23C537.18,413,543.13,412.91,549.08,412.91Zm.73-25.65c6.8,0,13.6.06,20.39,0,2.21,0,4.63-.39,4.6-3.38,0-2.51-2.08-3-4.06-3q-20.39-.08-40.79,0c-2,0-4.06.63-4.22,3-.22,3,2.33,3.37,4.49,3.41C536.76,387.33,543.28,387.25,549.81,387.26Zm63.88,0v0c6.51,0,13,0,19.54,0,2.14,0,4.77.16,5-2.78s-2.06-3.61-4.35-3.62q-20.35-.1-40.7,0c-2,0-4.06.48-4.27,2.84-.26,3,2.2,3.49,4.39,3.53C600.12,387.33,606.9,387.25,613.69,387.25Zm-38.45,37.61c5.43,0,10.86.08,16.28,0,2.16,0,4.7-.27,4.47-3.38-.18-2.36-2.24-3-4.19-3-10.85-.08-21.71-.12-32.56,0-2.21,0-4.67.68-4.48,3.56s2.94,2.77,5,2.82C564.93,424.94,570.09,424.86,575.24,424.86Zm45.87-.12v0c4.59,0,9.19.07,13.78,0,1.68,0,3.31-.71,3.55-2.64a2.83,2.83,0,0,0-2.71-3.39q-13.75-.21-27.5,0a2.91,2.91,0,0,0-2.82,3.33c.22,2,1.89,2.56,3.55,2.61C613,424.81,617.06,424.74,621.11,424.74Zm-82.57-24.62v0c3,0,5.92,0,8.88,0,2.54,0,4.36-1,4.15-3.65-.17-2.09-1.85-3-4-3-6.19.06-12.37,0-18.56,0-2,0-3.85.6-3.83,3.09,0,2.32,1.68,3.31,3.72,3.4C532.08,400.22,535.31,400.11,538.54,400.11Zm87.92,0v.05c2.69,0,5.37.05,8.06,0,2.27-.06,4.45-.51,4.49-3.41,0-3.07-2.34-3.21-4.51-3.24-5.64-.06-11.28-.12-16.92.09-1.88.07-4.8-.38-4.52,3,.21,2.57,2.15,3.5,4.54,3.53C620.55,400.18,623.5,400.16,626.45,400.16Zm-91.74,24.78c1.69,0,2.78.1,3.84,0,2.5-.28,6.33.83,6.52-2.86.22-4.29-3.84-3.48-6.64-3.75a11.66,11.66,0,0,0-3.22,0c-3.34.63-9.2-1.93-9.16,3.33S532.06,424,534.71,424.94Z" transform="translate(-0.39 -0.23)"/><path class="3b932c3e-9e85-4662-b2db-29bbb59b48e4" d="M687.9,391.91l25.2-.54a.6.6,0,0,1,.7.49c8.62,3.15,17.31,2.47,26,.5a4.21,4.21,0,0,0-.19-1.13c29.25,1.41,58.51.83,87.76.3,8.09-.24,16.18,1.7,24.28.11l31.74.87c-1.5,14.54,0,29.07.13,43.61a4.17,4.17,0,0,0-.14,1.28l-1.8,1.69H684.79c0-.47-.05-.94-.06-1.41h64c-2.57-1.08-3.05-1.45-3.53-1.45-16.49-.05-33-.12-49.47-.06-3.72,0-7.62-.82-11.06,1.47l-3.3-3.15v-.11c3.41-11.17.79-22.6,1.47-33.89C683.12,396.65,682.48,392.58,687.9,391.91Zm68.33,31.31c2.17-1.94-4.39-10.53,5.2-6.83a12.61,12.61,0,0,1-.25,3.17c-1,2.81-.94,6,2.29,6.18,2.8.18,1.74-3.31,2-5.28.37-3.19-.53-7.16,1.06-9.45,3.23-4.67.25-4.23-2.62-4.28a52.38,52.38,0,0,0-5.62.48l-1.9-.35c-7.58-1.58-11.12,1.06-9.75,9.14.31,1.82,0,3.75,0,5.62.08,2.08-.26,4.8,2.93,4.58C752,426,755.95,428.41,756.23,423.22Zm-59.66-16c4.34,5.49.2,13.5,5.24,19.17,2.9-3.19,2.14-6.69,1.78-9.7-.48-4,2.15-6.4,3.6-9.42-1.32-4.85-5.28-3.61-8.58-3.57C696.36,403.68,694.89,404.63,696.57,407.17ZM794,407l-3.28.16-5.64-.22c-1.89-.12-4.14-.57-4.67,1.94-1.17,5.56-3.7,11-2.38,19,4.15-8.75,7.3-1.73,10.79-1.54l2.75-.23,8.29-.14,3.84.19c4.47,1.41,8.57-1.11,12.89-1.2,4.7,1.38,10.11,3.94,8.58-5.12,1.6.68,2.8,1.79,2.78,3.58,0,6.2,3.24,4.57,6.6,2.9l9.88-.19,3.65.06c3.51,0,2.67-2.55,2.77-4.59.18-3.59-.76-7.32,1.43-11.05.08,4.22,8.95,0,6,7.14-.88,2.14-4.13,5.72,0,7.67,3.37,1.59,7.42,2.38,10.93-.48-1.13-2.73-12-1.88-2.3-7.29a2.36,2.36,0,0,0,.09-2c-10.17-5.11,2.46-4.81,1.9-8.63H848.14l-3.78-.12c-5.29-.35-1.91,4.61-3.91,6.3-2.71-1.38-1.26-6.8-6-6.32l-3.1.16c-5-.42-10-.69-14.72,1.42-4.44.58-8.42-3.25-13-1.36l-3.18,0-3-.07Zm-57.36-.44c-2.46-4.38-4.47,1.09-6.77.31-3.06.64-7.79-2.52-8.72,2.87-.77,4.48-.24,9.2-.23,13.81,0,1.11,1.33,2.66,1.57,2.18,3-5.9,5.91,1.76,8.74,0l3.9.59c3.25-.26,7.49,1.85,8.83-3.22,1.13-4.28.34-7.48-5.09-7.86-1.31-.09-1.76-2.07-1.13-3.4.85-1.81,2-1.2,3.08,0s2.44,1.35,3-.33a4.07,4.07,0,0,0-.53-3.07C741.77,405.77,739,407.05,736.67,406.56Zm-30.07,18.68,1.22,1.89c3.23-5.66,6.53-4.25,10.22-.84a145.09,145.09,0,0,0-2.6-16.21c-.34-1.67-.91-3.18-3-3.09s-2.53,1.82-2.86,3.36C708.53,415.29,707.59,420.27,706.61,425.24Zm154.34,12.1v-.71H785.74v.71Zm-97.89-1-.28.79h9.83l-.06-.79Z" transform="translate(-0.39 -0.23)"/><path class="1cce1ddf-ffdc-4c3c-8adb-81e42c42d9ed" d="M333.86,403.47c-6.78-4.69-13.57-9.36-20.32-14.1-2.62-1.84-5-4.08-8.5-4,6.16-12.15,16.57-20,28.13-26,26.79-14,53.67-13,80.26,1,12.14,7.12,21.34,17.32,29.68,28.42,6.3,13.41,11.76,27,11.18,42.26-11.2,2.14-22.58.06-33.81,1.46a3.66,3.66,0,0,0-.71-1.12l-.91-3.86c-.68-13.07-6.74-23.37-16.4-31.8-21.05-16.52-48.25-14.68-64.88,4.38Z" transform="translate(-0.39 -0.23)"/><path class="fd19d268-188e-4517-8bcc-3150dbbd2ff3" d="M327.27,104.57c-24.84.34-49.81,1.84-73.57-7.82-4.05-1.65-4.34.88-5.15,3.7-3.57,12.43-8.24,24.41-15.16,35.55-2.49-2.15-.85-5.07-2.25-7.12.06-10.3.1-20.59.2-30.89.26-29.08,21.43-50.29,50.32-50.33,15.17,0,30.35.16,45.52.25Q327.22,76.24,327.27,104.57Z" transform="translate(-0.39 -0.23)"/><path class="38f76e22-df11-4499-a11a-fc9f4fa33a87" d="M713.8,391.85a.6.6,0,0,0-.7-.49c-9.49-10.52-18.74-21.22-25.08-34.11a95.61,95.61,0,0,1-10.17-47.55c.33-6.76.35-13.54.51-20.31,4.41-.85,2.31-4.23,2.59-6.68,10.74-34.49,32.34-58.77,66.43-71.85a96.32,96.32,0,0,1,44.56-6.09c23.73,2.35,45.21,10.6,63,27-.93,5.75-6,8.17-9.58,11.8-28.15-27.46-74.26-32-109.39-10.85-34.66,20.91-51.47,63.7-40.53,102.26,7.06,24.87,22.64,42.81,44.17,56.19a4.14,4.14,0,0,1,.2,1.13Z" transform="translate(-0.39 -0.23)"/><path class="1d3ad4e9-0740-4a84-b77b-5ab4270ce1fe" d="M327.27,104.57q0-28.33-.1-56.66c16.78-.06,33.58-.63,50.34-.07,25.36.85,44.82,22.7,45.45,50.21.23,10.27.26,20.55.38,30.82l.16.64c-1.61.61-1.26,1.71-.72,2.86l-2.49,1.45c-15.19-18.18-30-36.65-41.75-59.09C375.42,90,370.37,101.19,355,103.39c-1.6-1.53-2.64-1-3.35.88l-24.54.8Z" transform="translate(-0.39 -0.23)"/><path class="0b24e19f-8648-47f2-b226-aafee14b36c5" d="M153.21,454.53c11.49,4.42,13.94,7.86,14,19.92,0,10,.15,20.09,0,30.13-.22,12.08-4.42,16.43-16.23,16.26-15.17-.22-30.38,1.18-45.51-1.25-4.26-.68-8.61.12-12.94.78-9.28,1.43-14.76-3.12-14.92-12.44-.22-13,.3-26.07-.2-39.09C77,460,84.43,458.13,89.09,453.68l5,2.21c2.27,6.07,4.26,12.36,9.42,16.72,17.64,14.92,39.79,6.71,45.6-16.83Z" transform="translate(-0.39 -0.23)"/><path class="f2492ace-7b4f-4fab-9e29-5aa246446b62" d="M651.94,182.5c-2.88-6.86-7.5-12.36-12.52-17.83-11.21-12.2-12.13-31.51-2.77-43.62,11.32-14.66,29.21-18.87,45.14-10.63,14.21,7.35,21.93,25.21,17.26,40.17a36.29,36.29,0,0,1-8.08,14c-1.48,1.59-3.74,2.81-4.5,4.67-5.27,12.82-15.71,13.78-27.33,12.49-1.29-.14-2.66.41-4,.64Zm31.31-38.55c-12.21-5.15-24.42-3.67-36.61-.25,5.48,3.81,5.58,4,10.76.79a3.83,3.83,0,0,1,4.34-.26c4.85,2.34,10.79-1.85,15.62,2.77C678.37,148,682.42,146.35,683.25,143.95Z" transform="translate(-0.39 -0.23)"/><path class="fd19d268-188e-4517-8bcc-3150dbbd2ff3" d="M651.84,356.33l-140,0c0-6.79,0-13.59-.1-20.38-.08-5,2-7.59,7.21-7.58q63.59.08,127.19,0c4.13,0,6,1.95,5.91,6Q651.94,345.36,651.84,356.33ZM526,333.13c-1.92,2.67.41,7-1,7.92-5.47,3.7-1,7,.83,8.15,2.48,1.6,5.86-.85,7.52-3.1,1.91-2.59,1.71-6.14-1.79-7.52C528.73,337.49,528.58,334.18,526,333.13Zm28.95,13.59c2.87-.26,4.45-1.72,4.16-4.7s-2-4.2-4.91-3.94c-2.6.24-3.68,1.87-3.73,4.31C550.38,345.41,552,346.72,554.91,346.73Zm-11.57-8.5c-5.1.29-5.92,2-5.79,4.48a3.35,3.35,0,0,0,3.6,3.49c2.44,0,4.15-1.4,4-4C545,339.86,543.76,338.2,543.34,338.23Z" transform="translate(-0.39 -0.23)"/><path class="f2492ace-7b4f-4fab-9e29-5aa246446b62" d="M156.26,586.59c9.78-8.2,19.65-16.29,29.28-24.66,3.36-2.92,6.3-3.34,10.29-1.34,7.77,3.89,15.75,7.35,23.65,11,4.24,2,8.09,4.9,13,5.3,10.14,6.32,21.37,10.42,32,15.67,4.7,2.32,9.34,5.07,6.44,11-3,6.09-8.08,3.48-12.63,1.35q-19.48-9.14-39-18.19c-4.5-2.74-9.56-4-14.51-5.54-9.07-7.51-11.4-7.62-20-.56-3.35,2.75-6.52,5.72-9.76,8.59A55.25,55.25,0,0,0,163.43,599l-19.36,16c-2.29,1.89-4.54,3.85-6.89,5.66-5.27,4-38.12-2.55-41.42-8.27a6,6,0,0,1,.24-6.86,6.54,6.54,0,0,1,7.15-2.69c5.3,1.07,10.54,2.4,15.79,3.71,11.74,2.93,15.76,1.23,22.36-9.54C147.68,595.5,151.39,590.21,156.26,586.59Z" transform="translate(-0.39 -0.23)"/><path class="38f76e22-df11-4499-a11a-fc9f4fa33a87" d="M851.68,391.64c-8.1,1.59-16.18-.34-24.28-.11l7.4-5c46.65-31.71,54.41-97.27,16.25-137.3,3.16-4,6.11-8.32,11.55-9.61a111.31,111.31,0,0,1,24.65,46.88c4.18,16.77,3.46,33.11.33,49.69-3.49,12.07-10.26,22.77-14.6,34.49-2.09.08-2.52,1.47-2.52,3.2Z" transform="translate(-0.39 -0.23)"/><path class="8c77d45c-708e-431b-a76f-0682093b364a" d="M94.06,455.89l-5-2.21c-6.48-5.19-12.09-10.89-12.06-20,0-3-1.82-3.89-4.52-4.61-6.78-1.83-5.12-7.6-4.51-12.1.69-5.07,4.78-5,8.81-4a3.38,3.38,0,0,0,.41.68c.18.18.61.44.65.4,3.53-3.55,4.68-8.27,6-12.81,1.07-3.59,2.45-4.46,6.35-3.17,10.15,3.34,20.71,3,31.24,2.21l-.06.79.05,54.34Z" transform="translate(-0.39 -0.23)"/><path class="3b932c3e-9e85-4662-b2db-29bbb59b48e4" d="M77.85,239.94c2.46-13.38,11.91-21,23-26.68,22.77-11.68,52-2.08,63.8,20.48,12.2,23.4,3.7,52.6-19,65-1.85,1-4.09,1.33-6.14,2l-5.08-13c1-.5,2-.93,2.87-1.5,13.26-8.26,20.25-21.77,17.9-34.57-2.31-12.61-13.72-25.11-24.94-27.32C113.47,221,102,226,92.54,240.93c-.72,1.13-1.62,2.15-2.43,3.22Z" transform="translate(-0.39 -0.23)"/><path class="0b24e19f-8648-47f2-b226-aafee14b36c5" d="M443.1,388.8c-8.34-11.09-17.53-21.3-29.68-28.42q.34-11.23.67-22.46c16.1.08,32.21.15,48.31.28,3.45,0,7-.55,10.23,1.37q-.15,23.85-.29,47.68C462.6,388,452.7,385.6,443.1,388.8Z" transform="translate(-0.39 -0.23)"/><path class="0b24e19f-8648-47f2-b226-aafee14b36c5" d="M576.87,553.64c-6.93-4.22-12.67-9.21-13-18.21-.45-11.89,7.68-20.73,19.83-21,11.38-.22,22.77-.11,34.16-.11,3.25,0,6.65.5,8.49-3.2,6.37,3.1,8.47,8.09,7.79,15.11a112.16,112.16,0,0,0,0,19.47c.49,6.21-1.69,9.81-7.8,11l-.57.2c-1.53-4.25-5.22-3.14-8.28-3.16C603.93,553.64,590.4,553.66,576.87,553.64Zm14.63-19.46c-.44-4-2.8-6.65-7.25-6.78s-7.3,2.09-7.37,6.75c-.07,4.83,2.51,7.88,7.38,7.7C588.47,541.69,591.19,539.12,591.5,534.17Z" transform="translate(-0.39 -0.23)"/><path class="263cd3b5-85a3-4f2c-bd29-d7ac9af135ad" d="M121.51,455.43q0-27.17-.05-54.34c10.14-.79,21.89,1.84,25-13.52,6.73,10.39,12.28,19.73,20.54,27l.34,15-.19.25c-2.29,5.06-5.51,9.85-4.85,15.82-1.93,4.09-5.4,6.6-9.07,8.92l-4.12,1.25Z" transform="translate(-0.39 -0.23)"/><path class="f2492ace-7b4f-4fab-9e29-5aa246446b62" d="M844.51,118.85c0,13.56-.16,27.13.08,40.69.1,5.6-2,7.55-7.62,7.65-15.4.26-15.39.47-15.4-15.27,0-24.14.18-48.29-.15-72.42-.09-6.79,2.23-9.53,8.9-8.76a27.34,27.34,0,0,0,5.69,0c6.14-.59,8.83,1.61,8.62,8.25C844.22,92.26,844.51,105.56,844.51,118.85Z" transform="translate(-0.39 -0.23)"/><path class="8c77d45c-708e-431b-a76f-0682093b364a" d="M555.16,230.71c.63-33.84.81-67.68-.1-101.52,4-5.89,10.08-4.86,15.39-3.53s3.51,6.67,3.52,10.48q.13,43.93-.08,87.86c0,3.77,1.92,9.26-3.46,10.44C565.22,235.58,559.06,236.72,555.16,230.71Z" transform="translate(-0.39 -0.23)"/><path class="78c83c26-f886-4ee0-afe2-67dcaff97394" d="M440,546.79c10.82.11,21.65.53,32.46.2,5.89-.18,8.2,1.38,8,7.66-.43,12.44-.33,24.9,0,37.35.17,5.74-1.82,7.39-7.46,7.33-20.29-.19-40.59.11-60.89.23l-13.3-.05L388,599.8c-14.59-1.54-14.58-1.54-15.07-16.37-.05-1.6-.38-3.19-.58-4.79a8,8,0,0,0,.29-5.56l0-7.73c1.33-18.23,1.33-18.22,20.09-18.23,4.85,0,9.69-.11,14.54-.17l13.48-.2,12.4.15Zm-13.78,46v0c13.59,0,27.18,0,40.77,0,3.89,0,7.06-.36,7-5.49-.13-9.51-.07-19,0-28.53,0-3.9-2-5.17-5.63-5.17q-41.58.07-83.16,0c-4.19,0-5.82,1.77-5.75,5.89.13,8.69.31,17.4-.07,26.08-.26,5.94,2.31,7.38,7.74,7.26C400.1,592.55,413.14,592.75,426.19,592.75Z" transform="translate(-0.39 -0.23)"/><path class="f2492ace-7b4f-4fab-9e29-5aa246446b62" d="M784.22,131c0-9.77.1-19.53,0-29.3-.06-4.37,1.62-6.19,6.15-6.54,17.47-1.33,17.93-1,17.93,16.22,0,15.46-.28,30.93.12,46.39.18,7-2,9.64-9.28,9.4-16.59-.56-14.79,1.16-14.88-15C784.18,145.15,784.22,138.1,784.22,131Z" transform="translate(-0.39 -0.23)"/><path class="a7ce91f4-4299-4c97-b804-f9488383183d" d="M441.62,152l1.61,3.29q-.08,24.39-.15,48.77c-3,.51-5.76-1-8.63-1.41-7.29-1-14.21-4.9-21.89-2.81-.92-1-1.68-2.25-2.8-2.89-8.65-4.91-10.26-12.74-9-21.67,1.19-8.68,7.62-11.8,15.05-13.85a54.53,54.53,0,0,0,6-2.41C428.61,157.33,437.11,160.29,441.62,152Z" transform="translate(-0.39 -0.23)"/><path class="f2492ace-7b4f-4fab-9e29-5aa246446b62" d="M863.92,225.15c-3.49-21.21,3.6-37.68,21-50.56,7.77-5.76,13.92-13.7,20.89-20.57,1.87-1.84,3.67-5.23,6.44-4.19,3.42,1.28,1.8,5.21,2,8,.43,5.94-.55,12,.91,17.86-2.22,2-4.54,3.81-6.65,5.88Q886.17,203.33,863.92,225.15Z" transform="translate(-0.39 -0.23)"/><path class="f2492ace-7b4f-4fab-9e29-5aa246446b62" d="M917.77,181.82l23.51-.78c1.32,0,2.82-.47,3.57,1.07s-.23,2.64-1.17,3.57q-22,21.65-44,43.24c-1.92,1.88-4.52,1.57-6.94,1.59-7.58.06-15.16.07-22.73.09,1.76-2,3.42-4.18,5.31-6.09Q896.5,203.12,917.77,181.82Z" transform="translate(-0.39 -0.23)"/><path class="0b24e19f-8648-47f2-b226-aafee14b36c5" d="M883.55,436.13c-.14-14.54-1.63-29.07-.12-43.61q.06-1.05.11-2.1c2.36-1.3,4.24-3,4.7-5.82,3.55-1.16,5.59-4.07,8.05-6.61,5.24-5.41,9.3-12.07,16.25-15.72q.22,21.05.44,42.1c0,2.19,0,4.65-1.71,6.08C901.55,418.5,894.84,429.79,883.55,436.13Z" transform="translate(-0.39 -0.23)"/><path class="0b24e19f-8648-47f2-b226-aafee14b36c5" d="M687.9,391.91c-5.42.67-4.78,4.74-5,8.57-.67,11.29,1.94,22.72-1.47,33.89-11.9-8.05-22.88-17-28.72-30.7l0-3.63c2.33-12,0-24.25,1.38-37.4,7.46,7.39,14.44,14,21.08,21C678.84,387.44,682.81,390.46,687.9,391.91Z" transform="translate(-0.39 -0.23)"/><path class="f2492ace-7b4f-4fab-9e29-5aa246446b62" d="M134.44,287.66l5.08,13c-27.62,13.12-63.77-8.28-65.25-38.86-.36-7.4-1.72-15.27,3.57-21.88l12.26,4.21C82.45,276.26,107.69,296.09,134.44,287.66Z" transform="translate(-0.39 -0.23)"/><path class="3b932c3e-9e85-4662-b2db-29bbb59b48e4" d="M917.77,181.82q-21.24,21.34-42.47,42.69c-1.89,1.91-3.54,4.05-5.31,6.09-3.75,1.94-5.83,5.25-7.38,9-5.46,1.29-8.4,5.58-11.57,9.61l-14.52,14-14.1,14.35-18.18,18.15c-4.62,2.47-6.76,7.84-11.66,10a4.86,4.86,0,0,1-3.72-3.41l.07-.11a4,4,0,0,0,3.32-3.14l6.52-8.79,17.92-17.38,14.79-14.8c4.76-4.69,10-8.92,13.88-14.45,3.57-3.63,8.65-6,9.58-11.8a17,17,0,0,0,9-6.68q22.28-21.79,44.57-43.57c2.12-2.06,4.43-3.92,6.65-5.88C917,177.34,918.15,179.24,917.77,181.82Z" transform="translate(-0.39 -0.23)"/><path class="5c09fac2-b7a5-4b63-aa8f-038aa418cf65" d="M846.91,566.34c-11.34-1.31-26.82-1.31-42.3-1.66-6.94-.16-13,1.22-17.55,6.67-3.21,3.87-5.47,3.23-8.31-.41-3.8-4.86-9.12-6.35-15.2-6.22-17.65.38-35.28.71-52.92,1.64-19,1-29.34-9.76-29.4-28.6,0-3.81,0-7.61.06-11.42,0-1.54-.2-3.69,2-3.81s2.47,1.87,2.52,3.49c.15,4.62.08,9.24.21,13.86.37,13.36,8.82,22,22.16,21.81,17.1-.24,34.22-.66,51.28-1.79,9-.59,16.5,5.86,23.71,5.67s14.83-6.23,23.73-5.65c16,1,32,1.45,48,1.82,16.95.38,25.08-7.62,25.43-24.53.07-3.53,0-7.07.08-10.6,0-1.55-.29-3.76,1.75-4,2.75-.38,2.7,2.2,2.83,3.95C886.67,548.48,883.36,567.5,846.91,566.34Z" transform="translate(-0.39 -0.23)"/><path class="f2492ace-7b4f-4fab-9e29-5aa246446b62" d="M645.49,255.69c-.34,2.45.92,6.09-3.43,6.83-3,.51-5.46-.41-6.1-3.81-.53-2.82-1.11-5.48-4.89-5.16a3.32,3.32,0,0,0-3.36,3c-.3,3.15-1.36,6.55,1.62,9.12a9.3,9.3,0,0,0,2.21,1c4.35,2,10.67,1.25,12.87,6,2.65,5.69,1.11,12.31.89,18.52-.28,7.75-7.47,11.18-12.41,13.3-5.5,2.36-9.09-5.69-13.34-9.14-3.33-2.7-2.57-8.12-1-12.32.74-2,3.12-1.77,5-1.69,2.28.1,3.42,1.41,3.72,3.56.4,2.82.89,5.58,4.68,5.35a3.41,3.41,0,0,0,3.38-3c.46-3.17,1.38-6.59-1.84-9a12.91,12.91,0,0,0-3.68-1.69c-6.27-2.06-12.39-2.56-12.66-12.55-.31-11.37,3.05-19.41,12.46-24.76C635.16,236.07,645.57,246.93,645.49,255.69Z" transform="translate(-0.39 -0.23)"/><path class="0b24e19f-8648-47f2-b226-aafee14b36c5" d="M665.85,90.17c21.81,0,39.75,12.74,47.95,34,7.59,19.64,2.59,40.79-13.06,55.09-1.74,1.59-4,4.79-6,2.9-3-2.86,1.25-4.53,2.84-6.22,20-21.31,20.06-52.13-1.41-69.6C669.25,84.36,633.47,95,621.15,125c-7.72,18.82-1.78,35.56,10.83,50.49,1.58,1.88,5.88,3.87,3.48,6.21-2.83,2.76-5.08-1.55-7-3.4-14.56-13.93-19.22-36.82-11.51-55.56C625.5,101.95,643.21,90.14,665.85,90.17Z" transform="translate(-0.39 -0.23)"/><path class="f2492ace-7b4f-4fab-9e29-5aa246446b62" d="M725.16,534.2c-2.44,0-4.88-.11-7.32,0-6.88.35-10.09-3.15-10.06-9.74a102.74,102.74,0,0,1,.79-14.57c1.58-10.66,3.1-11.62,13.55-9.24a16.62,16.62,0,0,0,10.35-.85c5-2.09,7.84,0,9.29,4.58,2.52,7.93,1.85,16.1,1,24.17-.38,3.64-3.4,5.41-7,5.52s-7,0-10.56,0Z" transform="translate(-0.39 -0.23)"/><path class="f2492ace-7b4f-4fab-9e29-5aa246446b62" d="M782.65,534.09c-16.91.14-19.13-2.26-17.68-19.29a49.79,49.79,0,0,1,1.56-8.81c1.34-4.92,4.51-7.35,9.76-6,4.28,1.1,8.57,1.9,12.79.07,5.78-2.51,8.74.08,10.19,5.44,2,7.49,1.27,15.12.73,22.68-.27,3.75-3.16,5.64-6.77,5.86S786.19,534.09,782.65,534.09Z" transform="translate(-0.39 -0.23)"/><path class="f2492ace-7b4f-4fab-9e29-5aa246446b62" d="M839.21,534.23c-2.44,0-4.88-.07-7.31,0-6.24.22-8.85-3-8.81-9,0-4.6-.12-9.21,0-13.81.34-10.88,2.9-12.9,13.53-10.72a15.72,15.72,0,0,0,9.57-.73c6.47-2.8,9.08.78,10.4,6.18,1.76,7.2,1.11,14.55.56,21.81-.31,4.13-3.47,5.94-7.41,6.09-3.52.13-7,0-10.56,0Z" transform="translate(-0.39 -0.23)"/><path class="1d3ad4e9-0740-4a84-b77b-5ab4270ce1fe" d="M167,414.56c-8.26-7.26-13.81-16.61-20.54-27-3.09,15.37-14.85,12.74-25,13.52l.06-.79c-3.57-8.5.44-17.46-1.59-26.05,8.09-.09,16.18-.39,24.27-.22,13.11.28,22.11,9,22.94,22.21.34,5.38.22,10.78.31,16.17Z" transform="translate(-0.39 -0.23)"/><path class="3b932c3e-9e85-4662-b2db-29bbb59b48e4" d="M472.34,387.25q.15-23.84.29-47.68c7,3.68,11.78,9.92,17,15.57,1.63,1.76,2.84,3.88,5.32,4.61,0,7.78.39,15.58,0,23.35-.36,8,1.81,16.09-1.51,23.85C485.28,401.63,479.21,394,472.34,387.25Z" transform="translate(-0.39 -0.23)"/><path class="fd19d268-188e-4517-8bcc-3150dbbd2ff3" d="M119.92,374.25c2,8.59-2,17.55,1.59,26.05-10.53.81-21.1,1.13-31.24-2.21-3.9-1.29-5.28-.42-6.35,3.17-1.36,4.55-2.51,9.26-6,12.81,0,0-.47-.21-.65-.4a3.38,3.38,0,0,1-.41-.68q.21-8.13.42-16.28C77.58,383,86,374.31,99.57,374,106.35,373.88,113.14,374.16,119.92,374.25Z" transform="translate(-0.39 -0.23)"/><path class="3b932c3e-9e85-4662-b2db-29bbb59b48e4" d="M912.53,362.26c-6.95,3.65-11,10.31-16.25,15.72-2.46,2.54-4.5,5.45-8.05,6.61-6-3.69-10.08-9.38-15.25-13.92,4.34-11.73,11.11-22.42,14.6-34.5q11.8,10.93,23.64,21.85l1.39,1.75Z" transform="translate(-0.39 -0.23)"/><path class="f2492ace-7b4f-4fab-9e29-5aa246446b62" d="M782.82,496.63c-10.57-.13-17-6.91-16.84-17.64.19-10,7-16.67,17.1-16.68,9.47,0,17.47,8.31,17.24,17.94S792.87,496.75,782.82,496.63Z" transform="translate(-0.39 -0.23)"/><path class="f2492ace-7b4f-4fab-9e29-5aa246446b62" d="M840,496.65c-10.55-.08-17.08-6.89-16.89-17.6.17-9.82,7.25-16.73,17.16-16.75,9.2,0,17.25,8,17.25,17.07C857.54,489.57,850.28,496.73,840,496.65Z" transform="translate(-0.39 -0.23)"/><path class="f2492ace-7b4f-4fab-9e29-5aa246446b62" d="M708.81,480c-.08-10.43,6.82-17.61,17-17.7,9.13-.08,17.35,8,17.36,17,0,10-6.84,17.19-16.57,17.36C715.69,496.82,708.89,490.46,708.81,480Z" transform="translate(-0.39 -0.23)"/><path class="f2492ace-7b4f-4fab-9e29-5aa246446b62" d="M495.19,473.47c-.18,2.36.5,5.24-2.65,6.13-2.66.75-4.84,0-5.44-3.18-.49-2.66-1.62-5.08-4.82-3.56-2.69,1.28-2,4.14-1.74,6.54s2.22,3.54,4.22,4.54c4.26,2.14,10.27,1.54,10.62,9.11.42,8.91-.62,16.59-9,21.51-7.32,4.28-9.17-3.83-13-6.42-3.31-2.25-4.19-8.21-.77-11.69,2.55-2.59,6.16-1.43,7.5,2.71.86,2.68,2.53,4.88,5.23,2.91s2.33-5.46.3-8c-1.09-1.34-3.19-2.08-5-2.58-5.83-1.62-9.87-3.55-10-11.31-.14-9.3,3.25-15.71,10.74-20.13C485.86,457.49,495.15,466.7,495.19,473.47Z" transform="translate(-0.39 -0.23)"/><path class="3e5e75ed-a2fa-48b5-a50b-045387a9e12a" d="M554.65,308.87c-13.61.05-23.32-9.25-23.45-22.46-.13-13.95,10.07-24.52,23.65-24.49a23.32,23.32,0,0,1,23.44,23C578.46,297.36,569.48,310.2,554.65,308.87Zm-5.75-41.8a16.51,16.51,0,0,0-9.66,7.13c-2.69,4.13-5.3,8.81,3.38,8.93,1.6,0,3.81,0,3.88,2,.1,2.74-2.51,2.39-4.26,2.4-7.54,0-6.69,3.82-3.59,8.19A26.71,26.71,0,0,0,545,302c4,2.82,7.15,2.6,7.56-3.4.14-2-.65-5.09,2.47-5,2.4,0,2,2.86,2.08,4.65.28,7.09,4.15,5.94,8,3.27a25.35,25.35,0,0,0,6.17-6.4c3.12-4.48,2.85-7.65-3.79-7.54-2,0-5.24.47-5.1-2.41s3.34-2.06,5.39-2.13c5.91-.18,6.52-2.89,3.49-7.22a34.12,34.12,0,0,0-4.72-5.56c-2-1.82-4.25-3.91-7.17-3.08-3.13.89-2,4-2.36,6.27-.3,1.75.23,4.48-2.46,4.21-2.39-.24-1.85-2.91-2.08-4.72C552.19,270.43,553.22,267.11,548.9,267.06Z" transform="translate(-0.39 -0.23)"/><path class="0b24e19f-8648-47f2-b226-aafee14b36c5" d="M493.5,406.94c3.32-7.76,1.15-15.9,1.51-23.85.35-7.77,0-15.57,0-23.35l16.48-.33q0,24.5,0,49C505.48,407.82,499.29,409.8,493.5,406.94Z" transform="translate(-0.39 -0.23)"/><path class="0b24e19f-8648-47f2-b226-aafee14b36c5" d="M156.26,586.59c-4.87,3.62-8.58,8.92-15,10.35-2.09-3.5-5.65-3.53-9.14-4.22-10.33-2-20.63-4.31-30.87-6.75-3.57-.85-6.88-3-6.38-7.18.56-4.65,4.36-6.29,8.46-5.48,16.44,3.23,32.82,6.74,49.18,10.33C153.93,583.93,155,585.57,156.26,586.59Z" transform="translate(-0.39 -0.23)"/><path class="78c83c26-f886-4ee0-afe2-67dcaff97394" d="M770.92,153.21c0,14.3-.05,13.75-14.25,14.38-8,.35-10.09-2.7-9.28-9.71a35.43,35.43,0,0,0,0-4.07c0-16,0-15.7,15.16-16.06,6.29-.15,9.24,1.53,8.41,8.14A59.43,59.43,0,0,0,770.92,153.21Z" transform="translate(-0.39 -0.23)"/><path class="5c09fac2-b7a5-4b63-aa8f-038aa418cf65" d="M398.81,599.51l13.3.05c-12.64,9-27.3,14.43-40.41,22.62-3.22,2-4.95.31-6.43-2.42q-9.13-16.81-18.36-33.57c-2.19-3.95-1.33-6.26,2.81-8.33,7.76-3.88,15.24-8.31,22.83-12.51q0,3.87,0,7.74c-5,2.59-10.07,5.22-15.13,7.77-3.12,1.57-4.51,3.4-2.45,7,4.44,7.73,8.62,15.62,12.83,23.48,1.49,2.79,3.14,4,6.33,2.16C382.31,608.69,391.15,605.14,398.81,599.51Z" transform="translate(-0.39 -0.23)"/><path class="78c83c26-f886-4ee0-afe2-67dcaff97394" d="M231.7,472c-9.52,0-19,0-28.55,0-3.51,0-7.62.54-7.83-4.66s3.79-5.08,7.41-5.08q28.14,0,56.28,0c3.47,0,7.52-.67,7.69,4.75.19,6.32-4.58,4.87-8.08,4.92C249.65,472.06,240.68,472,231.7,472Z" transform="translate(-0.39 -0.23)"/><path class="ddde4094-3c07-4be0-ad0b-78ad60665727" d="M216.17,408.45c.64-3-2.69-4.35-3.2-6.91,20.38-5.81,24.73-2.78,24.36,16.83-1.56-.84-3.74-4.63-3.68-3.19.23,5.92-5.54,3.82-8.13,7.27,7.23-.18,8.74,3.28,7,8.81l0,0c-4.67,1.4-10.12,5.71-11.25-3.73-2.93,1.93-.69,6.64-4.84,6.4-2.92-.17-4.45-2.35-5.81-5-2.49-4.76,2.48-5.31,4.61-7.55-7.67-3.08-8-4.81-2.64-9.73C213.79,410.58,215,409.52,216.17,408.45Zm10.8-2.28c-.2-.44-.28-1-.6-1.21s-.8.23-1.22.37l.78,1.67Z" transform="translate(-0.39 -0.23)"/><path class="3b932c3e-9e85-4662-b2db-29bbb59b48e4" d="M678.19,184.78c-.17,4.89,0,9.83-.6,14.66-.94,7-4.82,11.29-12.44,11.45-7.32.15-11.2-3.85-12.27-10.51-.81-5.06-.66-10.28-.93-15.44Z" transform="translate(-0.39 -0.23)"/><path class="8c77d45c-708e-431b-a76f-0682093b364a" d="M766.49,114.54c-.42,5,.41,8.43-3.08,11.18-6,4.72-12.94,2.51-14.54-5.09-.91-4.31-.16-7.33,5.26-5.44,1.31.46,2.46,2.87,3.69.37,1.11-2.26-.75-3.09-2.58-4.08-8.78-4.75-8.82-14.16-1.55-21.1,5.21-5,7,0,10,1.75,3.81,2.24,3.32,6.17,2,9.4-.94,2.39-3.45,2.21-5.13.07-1-1.32-.7-4.14-3.6-3.31-1.54.44-1.73,1.9-1.77,3.27a4.09,4.09,0,0,0,3.87,4.43C765.34,106.79,767.27,110.37,766.49,114.54Z" transform="translate(-0.39 -0.23)"/><path class="8c77d45c-708e-431b-a76f-0682093b364a" d="M441.62,152c-4.51,8.3-13,5.33-19.86,7-.06-8.43.95-16.91-1.48-25.2l2.49-1.45.72-2.87-.16-.64c1.89.09,3.78.22,5.67.28,8.66.26,12.38,3.79,12.68,12.28C441.81,144.95,441.65,148.48,441.62,152Z" transform="translate(-0.39 -0.23)"/><path class="3e5e75ed-a2fa-48b5-a50b-045387a9e12a" d="M321.21,481.62,314,488.54c-8.33,9.27-18.4,16.84-25.82,27.06-2.64,3.63-7.55,2.08-11.56,2.08-1.41-3.67-4.65-3.17-7.54-3.18q-31.54-.07-63.09,0c-2.87,0-6.13-.59-7.63,3l-4.69.07q-.08-2.33-.15-4.66h-.15l81-.15c4.29,0,8.89.64,11-4.6l23.77-23.12c3.35-1.4,5.21-4.48,7.69-6.85,2.77-1.51,4.56-7.38,7.94-4.43C327.8,476.45,322.14,478.75,321.21,481.62Z" transform="translate(-0.39 -0.23)"/><path class="0b24e19f-8648-47f2-b226-aafee14b36c5" d="M232.45,576.86c-4.88-.4-8.74-3.32-13-5.3,5.73-10.28,14-18.44,22.65-26.14,2.63-2.33,6.47-2.43,8.69.75,2.42,3.45,1.74,7.36-1.1,10.49-4.56,5-9.27,9.9-14,14.74C234.12,573,232.71,574.55,232.45,576.86Z" transform="translate(-0.39 -0.23)"/><path class="3b932c3e-9e85-4662-b2db-29bbb59b48e4" d="M443.07,204.05q.08-24.38.15-48.77c3.17-1.09,6.36-2,9.77-1.16q-.07,25.88-.14,51.75C449.33,206.69,446.25,205.12,443.07,204.05Z" transform="translate(-0.39 -0.23)"/><path class="3e5e75ed-a2fa-48b5-a50b-045387a9e12a" d="M664.72,471.91c9.26-.14,16.19,5.83,16.51,14.24.37,9.74-6.87,18.06-15.76,18.08a16.73,16.73,0,0,1-16.65-16.41C648.66,479,655.6,472,664.72,471.91Zm1.94,21.32c.17,2.3-.72,5.25,2.43,6.09,2.61.7,4.64-1,6.13-3,1.25-1.68,3.07-3.55,1.91-5.76-1.54-2.93-4.83-1.49-7.29-2.19,2.57-2.38,9.15-3.44,4.32-8.67-5.08-5.5-7,.24-9.2,3.73-2.92-1.58.67-10.79-7.21-6.33-2.7,1.53-5.61,4.27-4.71,7.59.84,3.12,4.58,1.43,7,2l.29,1.72c-2.09,2.35-7-1.08-7.48,2.58-.51,3.85,2.56,7.13,6.46,8,4.95,1.15,3.75-3,4.09-5.68Z" transform="translate(-0.39 -0.23)"/><path class="f2492ace-7b4f-4fab-9e29-5aa246446b62" d="M208.16,335.48c-.27.78-.38,2.32-1.19,3.2-1,1.11-2.48.78-3.4-.58-1.26-1.87-2.81-4.26-4.72-1.17-1.51,2.44,0,5.08,2.69,5.75,7.89,2,7,7.9,6.42,13.59-.42,3.91-3.62,6.14-6.83,7.35-2.89,1.08-4.86-1.94-6.74-3.68-2.07-1.92-3.33-4.91-1.24-7.28,2.5-2.83,4-.18,5.56,1.83,1.19,1.52,3.05,1.49,3.81-.53,1.12-3-.81-4.9-3.34-5.47-8.92-2-7.78-8.64-6.62-14.77a7.82,7.82,0,0,1,8.35-6.36C204.59,327.72,207.82,330.38,208.16,335.48Z" transform="translate(-0.39 -0.23)"/><path class="8c77d45c-708e-431b-a76f-0682093b364a" d="M465.75,239.86c9.14,4.13,18.35,6.74,28.74,5.12,6.37-1,2.8,5.47,4.37,8.23l-.4,1.7H466Q465.88,247.39,465.75,239.86Z" transform="translate(-0.39 -0.23)"/><path class="5c09fac2-b7a5-4b63-aa8f-038aa418cf65" d="M318.56,550.86c6.47,5.06,7.12,12.51,1.52,16.9-1.85,1.45-3.71,2.44-5.86.79-2.61-2-5.65-4.26-4.06-8,1.9-4.47,5,.77,7.45,0,.8-3-1.41-3.47-2.94-4.36-6.18-3.59-7.24-11.26-2.18-16,1.62-1.51,3.44-3.17,5.7-1.53s5.12,3.28,5.37,6.75c.23,3.08-1.25,4.55-4.25,4.65-.55-1-1-2.92-2.32-1.71S317.56,550.27,318.56,550.86Z" transform="translate(-0.39 -0.23)"/><path class="8c77d45c-708e-431b-a76f-0682093b364a" d="M209.89,602.32c-6.61,11.42-13.53,12.49-22.06,3.42-2.09-5.48-.27-10.08,3.19-14.33a19.48,19.48,0,0,1,10.44-1.84C206.55,592.31,209.5,596.47,209.89,602.32Zm-5.13-2c-.4-3.46-2.29-6.11-6.58-6.16-3.76,0-6.22,1.88-6.52,5.79-.32,4.23,1.89,6.92,6,7.19S204.25,605.19,204.76,600.36Z" transform="translate(-0.39 -0.23)"/><path class="0b24e19f-8648-47f2-b226-aafee14b36c5" d="M191,591.41c-3.45,4.24-5.28,8.85-3.19,14.33-7.85-3.27-17-1.83-24.4-6.77A55.09,55.09,0,0,1,175,589.14Z" transform="translate(-0.39 -0.23)"/><path class="fd19d268-188e-4517-8bcc-3150dbbd2ff3" d="M198.36,517.53c1.5-3.62,4.75-3,7.63-3q31.54-.07,63.09,0c2.89,0,6.13-.49,7.54,3.18Z" transform="translate(-0.39 -0.23)"/><path class="3e5e75ed-a2fa-48b5-a50b-045387a9e12a" d="M216.17,408.45c-1.19,1.07-2.38,2.13-3.56,3.21-5.39,4.92-5,6.65,2.64,9.73-2.13,2.24-7.1,2.79-4.61,7.55,1.36,2.6,2.89,4.78,5.81,5,4.16.24,1.92-4.47,4.84-6.4,1.12,9.44,6.58,5.13,11.25,3.73-5.26,9.6-13.44,6.47-21.27,4.88l-3-1.68a28.1,28.1,0,0,1-1.74-22.7l-.06,0,1.83-1.34C210.69,408.79,212.9,406.52,216.17,408.45Z" transform="translate(-0.39 -0.23)"/><path class="5c09fac2-b7a5-4b63-aa8f-038aa418cf65" d="M197.06,479.14h67.77l0,1.62H197Z" transform="translate(-0.39 -0.23)"/><path class="5c09fac2-b7a5-4b63-aa8f-038aa418cf65" d="M197,489.13h67.81l0,1.62H197.07Z" transform="translate(-0.39 -0.23)"/><path class="5c09fac2-b7a5-4b63-aa8f-038aa418cf65" d="M198.44,498.87h66.41l0,1.58H198.53Z" transform="translate(-0.39 -0.23)"/><path class="5c09fac2-b7a5-4b63-aa8f-038aa418cf65" d="M440,546.79l-6.91.09c-4-9.6-8.26-1-12.4-.15l-13.48.2c6.67-3.58,13.51-6.88,19.93-10.85,4.49-2.78,7.25-2.62,9.19,2.6C437.32,541.46,438.73,544.1,440,546.79Z" transform="translate(-0.39 -0.23)"/><path class="5c09fac2-b7a5-4b63-aa8f-038aa418cf65" d="M95.65,337h53.76l0,1.5H95.69Z" transform="translate(-0.39 -0.23)"/><path class="5c09fac2-b7a5-4b63-aa8f-038aa418cf65" d="M810,603.31H756.56V601.7h53.4Q809.95,602.51,810,603.31Z" transform="translate(-0.39 -0.23)"/><path class="5c09fac2-b7a5-4b63-aa8f-038aa418cf65" d="M95.64,317.64H149l0,1.61H95.69Z" transform="translate(-0.39 -0.23)"/><path class="5c09fac2-b7a5-4b63-aa8f-038aa418cf65" d="M95.64,327.37H149c-17.72,3.3-35.5,2.18-53.26,2.52Z" transform="translate(-0.39 -0.23)"/><path class="5c09fac2-b7a5-4b63-aa8f-038aa418cf65" d="M809.87,613.3H756.66l0-1.6h53.32Z" transform="translate(-0.39 -0.23)"/><path class="5c09fac2-b7a5-4b63-aa8f-038aa418cf65" d="M810,593.8H756.63l0-1.58H810Z" transform="translate(-0.39 -0.23)"/><path class="0b24e19f-8648-47f2-b226-aafee14b36c5" d="M209.89,602.32c-.39-5.85-3.34-10-8.43-12.75l3.32-8.46c4.95,1.55,10,2.81,14.51,5.54C217.36,592.6,210.8,595.76,209.89,602.32Z" transform="translate(-0.39 -0.23)"/><path class="8c77d45c-708e-431b-a76f-0682093b364a" d="M167,414.56l.45-2.15c5.42-.7,8.71,1,8.88,7.11.18,6.41-1.86,10.38-9,10Q167.16,422,167,414.56Z" transform="translate(-0.39 -0.23)"/><path class="ddde4094-3c07-4be0-ad0b-78ad60665727" d="M285.36,508.19c-2.12,5.24-6.72,4.59-11,4.6l-81,.15c2.82-2.26,6.18-1.73,9.4-1.74,17.94,0,35.88,0,53.82,0C266.28,511.16,276.07,512.07,285.36,508.19Z" transform="translate(-0.39 -0.23)"/><path class="ddde4094-3c07-4be0-ad0b-78ad60665727" d="M211.27,436.1c7.83,1.59,16,4.72,21.27-4.88l0,0c2.56-.83,3.09-3.51,4.73-5.18.31,9.57-7.24,12.48-13.94,15.29C218.34,443.45,214.41,439.91,211.27,436.1Z" transform="translate(-0.39 -0.23)"/><path class="3e5e75ed-a2fa-48b5-a50b-045387a9e12a" d="M237.23,426.08c-1.64,1.67-2.16,4.35-4.73,5.18,1.74-5.53.23-9-7-8.81,2.6-3.45,8.36-1.35,8.13-7.27-.06-1.44,2.12,2.35,3.68,3.19Q237.27,422.22,237.23,426.08Z" transform="translate(-0.39 -0.23)"/><path class="ddde4094-3c07-4be0-ad0b-78ad60665727" d="M206.54,411.72a28.1,28.1,0,0,0,1.74,22.7C199.4,427.66,198.56,416.7,206.54,411.72Z" transform="translate(-0.39 -0.23)"/><path class="0b24e19f-8648-47f2-b226-aafee14b36c5" d="M413.92,335q0-17.92.06-35.85A103.31,103.31,0,0,1,413.92,335Z" transform="translate(-0.39 -0.23)"/><path class="8c77d45c-708e-431b-a76f-0682093b364a" d="M162.28,445.6c-.66-6,2.56-10.76,4.85-15.82C167,435.51,166.41,441.1,162.28,445.6Z" transform="translate(-0.39 -0.23)"/><path class="ddde4094-3c07-4be0-ad0b-78ad60665727" d="M680.95,282.72c-.29,2.45,1.82,5.83-2.59,6.68-1.82-.65-3.47-1.64-3-3.83C676,282.5,678.69,282.92,680.95,282.72Z" transform="translate(-0.39 -0.23)"/><path class="3e5e75ed-a2fa-48b5-a50b-045387a9e12a" d="M678.19,184.78l-26.24.16q0-1.22,0-2.43l3.21-.1C662.7,184.46,670.84,180.77,678.19,184.78Z" transform="translate(-0.39 -0.23)"/><path class="0b24e19f-8648-47f2-b226-aafee14b36c5" d="M625.8,579.7q.25-9.75.5-19.5C627.82,566.74,628.48,573.27,625.8,579.7Z" transform="translate(-0.39 -0.23)"/><path class="ddde4094-3c07-4be0-ad0b-78ad60665727" d="M193.52,512.94q.07,2.33.15,4.66c-1.48-.15-3.57.33-3.85-1.68C189.47,513.41,191.78,513.34,193.52,512.94Z" transform="translate(-0.39 -0.23)"/><path class="0b24e19f-8648-47f2-b226-aafee14b36c5" d="M626.24,507.91q0-3.27-.07-6.54A5.78,5.78,0,0,1,626.24,507.91Z" transform="translate(-0.39 -0.23)"/><path class="0b24e19f-8648-47f2-b226-aafee14b36c5" d="M684.74,437.67q0,.71.05,1.42c-2.81-.31-3.45-2.19-3.37-4.61l3.3,3.15Z" transform="translate(-0.39 -0.23)"/><path class="0b24e19f-8648-47f2-b226-aafee14b36c5" d="M626.22,494.82q-.13-2.4-.26-4.79A3.54,3.54,0,0,1,626.22,494.82Z" transform="translate(-0.39 -0.23)"/><path class="ddde4094-3c07-4be0-ad0b-78ad60665727" d="M208.31,410.42l-1.83,1.34C206.64,410.7,206.82,409.67,208.31,410.42Z" transform="translate(-0.39 -0.23)"/><path class="0b24e19f-8648-47f2-b226-aafee14b36c5" d="M912.61,359.78,911.22,358Z" transform="translate(-0.39 -0.23)"/><path class="0b24e19f-8648-47f2-b226-aafee14b36c5" d="M881.61,439.1l1.8-1.69Z" transform="translate(-0.39 -0.23)"/><path class="263cd3b5-85a3-4f2c-bd29-d7ac9af135ad" d="M420.28,133.83c2.43,8.28,1.42,16.77,1.48,25.2a54.08,54.08,0,0,1-6,2.41c-7.43,2-13.86,5.17-15.05,13.85-1.23,8.93.38,16.76,9,21.67,1.12.63,1.87,1.91,2.8,2.89-4.65,10.31-15,13.7-23.47,19.43l-13.78,1.58-48-.34q-.14-9.56-.29-19.13c10.76-1.32,13-4.13,13.13-16.3.11-13.15-2.54-16.87-13.06-18.3l-.05-61.73,24.54-.8a3.09,3.09,0,0,0,3.35-.88c15.41-2.19,20.45-13.41,23.57-28.64C390.29,97.18,405.09,115.65,420.28,133.83Z" transform="translate(-0.39 -0.23)"/><path class="ddde4094-3c07-4be0-ad0b-78ad60665727" d="M389.08,219.27c8.45-5.72,18.82-9.12,23.47-19.43,7.68-2.09,14.6,1.83,21.89,2.81,2.88.39,5.59,1.91,8.63,1.41,3.17,1.06,6.25,2.63,9.78,1.82,1,1.55,3,3.22,2.89,4.64-1.31,11.45,4.75,20.24,10,29.35q.13,7.52.26,15a70.44,70.44,0,0,1-3.86,19c-3.52,9.68-10.43,11.56-18.08,4.68a88.93,88.93,0,0,1-23.19-32.9C414.85,230.73,406.41,220,389.08,219.27Z" transform="translate(-0.39 -0.23)"/><path class="38f76e22-df11-4499-a11a-fc9f4fa33a87" d="M348.79,288.9c-3.21,13.68-8.92,26.47-14.45,39.27-2.21,5.11-1.55,14.24-8.66,14.11-5.45-.1-5.54-8.6-7.52-13.47-5.36-13.22-10.1-26.69-15.08-40.06,4.1-13.92,10.57-27.43,10.25-42.21-.41-18.77-1-18.59,18-18.05,5.95.17,8.69,2.33,7.76,8.28-1.84,11.87,1.22,23,4.61,34.21C345.53,276.91,347.11,282.92,348.79,288.9Z" transform="translate(-0.39 -0.23)"/><path class="874a981f-abcd-4540-aa0d-9d7f53446b7b" d="M348.79,288.9c-1.68-6-3.27-12-5.07-17.93-3.39-11.16-6.45-22.34-4.61-34.21.92-6-1.81-8.12-7.76-8.28-19-.54-18.43-.72-18,18.05.32,14.78-6.15,28.29-10.25,42.21l-26.35-68.05,50.61-.17,48,.34C366.89,243.7,358.78,266.67,348.79,288.9Z" transform="translate(-0.39 -0.23)"/><path class="5c09fac2-b7a5-4b63-aa8f-038aa418cf65" d="M114.45,122.47c-11.11,0-22.23.06-33.34,0-2.62,0-6.13.08-5.89-3.8.19-3.1,3.35-3.24,5.74-3.24q33.34-.09,66.69,0c2.38,0,5.58.17,5.5,3.42-.09,3.65-3.45,3.64-6.17,3.65-10.84.06-21.69,0-32.53,0Z" transform="translate(-0.39 -0.23)"/><path class="5c09fac2-b7a5-4b63-aa8f-038aa418cf65" d="M114.61,152.42c10.59,0,21.19-.06,31.78,0,2.57,0,6.14-.67,6.55,3.07.44,4-3.36,3.87-5.8,3.88q-33,.12-66-.17c-2.45,0-6.24.29-5.83-3.78.31-3.07,3.46-3,5.88-3C92.34,152.4,103.48,152.43,114.61,152.42Z" transform="translate(-0.39 -0.23)"/><path class="f2492ace-7b4f-4fab-9e29-5aa246446b62" d="M113.43,140.73c-10.58,0-21.16,0-31.74-.05-2.56,0-6.19.56-6.16-3.39,0-3.35,3.28-3,5.64-3q33-.08,65.92,0c2.38,0,5.61-.32,5.74,3,.16,4-3.52,3.45-6,3.48C135.68,140.81,124.55,140.74,113.43,140.73Z" transform="translate(-0.39 -0.23)"/><path class="a7ce91f4-4299-4c97-b804-f9488383183d" d="M327.13,166.79c10.52,1.42,13.17,5.14,13.06,18.3-.11,12.16-2.37,15-13.13,16.3-8.23-.48-11-5.49-11.25-13C315.32,172.72,316.78,169.76,327.13,166.79Z" transform="translate(-0.39 -0.23)"/><path class="3e5e75ed-a2fa-48b5-a50b-045387a9e12a" d="M576.87,553.64c13.53,0,27.06,0,40.59.11,3.07,0,6.75-1.09,8.28,3.16-14.2,0-28.39.06-42.59-.18C580.93,556.69,576.82,558.91,576.87,553.64Z" transform="translate(-0.39 -0.23)"/><path class="ddde4094-3c07-4be0-ad0b-78ad60665727" d="M402.46,395.74c9.66,8.44,15.71,18.74,16.4,31.81a3.81,3.81,0,0,0,.91,3.86,3.66,3.66,0,0,1,.71,1.12c-2.94,11.56-5.51,23.08-14.7,32-16.84,16.39-44.06,18.95-61.81,5.17-19.77-15.34-24.86-42.54-11.87-63.5.57-.92,1.17-1.82,1.76-2.74l3.73-3.35c18.81.11,37.61.28,56.41.26C397.46,400.38,401.18,400.07,402.46,395.74Zm-8.24,28.67q-9.64-8-19.28-16c-1.56-1.31-3.46-2.42-5.08-.87-6.43,6.16-16.08,9-19.76,19.08,7.32-1.26,8.87,2.49,8.32,8.38-.31,3.22.21,6.52-.12,9.73-.76,7.33,2.1,10.07,9.63,9.89,20.51-.48,17.7,2.06,17.78-17.7C385.73,430.88,385.19,425.13,394.22,424.41Z" transform="translate(-0.39 -0.23)"/><path class="ddde4094-3c07-4be0-ad0b-78ad60665727" d="M321.21,481.62c.94-2.87,6.59-5.17,3.55-7.83-3.38-2.95-5.17,2.91-7.94,4.43-.94-4.6-.41-8.7,4.53-10.62a7.48,7.48,0,0,1,8.22,1.5,6.87,6.87,0,0,1,1.7,8.08C329.39,481.76,325.45,482.14,321.21,481.62Z" transform="translate(-0.39 -0.23)"/><path class="78c83c26-f886-4ee0-afe2-67dcaff97394" d="M466.81,168c-2.77.1-5-.87-5.27-3.84-.33-3.45,2.3-4.66,5.06-5.3q21.77-5,43.57-9.9,13.07-3,26.15-5.85c3-.68,6.25-1.12,7.44,2.68,1.27,4-1.89,5.32-4.85,6-23.48,5.37-47,10.63-70.5,15.92C467.88,167.86,467.34,167.94,466.81,168Z" transform="translate(-0.39 -0.23)"/><path class="ddde4094-3c07-4be0-ad0b-78ad60665727" d="M472.48,227.12a42,42,0,0,1-3.5-5.4c-1.38-3-2.36-6.47,0-9.24s5.58-.84,8.33-.21c6.58,1.49,13.09,3.23,19.64,4.85,2.95.73,7.13-.44,7.73,4.13.57,4.35-2.31,7-5.77,8.91a10.9,10.9,0,0,1-2.32.7C489.33,224.4,481.54,221.72,472.48,227.12Z" transform="translate(-0.39 -0.23)"/><path class="8c77d45c-708e-431b-a76f-0682093b364a" d="M472.48,227.12c9.05-5.4,16.85-2.72,24.06,3.75C487.22,236.28,479.14,235,472.48,227.12Z" transform="translate(-0.39 -0.23)"/><path class="a7ce91f4-4299-4c97-b804-f9488383183d" d="M582.57,375.34q-23.6,0-47.2,0a53.46,53.46,0,0,1-6.49-.3c-1.68-.21-3.18-1.07-3.37-3-.24-2.45,1.61-3.34,3.52-3.67a38.52,38.52,0,0,1,6.48-.41q46.79,0,93.59,0c1.36,0,2.71,0,4.07.07,2.53.13,5.39.5,5.33,3.66s-3,3.53-5.48,3.55c-10,.08-20.07.06-30.11.07Z" transform="translate(-0.39 -0.23)"/><path class="a7ce91f4-4299-4c97-b804-f9488383183d" d="M612.45,412.91c-7,0-14.06,0-21.09,0-2.42,0-5.35,0-5.7-3.2-.38-3.47,2.73-3.81,5-3.84,14.33-.18,28.66-.18,43-.13,2.58,0,5.05.88,4.78,4.15-.24,2.88-2.71,3-4.9,3.06-7,.06-14.06,0-21.09,0Z" transform="translate(-0.39 -0.23)"/><path class="a7ce91f4-4299-4c97-b804-f9488383183d" d="M549.08,412.91c-5.95,0-11.89,0-17.84,0-2.44,0-5.39-.05-5.67-3.23s2.72-3.85,5.08-3.88c12.7-.14,25.4-.11,38.1,0,2.2,0,4.51.84,4.44,3.67s-2.4,3.35-4.65,3.38c-6.49.08-13,0-19.46,0Z" transform="translate(-0.39 -0.23)"/><path class="38f76e22-df11-4499-a11a-fc9f4fa33a87" d="M578.45,393.22l3.32,0,22.8,0c2.3.5,5.86.35,5.75,3.19-.1,2.66-2.91,3.91-6.08,3.86-13.73-.18-27.46,0-41.19-.18-2.17,0-5.17.69-5.66-2.91-.53-3.86,2.66-3.22,4.76-3.9Z" transform="translate(-0.39 -0.23)"/><path class="a7ce91f4-4299-4c97-b804-f9488383183d" d="M549.81,387.25c-6.53,0-13.05.07-19.58,0-2.17,0-4.71-.36-4.49-3.41.17-2.33,2.25-3,4.22-3q20.39-.07,40.79,0c2,0,4,.46,4.06,3,0,3-2.39,3.35-4.6,3.38C563.41,387.31,556.61,387.26,549.81,387.25Z" transform="translate(-0.39 -0.23)"/><path class="a7ce91f4-4299-4c97-b804-f9488383183d" d="M613.69,387.25c-6.78,0-13.57.08-20.35,0-2.19,0-4.65-.54-4.39-3.53.21-2.35,2.3-2.83,4.27-2.84q20.35-.06,40.7,0c2.29,0,4.63.75,4.35,3.62s-2.91,2.76-5,2.78c-6.51.05-13,0-19.54,0Z" transform="translate(-0.39 -0.23)"/><path class="a7ce91f4-4299-4c97-b804-f9488383183d" d="M575.24,424.86c-5.16,0-10.32.08-15.47,0-2.08,0-4.81.2-5-2.82s2.27-3.54,4.48-3.56c10.85-.09,21.71,0,32.56,0,2,0,4,.61,4.19,3,.23,3.1-2.31,3.33-4.47,3.38C586.1,424.94,580.67,424.86,575.24,424.86Z" transform="translate(-0.39 -0.23)"/><path class="a7ce91f4-4299-4c97-b804-f9488383183d" d="M621.11,424.74c-4.05,0-8.1.07-12.15,0-1.67,0-3.33-.63-3.55-2.61a2.91,2.91,0,0,1,2.82-3.33q13.75-.26,27.5,0a2.83,2.83,0,0,1,2.71,3.39c-.24,1.93-1.87,2.61-3.55,2.64-4.59.1-9.19,0-13.78,0Z" transform="translate(-0.39 -0.23)"/><path class="38f76e22-df11-4499-a11a-fc9f4fa33a87" d="M538.54,400.11c-3.23,0-6.46.1-9.68,0-2-.09-3.7-1.08-3.72-3.4,0-2.49,1.79-3.07,3.83-3.09,6.19,0,12.37,0,18.56,0,2.18,0,3.87.88,4,3,.21,2.64-1.6,3.69-4.15,3.65-3-.05-5.92,0-8.88,0Z" transform="translate(-0.39 -0.23)"/><path class="38f76e22-df11-4499-a11a-fc9f4fa33a87" d="M626.45,400.16c-3,0-5.91,0-8.86,0-2.39,0-4.33-1-4.54-3.53-.28-3.37,2.65-2.93,4.52-3,5.63-.21,11.28-.15,16.92-.09,2.16,0,4.55.16,4.51,3.24,0,2.9-2.22,3.35-4.49,3.41-2.68.07-5.37,0-8.06,0Z" transform="translate(-0.39 -0.23)"/><path class="a7ce91f4-4299-4c97-b804-f9488383183d" d="M534.71,424.94c-2.65-.94-8.61,1.95-8.66-3.28s5.82-2.69,9.16-3.33a11.66,11.66,0,0,1,3.22,0c2.8.26,6.86-.55,6.64,3.75-.19,3.68-4,2.58-6.52,2.86C537.49,425,536.4,424.94,534.71,424.94Z" transform="translate(-0.39 -0.23)"/><path class="8c77d45c-708e-431b-a76f-0682093b364a" d="M604.57,393.24l-22.8,0A47.64,47.64,0,0,1,604.57,393.24Z" transform="translate(-0.39 -0.23)"/><path class="8c77d45c-708e-431b-a76f-0682093b364a" d="M578.45,393.22l-16.3.08A24.59,24.59,0,0,1,578.45,393.22Z" transform="translate(-0.39 -0.23)"/><path class="874a981f-abcd-4540-aa0d-9d7f53446b7b" d="M845.38,243.63c-3.88,5.54-9.12,9.76-13.88,14.45-1.11-.77-2.24-1.51-3.32-2.33-23.32-17.67-48.78-21-75-8.55-25.33,12.06-38.81,33.14-40,61.45C711.85,338.53,730.89,366.74,759,377c28.88,10.57,62.06.91,80.6-23s22.19-61-3.11-90.83l14.52-14c38.17,40,30.41,105.59-16.25,137.3l-7.4,5c-29.26.52-58.51,1.1-87.76-.3-21.53-13.38-37.11-31.32-44.17-56.19-10.95-38.56,5.87-81.35,40.53-102.26C771.12,211.59,817.23,216.17,845.38,243.63Z" transform="translate(-0.39 -0.23)"/><path class="5c09fac2-b7a5-4b63-aa8f-038aa418cf65" d="M848.14,407h20.77c.56,3.82-12.06,3.52-1.9,8.63a2.36,2.36,0,0,1-.09,2c-9.71,5.41,1.17,4.55,2.3,7.29-3.51,2.86-7.56,2.07-10.93.48-4.13-2-.88-5.53,0-7.67,3-7.17-5.91-2.93-6-7.14-2.19,3.73-1.25,7.47-1.43,11.05-.1,2,.74,4.62-2.77,4.59A53,53,0,0,1,848.14,407Z" transform="translate(-0.39 -0.23)"/><path class="5c09fac2-b7a5-4b63-aa8f-038aa418cf65" d="M731.28,425.68c-2.84,1.82-5.74-5.85-8.75.05-.24.48-1.57-1.07-1.57-2.18,0-4.61-.54-9.33.23-13.81.93-5.38,5.66-2.23,8.72-2.87C734.11,412.87,728.12,419.61,731.28,425.68Z" transform="translate(-0.39 -0.23)"/><path class="ddde4094-3c07-4be0-ad0b-78ad60665727" d="M883.53,390.42q-.05,1-.11,2.1l-31.74-.87,18.79-17.78a15.57,15.57,0,0,1-1.16,6.32c-2.66,6.79.16,10.36,7.38,8.72C879.65,388.25,881.25,390.06,883.53,390.42Z" transform="translate(-0.39 -0.23)"/><path class="5c09fac2-b7a5-4b63-aa8f-038aa418cf65" d="M816.63,424.93c-4.33.09-8.43,2.6-12.89,1.2q0-9.53-.08-19.07c4.58-1.89,8.56,1.94,13,1.36Q816.64,416.67,816.63,424.93Zm-8.53-14.05c-1.26,3.87-2.06,7.71.63,11.41C809.75,418.44,811.2,414.56,808.09,410.88Z" transform="translate(-0.39 -0.23)"/><path class="5c09fac2-b7a5-4b63-aa8f-038aa418cf65" d="M736.67,406.56c2.28.49,5.1-.8,6.71,1.79a4.07,4.07,0,0,1,.53,3.07c-.6,1.68-1.87,1.64-3,.33s-2.23-1.77-3.08,0c-.63,1.33-.19,3.31,1.13,3.4,5.44.39,6.22,3.59,5.09,7.86-1.34,5.08-5.58,3-8.83,3.22C733.55,419.55,731.28,412.76,736.67,406.56Z" transform="translate(-0.39 -0.23)"/><path class="f2492ace-7b4f-4fab-9e29-5aa246446b62" d="M816.63,424.93q0-8.26,0-16.52c4.75-2.11,9.72-1.84,14.72-1.42-4.76,3-8.07,6.64-6.16,12.82C826.74,428.87,821.33,426.31,816.63,424.93Z" transform="translate(-0.39 -0.23)"/><path class="5c09fac2-b7a5-4b63-aa8f-038aa418cf65" d="M844.46,426.11l-9.87.19q-.06-9.73-.12-19.46c4.72-.48,3.27,4.94,6,6.32,2-1.7-1.38-6.65,3.91-6.3Q844.41,416.48,844.46,426.11Z" transform="translate(-0.39 -0.23)"/><path class="5c09fac2-b7a5-4b63-aa8f-038aa418cf65" d="M706.61,425.24c1-5,1.92-9.95,3-14.9.33-1.54.77-3.27,2.86-3.36s2.67,1.42,3,3.09a145.09,145.09,0,0,1,2.6,16.21c-3.7-3.41-7-4.81-10.22.84Z" transform="translate(-0.39 -0.23)"/><path class="3e5e75ed-a2fa-48b5-a50b-045387a9e12a" d="M834.46,406.83q.06,9.73.12,19.46c-3.36,1.67-6.64,3.3-6.6-2.9,0-1.79-1.19-2.91-2.78-3.58-1.91-6.18,1.4-9.85,6.16-12.82Z" transform="translate(-0.39 -0.23)"/><path class="5c09fac2-b7a5-4b63-aa8f-038aa418cf65" d="M788.85,426.3c-3.49-.19-6.63-7.21-10.79,1.54-1.33-8,1.2-13.4,2.38-19,.53-2.52,2.79-2.06,4.67-1.94Z" transform="translate(-0.39 -0.23)"/><path class="5c09fac2-b7a5-4b63-aa8f-038aa418cf65" d="M790.75,407.16,794,407c.67,5.06-1.06,10.53,1.25,15.31l2.2-.22V407l3,.07q-.29,9.42-.58,18.84l-8.3.14C790.11,419.82,791.16,413.46,790.75,407.16Z" transform="translate(-0.39 -0.23)"/><path class="1d3ad4e9-0740-4a84-b77b-5ab4270ce1fe" d="M860.95,437.34H785.74v-.71h75.21Z" transform="translate(-0.39 -0.23)"/><path class="5c09fac2-b7a5-4b63-aa8f-038aa418cf65" d="M707.19,407.22c-1.45,3-4.09,5.39-3.6,9.42.36,3,1.12,6.51-1.78,9.7-5-5.67-.9-13.67-5.24-19.17A26.27,26.27,0,0,1,707.19,407.22Z" transform="translate(-0.39 -0.23)"/><path class="5c09fac2-b7a5-4b63-aa8f-038aa418cf65" d="M758.25,407.23a51.36,51.36,0,0,1,5.62-.49c2.87,0,5.85-.39,2.62,4.28-1.59,2.29-.69,6.26-1.06,9.45-.23,2,.83,5.46-2,5.28-3.23-.21-3.24-3.37-2.29-6.18a12.58,12.58,0,0,0,.24-3.17C763.14,412.38,759.81,410.11,758.25,407.23Z" transform="translate(-0.39 -0.23)"/><path class="f2492ace-7b4f-4fab-9e29-5aa246446b62" d="M756.23,423.22c-.28,5.19-4.21,2.82-6.65,3-3.19.22-2.84-2.5-2.93-4.58-.08-1.87.27-3.8,0-5.62-1.38-8.08,2.16-10.72,9.75-9.14-.08,1.41-.4,2.86-2.08,2.9-6.49.15-4,5.06-4.28,8.25C749.65,422.34,752.48,423.48,756.23,423.22Z" transform="translate(-0.39 -0.23)"/><path class="3e5e75ed-a2fa-48b5-a50b-045387a9e12a" d="M756.23,423.22c-3.75.26-6.59-.88-6.22-5.2.27-3.19-2.21-8.1,4.28-8.25,1.68,0,2-1.49,2.08-2.9l1.89.35c1.55,2.89,4.89,5.16,3.17,9.17C751.84,412.68,758.41,421.28,756.23,423.22Z" transform="translate(-0.39 -0.23)"/><path class="1d3ad4e9-0740-4a84-b77b-5ab4270ce1fe" d="M684.72,437.63c3.44-2.29,7.34-1.46,11.06-1.47,16.49-.06,33,0,49.47.06.48,0,1,.38,3.53,1.45h-64Z" transform="translate(-0.39 -0.23)"/><path class="3e5e75ed-a2fa-48b5-a50b-045387a9e12a" d="M790.75,407.16c.41,6.3-.64,12.66.84,18.92l-2.75.23-3.74-19.36Z" transform="translate(-0.39 -0.23)"/><path class="3e5e75ed-a2fa-48b5-a50b-045387a9e12a" d="M844.46,426.11q-.05-9.63-.1-19.26l3.78.12a53,53,0,0,0,0,19.2Z" transform="translate(-0.39 -0.23)"/><path class="0b24e19f-8648-47f2-b226-aafee14b36c5" d="M799.89,425.94q.29-9.42.58-18.84l3.18,0q0,9.54.08,19.07Z" transform="translate(-0.39 -0.23)"/><path class="3e5e75ed-a2fa-48b5-a50b-045387a9e12a" d="M736.67,406.56c-5.4,6.2-3.12,13-1.5,19.72l-3.9-.6c-3.16-6.07,2.83-12.81-1.37-18.81C732.2,407.65,734.21,402.18,736.67,406.56Z" transform="translate(-0.39 -0.23)"/><path class="3e5e75ed-a2fa-48b5-a50b-045387a9e12a" d="M797.48,407v15.06l-2.2.22c-2.31-4.78-.58-10.25-1.25-15.31Z" transform="translate(-0.39 -0.23)"/><path class="fd19d268-188e-4517-8bcc-3150dbbd2ff3" d="M707.19,407.22a26.27,26.27,0,0,0-10.62,0c-1.69-2.54-.21-3.49,2-3.52C701.91,403.61,705.87,402.37,707.19,407.22Z" transform="translate(-0.39 -0.23)"/><path class="fd19d268-188e-4517-8bcc-3150dbbd2ff3" d="M713.8,391.85l26,.5C731.11,394.32,722.42,395,713.8,391.85Z" transform="translate(-0.39 -0.23)"/><path class="1d3ad4e9-0740-4a84-b77b-5ab4270ce1fe" d="M763.06,436.32h9.49l.06.79h-9.83Z" transform="translate(-0.39 -0.23)"/><path class="3b932c3e-9e85-4662-b2db-29bbb59b48e4" d="M402.46,395.74c-1.28,4.33-5,4.64-8.46,4.64-18.8,0-37.61-.16-56.41-.26C354.21,381.06,381.41,379.22,402.46,395.74Z" transform="translate(-0.39 -0.23)"/><path class="f2492ace-7b4f-4fab-9e29-5aa246446b62" d="M419.77,431.4a3.81,3.81,0,0,1-.91-3.86Z" transform="translate(-0.39 -0.23)"/><path class="fd19d268-188e-4517-8bcc-3150dbbd2ff3" d="M355,103.39a3.09,3.09,0,0,1-3.35.88C352.33,102.42,353.37,101.86,355,103.39Z" transform="translate(-0.39 -0.23)"/><path class="263cd3b5-85a3-4f2c-bd29-d7ac9af135ad" d="M423.49,129.52l-.72,2.87C422.23,131.23,421.88,130.13,423.49,129.52Z" transform="translate(-0.39 -0.23)"/><path class="3b932c3e-9e85-4662-b2db-29bbb59b48e4" d="M121.51,455.43l27.57.35c-5.82,23.55-28,31.76-45.6,16.83-5.16-4.36-7.15-10.66-9.42-16.72Z" transform="translate(-0.39 -0.23)"/><path class="0b24e19f-8648-47f2-b226-aafee14b36c5" d="M683.25,143.95c-.83,2.4-4.88,4-5.88,3.05-4.83-4.62-10.77-.43-15.62-2.77a3.83,3.83,0,0,0-4.34.26c-5.18,3.18-5.28,3-10.76-.79C658.83,140.28,671,138.8,683.25,143.95Z" transform="translate(-0.39 -0.23)"/><path class="3b932c3e-9e85-4662-b2db-29bbb59b48e4" d="M526,333.13c2.62,1,2.76,4.35,5.56,5.46,3.49,1.38,3.7,4.92,1.79,7.52-1.66,2.25-5,4.7-7.52,3.1-1.81-1.17-6.3-4.45-.83-8.15C526.37,340.09,524,335.81,526,333.13Z" transform="translate(-0.39 -0.23)"/><path class="874a981f-abcd-4540-aa0d-9d7f53446b7b" d="M554.91,346.72c-2.89,0-4.54-1.31-4.48-4.33,0-2.44,1.13-4.07,3.73-4.31,2.88-.26,4.63,1,4.91,3.94S557.78,346.47,554.91,346.72Z" transform="translate(-0.39 -0.23)"/><path class="38f76e22-df11-4499-a11a-fc9f4fa33a87" d="M543.34,338.23c.42,0,1.68,1.63,1.81,4,.14,2.57-1.56,4-4,4a3.35,3.35,0,0,1-3.6-3.49C537.42,340.27,538.24,338.52,543.34,338.23Z" transform="translate(-0.39 -0.23)"/><path class="ddde4094-3c07-4be0-ad0b-78ad60665727" d="M204.78,581.11l-3.32,8.46A19.48,19.48,0,0,0,191,591.41l-16-2.26c3.25-2.87,6.41-5.84,9.76-8.59C193.37,573.49,195.71,573.6,204.78,581.11Z" transform="translate(-0.39 -0.23)"/><path class="a47ca5f1-30c0-4952-b82e-c82789247d6e" d="M883.53,390.42c-2.28-.35-3.88-2.17-6.84-1.5-7.22,1.64-10-1.93-7.38-8.72a15.57,15.57,0,0,0,1.16-6.32c0-1.74.42-3.13,2.52-3.2,5.17,4.55,9.29,10.23,15.25,13.92C887.78,387.43,885.89,389.11,883.53,390.42Z" transform="translate(-0.39 -0.23)"/><path class="ddde4094-3c07-4be0-ad0b-78ad60665727" d="M134.44,287.66c-26.75,8.44-52-11.4-44.33-43.51.81-1.07,1.71-2.09,2.43-3.22,9.43-14.89,20.93-20,37.74-16.67,11.22,2.21,22.63,14.71,24.94,27.32,2.35,12.8-4.64,26.31-17.9,34.57C136.4,286.72,135.4,287.16,134.44,287.66Zm-3.66-37.76c.62-.88,1.31-1.72,1.85-2.65,1-1.69,4-3.26,1.45-5.41-3.06-2.63-4,1.26-5.56,2.62-2.82,2.45-4.11,6.61-8.54,8.07.28-6.66-.19-12.32-8.38-12.33-5.37,0-8.23,3-7.94,8.09.55,9.53,7.75,7.61,14.12,7-2.35,5.25-6.59,8.35-9.66,12.36-1.26,1.64-2.09,3.48,0,4.89,1.83,1.22,2.87-.6,3.88-1.75,3.19-3.62,6.33-7.28,9.5-10.93l-.07-.17a2.58,2.58,0,0,1,1.14,2.73c-.3,5.16,0,9.94,6.81,10.55,7.25.64,9.48-3.59,9.73-9.83,3.81,1.22,4.07,4.16,3.09,7.23-1.2,3.73-4.08,5.44-8,5.82-3.44.33-7.49-1.26-10.36,2.19,2,3,4.67.38,6.22,1.54,9.36,6.94,11.84-1.74,15.87-6.84,1-1.26,1.59-2.83,2.55-4.12,6.37-8.58,5.86-18.7-1.57-26.86-3.09,6.62,6.1,12.58.68,19.59C143.44,255.47,139.54,249,130.78,249.9Z" transform="translate(-0.39 -0.23)"/><path class="f2492ace-7b4f-4fab-9e29-5aa246446b62" d="M591.5,534.17c-.31,4.94-3,7.51-7.24,7.67-4.86.18-7.45-2.87-7.38-7.7.07-4.66,2.93-6.88,7.37-6.75S591.06,530.15,591.5,534.17Z" transform="translate(-0.39 -0.23)"/><path class="a7ce91f4-4299-4c97-b804-f9488383183d" d="M426.19,592.75c-13,0-26.09-.19-39.13.09-5.43.12-8-1.32-7.74-7.26.37-8.68.2-17.39.07-26.08-.06-4.11,1.56-5.9,5.75-5.89q41.58.11,83.16,0c3.61,0,5.66,1.26,5.63,5.17-.06,9.51-.11,19,0,28.53.07,5.13-3.1,5.51-7,5.49-13.59-.06-27.18,0-40.77,0Zm28.6-34.16c-2.43,0-4.88.19-7.29,0-6.15-.56-7.74,1.22-4.66,7.08,2.62,5,2.41,10.51,0,15.69-2.51,5.4,0,6.75,4.87,6.51,2.16-.11,4.32,0,6.48,0,17-.08,14.57,1.35,14.68-14.77C469,556.58,470.51,558.91,454.79,558.59ZM398.48,587.8c1.9,0,3.81-.15,5.69,0,6.83.65,8.93-1.46,5.68-8.17a14.35,14.35,0,0,1,.27-13.4c4-6.93,1.37-8.35-5.21-7.68-1.88.19-3.79,0-5.69,0-16.65.33-14.8-2.22-14.8,14.63C384.42,589.9,382.53,587.31,398.48,587.8Z" transform="translate(-0.39 -0.23)"/><path class="0b24e19f-8648-47f2-b226-aafee14b36c5" d="M398.81,599.51c-7.66,5.64-16.5,9.19-24.63,14-3.2,1.88-4.84.64-6.33-2.16-4.21-7.86-8.39-15.75-12.83-23.48-2.07-3.6-.68-5.43,2.45-7,5.06-2.55,10.09-5.17,15.13-7.77a8,8,0,0,1-.29,5.55c-13.67,6.23-13.67,6.23-7.8,16.87C373,611,373.19,611,388,599.8Z" transform="translate(-0.39 -0.23)"/><path class="f2492ace-7b4f-4fab-9e29-5aa246446b62" d="M388,599.8C373.19,611,373,611,364.5,595.5c-5.87-10.64-5.87-10.64,7.8-16.87.2,1.6.53,3.2.58,4.8C373.37,598.26,373.36,598.26,388,599.8Z" transform="translate(-0.39 -0.23)"/><path class="0b24e19f-8648-47f2-b226-aafee14b36c5" d="M420.65,546.74c4.15-.86,8.38-9.45,12.4.15Z" transform="translate(-0.39 -0.23)"/><path class="38f76e22-df11-4499-a11a-fc9f4fa33a87" d="M836.54,263.22c25.3,29.81,21.58,67,3.11,90.83s-51.72,33.57-80.6,23c-28.16-10.31-47.2-38.51-45.91-68.39,1.22-28.31,14.7-49.39,40-61.45,26.24-12.49,51.7-9.12,75,8.55,1.08.82,2.21,1.55,3.32,2.33l-14.78,14.8a9.66,9.66,0,0,0-1.41-2c-17.84-15-44.84-14.71-63.83.6-18.31,14.76-24,41.18-13.34,61.77,11.27,21.74,35.67,32.89,58.12,26.55,37.18-10.49,50-50.79,26.17-82.28Z" transform="translate(-0.39 -0.23)"/><path class="874a981f-abcd-4540-aa0d-9d7f53446b7b" d="M822.43,277.57c23.83,31.49,11,71.79-26.17,82.28-22.45,6.33-46.85-4.82-58.12-26.55-10.67-20.59-5-47,13.34-61.77,19-15.31,46-15.58,63.83-.6a9.66,9.66,0,0,1,1.41,2L798.8,290.27c-1.43-.76-2.83-1.59-4.3-2.27a25.17,25.17,0,0,0-25.56,43.12,25.67,25.67,0,0,0,31.54-1.49c9.7-8.65,11-20.48,3.78-33.91Z" transform="translate(-0.39 -0.23)"/><path class="38f76e22-df11-4499-a11a-fc9f4fa33a87" d="M804.26,295.72c7.24,13.43,5.92,25.26-3.78,33.91a25.67,25.67,0,0,1-31.54,1.49A25.17,25.17,0,0,1,794.49,288c1.47.68,2.87,1.51,4.3,2.27l-6.52,8.79c-2.2-.11-3.22,1-3.32,3.14l-.07.11a14.67,14.67,0,0,0-2.75,1.51c-2.54,2.2-6.81,4.89-3.93,8.19,3.3,3.79,5.79-.95,8.11-3.13a20.15,20.15,0,0,0,2.29-3.16C797.5,303.56,799.63,298.2,804.26,295.72Z" transform="translate(-0.39 -0.23)"/><path class="fd19d268-188e-4517-8bcc-3150dbbd2ff3" d="M792.6,305.72a20.15,20.15,0,0,1-2.29,3.16c-2.32,2.19-4.81,6.92-8.11,3.13-2.88-3.3,1.38-6,3.93-8.19a14.67,14.67,0,0,1,2.75-1.51A4.85,4.85,0,0,0,792.6,305.72Z" transform="translate(-0.39 -0.23)"/><path class="fd19d268-188e-4517-8bcc-3150dbbd2ff3" d="M789,302.2c.11-2.1,1.13-3.25,3.32-3.14A4,4,0,0,1,789,302.2Z" transform="translate(-0.39 -0.23)"/><path class="ddde4094-3c07-4be0-ad0b-78ad60665727" d="M548.9,267.06c4.32,0,3.29,3.37,3.6,5.88.22,1.81-.32,4.48,2.08,4.72,2.69.27,2.17-2.46,2.46-4.21.39-2.27-.77-5.38,2.36-6.27,2.91-.83,5.19,1.26,7.17,3.08a34.12,34.12,0,0,1,4.72,5.56c3,4.34,2.41,7-3.49,7.22-2,.06-5.26-.64-5.39,2.13s3.06,2.45,5.1,2.41c6.64-.11,6.91,3.05,3.79,7.54a25.35,25.35,0,0,1-6.17,6.4c-3.89,2.68-7.76,3.82-8-3.27-.07-1.8.32-4.61-2.08-4.65-3.12-.05-2.33,3.07-2.47,5-.41,6-3.54,6.22-7.56,3.4a26.71,26.71,0,0,1-6.31-6.29c-3.11-4.37-4-8.18,3.59-8.19,1.75,0,4.36.35,4.26-2.4-.07-2-2.28-2-3.88-2-8.68-.12-6.08-4.79-3.38-8.93A16.51,16.51,0,0,1,548.9,267.06Z" transform="translate(-0.39 -0.23)"/><path class="a47ca5f1-30c0-4952-b82e-c82789247d6e" d="M227,406.18l-1,.83-.78-1.67c.42-.14.95-.51,1.22-.37S226.78,405.74,227,406.18Z" transform="translate(-0.39 -0.23)"/><path class="a47ca5f1-30c0-4952-b82e-c82789247d6e" d="M665,483.43c2.2-3.48,4.12-9.23,9.2-3.73,4.83,5.23-1.75,6.29-4.32,8.67l-3.18,4.86-3.24.1c-1.14-1.58-.28-4.4-3.07-4.94l-.29-1.72Z" transform="translate(-0.39 -0.23)"/><path class="ddde4094-3c07-4be0-ad0b-78ad60665727" d="M666.67,493.24l3.18-4.86c2.46.7,5.74-.74,7.29,2.19,1.17,2.22-.65,4.08-1.91,5.76-1.49,2-3.52,3.7-6.13,3C665.94,498.49,666.84,495.54,666.67,493.24Z" transform="translate(-0.39 -0.23)"/><path class="ddde4094-3c07-4be0-ad0b-78ad60665727" d="M665,483.43l-4.9,3.24c-2.44-.54-6.18,1.15-7-2-.9-3.33,2-6.06,4.71-7.59C665.64,472.64,662,481.85,665,483.43Z" transform="translate(-0.39 -0.23)"/><path class="ddde4094-3c07-4be0-ad0b-78ad60665727" d="M660.35,488.39c2.8.55,1.93,3.37,3.07,4.94-.34,2.66.86,6.83-4.09,5.68-3.91-.91-7-4.19-6.46-8C653.36,487.31,658.27,490.74,660.35,488.39Z" transform="translate(-0.39 -0.23)"/><path class="a47ca5f1-30c0-4952-b82e-c82789247d6e" d="M318.56,550.86c-1-.59-2.77-1.39-1.57-2.5s1.77.75,2.32,1.71Z" transform="translate(-0.39 -0.23)"/><path class="38f76e22-df11-4499-a11a-fc9f4fa33a87" d="M204.76,600.36c-.51,4.83-3.07,7.07-7.1,6.81s-6.32-3-6-7.19c.3-3.9,2.76-5.82,6.52-5.79C202.47,594.24,204.36,596.89,204.76,600.36Z" transform="translate(-0.39 -0.23)"/><path class="78c83c26-f886-4ee0-afe2-67dcaff97394" d="M394.22,424.41c-9,.72-8.48,6.47-8.51,12.49-.08,19.76,2.73,17.22-17.78,17.7-7.53.18-10.4-2.56-9.63-9.89.34-3.21-.18-6.51.12-9.73.56-5.89-1-9.64-8.32-8.38,3.67-10.09,13.33-12.92,19.76-19.08,1.62-1.55,3.52-.44,5.08.87Q384.56,416.42,394.22,424.41Z" transform="translate(-0.39 -0.23)"/><path class="3e5e75ed-a2fa-48b5-a50b-045387a9e12a" d="M808.09,410.88c3.11,3.68,1.65,7.56.63,11.41C806,418.59,806.84,414.75,808.09,410.88Z" transform="translate(-0.39 -0.23)"/><path class="8c77d45c-708e-431b-a76f-0682093b364a" d="M121.53,259.86c-3.16,3.65-6.31,7.31-9.5,10.93-1,1.16-2.05,3-3.88,1.75-2.1-1.41-1.27-3.25,0-4.89,3.07-4,7.31-7.11,9.66-12.36-6.38.6-13.58,2.53-14.12-7-.29-5.09,2.56-8.09,7.94-8.09,8.19,0,8.66,5.67,8.38,12.33,4.43-1.46,5.72-5.62,8.54-8.07,1.56-1.36,2.5-5.24,5.56-2.62,2.52,2.16-.47,3.72-1.45,5.41-.54.93-1.23,1.77-1.85,2.65-1.65,2.55-5.77,3.17-5.6,7.91,5.7-1.13,11.33-1.34,13.95,5.34-.25,6.23-2.48,10.47-9.73,9.83-6.85-.61-7.11-5.39-6.81-10.55a2.58,2.58,0,0,0-1.14-2.73l1.05.56.2-1.11Zm-7.12-12.29c-.35-1.59-.7-3.38-2.76-3.32s-2.67,1.69-2.65,3.38c0,2,.66,4,3.12,3.7C113.94,251.1,114.34,249.27,114.41,247.56Z" transform="translate(-0.39 -0.23)"/><path class="a47ca5f1-30c0-4952-b82e-c82789247d6e" d="M139.14,263.14c-2.62-6.68-8.25-6.47-13.95-5.34-.17-4.74,3.95-5.36,5.6-7.91,8.75-.87,12.66,5.57,16.82,11.79,5.42-7-3.77-13-.68-19.59,7.43,8.16,7.94,18.28,1.57,26.86-1,1.29-1.56,2.86-2.55,4.12-4,5.1-6.52,13.78-15.87,6.84-1.55-1.15-4.25,1.47-6.22-1.54,2.87-3.45,6.93-1.86,10.36-2.19,3.93-.38,6.81-2.09,8-5.82C143.21,267.31,142.94,264.36,139.14,263.14Z" transform="translate(-0.39 -0.23)"/><path class="78c83c26-f886-4ee0-afe2-67dcaff97394" d="M454.79,558.58c15.72.33,14.19-2,14.09,14.47-.1,16.12,2.33,14.69-14.68,14.77-2.16,0-4.33-.09-6.48,0-4.91.25-7.38-1.11-4.87-6.51,2.41-5.18,2.62-10.7,0-15.69-3.08-5.86-1.49-7.65,4.66-7.08C449.91,558.78,452.36,558.59,454.79,558.58Zm3,17.68c1.92-.22,2.95-1.31,2.81-3.24a2.81,2.81,0,0,0-3.22-2.84,3,3,0,0,0,.41,6.08Z" transform="translate(-0.39 -0.23)"/><path class="1cce1ddf-ffdc-4c3c-8adb-81e42c42d9ed" d="M398.48,587.8c-15.95-.49-14.05,2.1-14.06-14.56,0-16.86-1.84-14.3,14.8-14.63,1.9,0,3.81.17,5.69,0,6.58-.67,9.23.75,5.21,7.68a14.35,14.35,0,0,0-.27,13.4c3.25,6.71,1.14,8.82-5.68,8.17C402.28,587.65,400.37,587.8,398.48,587.8Zm-2.57-17.67a3,3,0,0,0-3.23,2.72,2.77,2.77,0,0,0,2.42,3.41,2.9,2.9,0,0,0,3.65-3C398.83,571.39,397.71,570.41,395.91,570.12Z" transform="translate(-0.39 -0.23)"/><path class="5c09fac2-b7a5-4b63-aa8f-038aa418cf65" d="M114.41,247.57c-.06,1.7-.47,3.53-2.29,3.76-2.46.31-3.1-1.73-3.12-3.7,0-1.69.7-3.32,2.65-3.38S114.06,246,114.41,247.57Z" transform="translate(-0.39 -0.23)"/><path class="ddde4094-3c07-4be0-ad0b-78ad60665727" d="M121.53,259.86l1.18-.72-.2,1.11-1.05-.56Z" transform="translate(-0.39 -0.23)"/><path class="a7ce91f4-4299-4c97-b804-f9488383183d" d="M457.8,576.27a3,3,0,0,1-.4-6.08,2.81,2.81,0,0,1,3.22,2.84C460.76,574.95,459.73,576,457.8,576.27Z" transform="translate(-0.39 -0.23)"/><path class="a7ce91f4-4299-4c97-b804-f9488383183d" d="M395.92,570.13c1.79.28,2.91,1.26,2.83,3.11a2.9,2.9,0,0,1-3.65,3,2.77,2.77,0,0,1-2.42-3.41A3,3,0,0,1,395.92,570.13Z" transform="translate(-0.39 -0.23)"/></g></g></svg>