<svg xmlns="http://www.w3.org/2000/svg" viewBox="0 0 949.95 673.8"><defs><style>.c3c99a8b-e431-4804-9c88-dc5fc3a11eb5{fill:#08a2a2;}.\34 62fc781-cb26-4919-b010-2cf5b3afd5b5{fill:#fdfdfd;}.\32 a436a46-e4f3-48d1-a6d8-b67b884bc0dd{fill:#2b2d2e;}.\35 ecaa7dd-334d-406d-8662-cd93d52302b2{fill:#6e3332;}.c3b380e5-49c3-44d2-831d-89171dd4bea5{fill:#f42233;}.\34 f6aa43e-fde8-43b8-bd2b-720c61405217{fill:#eef3f3;}.\31 5714744-e60f-4d37-9eb6-4f67bcf01662{fill:#010202;}.e99aa9f1-8476-401f-885b-04248764dc33{fill:#f7bc7e;}.\37 ee08b28-b64c-4f60-b8c7-75d75d2c1c99{fill:#211e1e;}.\38 217efba-491f-46ff-ad04-2a300fa871ea{fill:#f2a441;}.\35 c47c817-b942-4105-bd52-0f1ddfdb1482{fill:#f2b17b;}.\36 66c70d2-8b6d-492e-b753-35dba26af296{fill:#e30f19;}.c582a99a-7783-4b7c-a47c-329ec7efddc1{fill:#101212;}.\30 0834dd1-a5c0-4562-bda1-2c6637bdc990{fill:#d28052;}.d41d8e61-9e2a-421d-9932-f74ed731c7b8{fill:#f97b7f;}.cc3d4f7e-a30f-4be3-a110-5bbc874ca3fb{fill:#f3e146;}</style></defs><title>Ресурс 4</title><g id="f9d37526-9c88-44fc-85ab-f106466dc654" data-name="Слой 2"><g id="99869d61-a6c7-45ab-9e5c-5440cd914ba3" data-name="Слой 1"><path class="c3c99a8b-e431-4804-9c88-dc5fc3a11eb5" d="M1.28,670.89q0-331.35-.15-662.69C1.12,2.27,2.46.93,8.38.94q321.08.27,642.15.15l1.2,1.41c-8.14,12.19-12.49,26.17-18.35,39.42-3.72,8.42-9.73,16.19-9.49,26.11-1.49,5.09-3.61,10.26,2,14.35a99.24,99.24,0,0,1-11.3,10.22c-6.57,5.29-13.31,10.66-16.17,19.17-4.48,3.17-6.55,8.19-9.59,12.47-3.76,4.37-7.28,9-11.35,13-5.09,5.08-4.44,8.16,2.52,9.91-17.73,10-37,15.95-56.33,21.72-7.14,2.13-13.61,7.42-20.77,8.34-11.68,1.5-21.8,7-32.81,10-4.94,1.34-4.93,3.68-2.9,7.42,3.36,6.21,7,12.32,9.73,18.8s5.08,7.93,11.41,3.33c17.32-12.59,35.58-23.92,52.71-36.75a167.93,167.93,0,0,1,45.13-24.26c-.39,2.86-.92,5.7-1.15,8.57-.52,6.5,6.31,11.29,9.58,6.73,5-7,8.85-9.35,15.9-4,5.16-4.62,9.15,2.74,13.66,1.45,4.83-1.38,8.61-2.85,12.67,2.25,2.06,2.59,6-.19,8.07-2.58,3-3.55,5.58-7.51,8.34-11.29,2.4,1.91,5,3.49,7.28,5.66,8.45,8,17.58,14.77,29,18.76,14.09,4.93,26.67-.27,39.72-3.32l8.75-.32c5.13-1.48,7.27,3.43,10.92,5.11-2.62,3-4,5.78,1.14,7.59.17,2.91,0,5.07-3.24,7-18.19,10.9-25,28.38-18.25,49.91,5.83,18.61,12.31,37,18,55.65,6.87,22.37,12.66,45.1,20,67.31,7.85,23.69,14.82,47.61,21.88,71.52,1.66,5.63,3.94,11.57,10.59,13,3.88.82,4.44,3,5.53,6.16,3.08,9,11.57,10.83,19.35,4.66a16.44,16.44,0,0,0,11.17-3.28c9.89-.17,18.58-4.93,27.62-7.95,3.37-1.13,8.74.83,10.54-4.39l3.2-.37c15.35-1.77,17.66-4.77,13.32-18.17-.91-2.81.58-3.7,2.06-5.08,4.94-4.63,4.23-10.1,2.31-15.75-2.71-7.95-5.63-15.84-8.06-23.87-3.67-12.16-6.8-24.48-10.52-36.62-4.84-15.79-10.44-31.36-14.92-47.24-3.31-11.73-7.59-23.14-10.65-35-4.19-16.18-9.47-32.1-14.88-47.92-2.27-6.64-3.76-13.66-8.09-19.58-8.44-11.55-19.23-17.69-33.88-16.34-3.55.33-8.28,1.64-8.75-4.54.7-2.8,2.37-7-2.77-5.85-4.66,1.06-9.16.6-13.71,1l1.84-3.73c1.32.3,2.51.34,2.85-1.39,4-.49,9.26,2.24,11.7-1.81,2.68-4.47,5.35-3.53,8.91-2.49a10.41,10.41,0,0,0,7.61-.47l5.45-.07c6.34,6.93,8.9,5.61,15.06-7.72,5,7.79,11.54,7.77,16-.21,5.55-9.9,9.91-20.33,14.31-30.79,3.6-8.55,4-18.07,8.78-26.14,7.35.95,5.44-5.38,7-9,4.18.81,4.55-2.75,5.66-5.17,3.9-8.56,7.77-17.14,11.41-25.81,7.81-18.55,17-36.5,23.74-55.52l1.32-3.29h39.49q0,330.54.17,661.08c0,7.34-2,8.89-9,8.88q-232.6-.31-465.2-.17c-5.26,0-10.52-.18-15.78-.27-1.34-16.23-3.22-32.43-3.85-48.69-.44-11.38-6.5-17.14-16.23-20.52-15.36-5.34-30.93-10.17-46.09-16-23.35-9-48.87-12.09-70.52-25.74-.55-7.75-6.94-6.25-11.68-7.38-1.67-1.54-3.35-3.08-2.84-5.7l.21-.48a1.75,1.75,0,0,0,.91-1.2c3.42-2.79,7-5.38,10.22-8.4,7.73-7.3,14.27-15.31,13.58-26.9.76-1.95,2.12-3.88,2.17-5.85.15-5.21,2-7.53,7.58-6.75,4.11.58,7-2.25,8.68-5.6,6.13-11.93,6.6-23.91-.42-35.75a113.32,113.32,0,0,0,.64-23.3c5.23-2.76,11-4.37,15.69-8.33,13.81-11.73,19.62-36.49,12.76-54.81-1.11-3-2.83-3.49-5.38-1.82-3.3,2.16-6.65,4.18-10.67,4.53l-5.6-1.22c.41-3.17-2.31-5.14-3-7.88,16.55.2,29.87-6,38-20.72,8.43-15.24,7.24-30.3-3.2-44.33-2.33-3.14-1.56-4.76,1.19-7a25.74,25.74,0,0,0,9.08-13.59c1.37-5.67,5-8.93,9.17-12.13q28.56-21.66,57-43.44c1.79-1.37,4.37-2.31,5.31-6.22-2.22,1.15-3.36,1.66-4.41,2.3Q437,236.4,406.48,255.15c-1.65,1-3.48,4.24-5.57.28-1.59-3,.49-4.13,2.52-5.46,3.73-2.45,7.39-5,11.08-7.52-4.93.13-8.26,3.24-12.17,5.16-2.28,1.11-4.72,1.89-6.13-.9-1.57-3.1,1.73-3.32,3.26-4.19,4.8-2.7,9.94-4.83,14.61-7.71,8.45-5.22,18.18-8.24,26.41-14.57-2.35-1.55-3.64-.15-5,.44C423,226.22,410.7,232,398.12,237.28c-3.2,1.33-8.21,5.59-10.33.75-1.7-3.86,4.62-4.24,7.44-5.68,8.35-4.26,17-7.94,25.53-11.84l-.71-1.77c-12.75,5-25.62,9.65-38.19,15.05-3.69,1.59-6,1.73-8.69-1.91l83.73-34.07c-4.1-1.44-6.4-.19-8.8.55-23.09,7.11-46.24,14-69.24,21.41-4.93,1.59-7.06,1.15-9.55-3.8-8-15.92-26.69-20.65-41.54-10.77-2.91,1.94-4.25,2.45-7-.33-14.08-14.21-31.2-18.1-47.38-10.5-17.67,8.3-25.59,22.69-24.16,42.06.31,4.19-1.31,5.3-5,6.14-22.52,5.17-31.42,20.94-24.57,43.09-7,8.69-2.07,22.85-15.25,29.72-5.13,2.68-8.51,12.29-7.66,20.48-3,7.68-.23,15.16.8,22.7-2,5.6-5.14,10.7-7,16.46-4.6,14.51-2.27,28.78.28,43.14-4.26,14.66-2.13,29.28.27,43.9-2.43,1.7-2.62,4.31-2.9,6.94-1.9,17.9,3.24,25.29,21.63,31.05.51,15.63,3.89,29.84,18.89,38.33,3.44,3.78,3.4,8.27,2.61,12.91-3.59.62-7.23,1-10.49,2.86l-1.58.22c-2.37-.34-1.81,2.35-3.16,3.07-10.14,10.05-22.69,15.84-36,20.21q-36.3,11.91-72.64,23.7c-6.51,2.13-10.68,5.92-11.23,13.43C94.88,633.39,93,652,91.39,670.56ZM364.89,479.45c9.95,4.39,20.15,4.37,30.17,5.6,5.33.65,12.06-.67,11.53,8.42-.07,1.27,2,3.43,3.5,3.9,4.28,1.33,6.48,4.66,9.08,7.79,5.36,6.47,12.66,7.33,19.44,2.38,2.29-1.68,4.14-3.56,7.46-3.75,6.65-.38,22.15-12.82,24.69-19,.82-2,1.54-4,1-6.12-2.37-9-8.53-15.84-14.19-22.64-2.18-2.62-4.93-4.81-6.61-8.07-4.12-8-14.62-10.44-20.45-3.75-5.46,6.25-15.94,6.12-18.59,16.33-.62,2.4-7.27,4-6.83,9.62.14,1.71-1.69,1.59-2.94,1.82-5.41,1-10.83,2.05-16.24,3.14C378.9,476.52,371.9,478,364.89,479.45Zm-185.08,2.32c-1.56-3.56-3.3-3.26-4.8-3.55-10-1.93-20.09-3.83-30.11-5.89-1.81-.37-4.37.37-4.93-2.74-1.48-8.28-11.2-10.52-13.64-18.24-.25-.77-2.3-1.4-3.5-1.36-3.34.09-4.92-1.88-6.88-4.21-6.79-8.1-17.89-6.69-22.73,2.69-1.17,2.26-1.52,4.69-4.18,6.3C81,459.62,77.62,468.37,73.9,476.19c-3.23,6.8,1,14.15,8.2,17.31,2.55,1.12,4.46,2.2,5.75,4.73a9.57,9.57,0,0,0,10.41,5.5c3-.43,4.85.74,6.75,2.81,2.83,3.08,6.62,4.15,10.73,4,5-.21,21.6-13.77,22.89-18.58a2.1,2.1,0,0,0,.1-.78c-.57-4.4,2.14-5.26,5.7-5.5,4.71-.32,9.42-.8,14.12-1.32C165.47,483.55,172.39,482.67,179.81,481.78ZM236.74,222c-.17-5.29-3.08-8.78-8.55-8.78-5.24,0-8.81,2.84-8.9,8.68s3.33,9,8.5,9.12S236.5,228.09,236.74,222ZM205,290.17c-.62-4.68-2.27-8.45-7.58-8.46-4.85,0-8,2.39-8.22,7.57s3,8.12,7.53,8.38S204.51,295.11,205,290.17Zm92-117.51a6.64,6.64,0,0,0-7.09-5.93c-4.55,0-7.41,2.52-7.3,7.24s2.94,7.11,7.49,7.1C294.95,181.06,296.74,177.88,296.95,172.66ZM421.53,327.72c.16-5.14-1.77-7.66-5.8-7.91s-7.18,1.33-7.15,6.14c0,4.3,2,7,6.54,6.92C419.13,332.84,421.27,330.63,421.53,327.72Zm-41-127.57c-.62-3.88-2.88-6.26-6.74-6.06-3.41.18-5.83,2.36-5.83,6,0,3.94,2.16,6.32,6.22,6.35S380.08,204,380.49,200.15ZM175,314.72c-2.53.28-4.47,1.53-4.43,4.31s1.72,4.17,4.5,4.31,3.78-1.79,4-3.86C179.32,316.92,178,315,175,314.72Z" transform="translate(-1.13 -0.94)"/><path class="c3c99a8b-e431-4804-9c88-dc5fc3a11eb5" d="M721.63,1.09H836.95l1.44,1.57c-.59.51-1.44.9-1.71,1.55-7.76,17.85-15.57,35.68-23,53.65-1.19,2.85-4.15,5.73-1.91,9.42-4.07,6.2-.89,11,3,15.66a34.84,34.84,0,0,1-7.11,6.88c-5.87,4.22-12.11,8.4-15.76,14.77-7.72,13.51-18.17,24.81-28.12,36.55a10.07,10.07,0,0,1-5.44,7.92c-1.86,1.08-4.68.43-5.22,3.74-.64,3.89-3.24,3.64-5.7,1.74s-5.26-2.72-6.15.68c-1.29,5-5.69,6.42-8.67,9.45-2.93,0-3.32,3.33-5.57,4.22-.83-.39-.83-1.52-2.69-.5-13.06,7.15-26.55,7.54-39.89.7-10.38-5.33-18.4-13.62-26.21-22.09,5-12.41,9.59-24.93,10.45-38.47,1.59-2.42.42-5.16.87-7.71,6.82,1.16,9.41-3.27,11.33-8.58,3.91-.24,3.89-3.9,4.94-6.22,7.09-15.69,14.41-31.31,20.68-47.33,4.72-12.08,11.83-23.16,14.93-35.89Z" transform="translate(-1.13 -0.94)"/><path class="462fc781-cb26-4919-b010-2cf5b3afd5b5" d="M459.26,670.6c5.26.09,10.52.27,15.78.27q232.6,0,465.2.17c7,0,9.05-1.54,9-8.88Q949,331.63,949.11,1.09c3.27,1.42,1.48,4.27,1.48,6.32q.17,119.27.1,238.54,0,210.89.15,421.78c0,5.41-1.06,6.47-6.47,6.47Q476,673.95,7.59,673.88c-2,0-6.82,3.26-6.32-3l90.12-.33H230.49c-4.17-25.27-8.94-50.23-11.46-75.52,3.61.12,4.53,3.35,6,5.59,6.44,9.51,12.65,19.16,18.93,28.78,1.14,1.75,1.07,5.76,4.26,4,2.35-1.31.63-4.13-.72-6.21-7.08-10.91-13.85-22-21.22-32.75-3.14-4.56-3.7-11-9.56-13.63-1.14-7.33-4.16-14.65-.23-22,2.85-.24,2.8-2.33,2.78-4.38l1.58-.22c-.47,5.8-.36,11.2,7.76,10.88.21,2.37.4,4.71,2.55,6.34,9.78,7.42,19.74,14.54,31.19,19.26-3.66,7.49-10.6,14.34-4.1,23.74.68,1-.53,3.45-1.17,5.11-5.79,14.91-6.53,30.67-7.86,46.33-.29,3.44.18,5.29,4.4,5.18,10.23-.29,20.47-.23,30.7,0,3.7.07,5.16-.84,4.68-4.84-1.05-8.85-1.71-17.75-2.53-26.62,7.23-7.17,11.83-16.36,18.32-24s9.65-17.89,18.6-23.55c-2.77,26.46-8.7,52.4-13.61,78.7Z" transform="translate(-1.13 -0.94)"/><path class="2a436a46-e4f3-48d1-a6d8-b67b884bc0dd" d="M909.61,1.09l-1.32,3.29c-2.34-2.48-5.4-1.6-8.19-1.63-8.93-.09-17.86,0-26.8,0l0-1.68Z" transform="translate(-1.13 -0.94)"/><path class="5ecaa7dd-334d-406d-8662-cd93d52302b2" d="M651.74,2.5l-1.2-1.41h36.33q0,.81,0,1.62a5.79,5.79,0,0,0-1.26.23Z" transform="translate(-1.13 -0.94)"/><path class="5ecaa7dd-334d-406d-8662-cd93d52302b2" d="M873.28,1.09l0,1.68L872,3,838.4,2.65l-1.45-1.57Z" transform="translate(-1.13 -0.94)"/><path class="2a436a46-e4f3-48d1-a6d8-b67b884bc0dd" d="M686.82,2.71l0-1.62h34.75l-.21,1.69Z" transform="translate(-1.13 -0.94)"/><path class="c3b380e5-49c3-44d2-831d-89171dd4bea5" d="M873.27,449.94c-1.8,5.22-7.17,3.26-10.54,4.39-9,3-17.73,7.78-27.62,7.95-3.15-1.58-4.2-4.37-4.83-7.65-.81-4.24-3.16-5.43-7.45-3.68-6,2.47-5.76,7.35,1.11,14.6-7.78,6.17-16.27,4.31-19.35-4.66-1.08-3.16-1.64-5.34-5.53-6.16-6.65-1.4-8.93-7.34-10.59-13-7.07-23.91-14-47.83-21.88-71.52-7.36-22.21-13.14-44.93-20-67.31-5.73-18.64-12.21-37-18-55.65-6.74-21.53.07-39,18.25-49.91,3.25-2,3.41-4.11,3.24-7,11-5.1,22.82-7.51,34.36-10.88.47,6.18,5.2,4.87,8.75,4.54,14.65-1.35,25.44,4.79,33.88,16.34,4.33,5.92,5.82,12.94,8.09,19.58,5.41,15.83,10.69,31.75,14.88,47.92,3.06,11.83,7.34,23.24,10.65,35,4.48,15.89,10.09,31.45,14.92,47.24,3.72,12.14,6.85,24.47,10.52,36.62,2.43,8,5.35,15.92,8.06,23.87,1.93,5.65,2.64,11.12-2.31,15.75-1.47,1.38-3,2.27-2.06,5.08,4.34,13.4,2,16.4-13.32,18.17,2.28-9,1.8-18.7,6.21-27.28.4-.77,0-2.1-.34-3.08-2.29-7.24-4.28-14.57-6.45-21.83-4.33-14.49-9.23-28.78-13.63-43.24-7.38-24.24-14.91-48.45-21.73-72.85-4-14.38-8.9-28.51-13.68-42.57-4.7-13.82-6.14-28.77-18.73-40.39-10-9.21-19.78-9.59-31.23-10,16,2.45,23.78,13.36,28.3,27.06,6.87,20.84,13.07,41.89,19.54,62.86,5.93,19.25,11.76,38.54,17.77,57.76,7.25,23.18,15.32,46.14,21.71,69.55,3,10.89,14.06,23.61-5.45,33.82,7,.45,9.12,3.32,9.39,7.15S870.46,450.43,873.27,449.94Zm-114-255.11c-15.25,4.59-24.38,26.7-19.07,43.86,20.86,67.44,42.09,134.77,62.55,202.33,2.53,8.35,7.05,9.09,13.72,8.85a18.3,18.3,0,0,0,8.89-2.84c-6.94-1.89-8.59-7.15-10.24-12.5q-12-39.12-24.12-78.21c-12.54-40.35-25.4-80.6-37.59-121.06C749.26,221.36,749.41,207.35,759.29,194.83Z" transform="translate(-1.13 -0.94)"/><path class="4f6aa43e-fde8-43b8-bd2b-720c61405217" d="M219.67,285.67c-6.85-22.16,2-37.93,24.57-43.09,3.68-.85,5.31-1.95,5-6.14-1.44-19.37,6.49-33.77,24.16-42.06,16.18-7.6,33.3-3.71,47.38,10.5,2.75,2.78,4.09,2.26,7,.33,14.85-9.87,33.55-5.15,41.54,10.77,2.49,5,4.62,5.39,9.55,3.8,23-7.4,46.15-14.3,69.24-21.41,2.4-.74,4.7-2,8.8-.55l-83.73,34.07c2.7,3.64,5,3.5,8.69,1.91,12.57-5.4,25.43-10.09,38.19-15.05l.71,1.77c-8.53,3.9-17.18,7.58-25.53,11.84-2.83,1.44-9.14,1.82-7.44,5.68,2.13,4.84,7.13.58,10.33-.75C410.7,232,423,226.22,435.51,220.69c1.33-.59,2.62-2,5-.44-8.23,6.32-18,9.34-26.41,14.57-4.67,2.89-9.81,5-14.61,7.71-1.54.86-4.83,1.09-3.26,4.19,1.42,2.79,3.85,2,6.13.9,3.91-1.91,7.24-5,12.17-5.16-3.69,2.51-7.35,5.07-11.08,7.52-2,1.33-4.1,2.46-2.52,5.46,2.09,4,3.92.72,5.57-.28q30.6-18.69,61.12-37.51c1.05-.65,2.19-1.15,4.41-2.3-.93,3.91-3.52,4.85-5.31,6.22q-28.44,21.81-57,43.44c-4.21,3.2-7.8,6.45-9.17,12.13a25.74,25.74,0,0,1-9.08,13.59c-2.75,2.24-3.52,3.87-1.19,7,10.44,14,11.63,29.09,3.2,44.33-8.15,14.74-21.46,20.92-38,20.72l-5.12-11.52-4.89,9.35-2.81-.87a60.71,60.71,0,0,0-11.41-25.33,129.83,129.83,0,0,1-14.45-24.78c-2.43-5.42-2.35-11.85-6.62-16.67-3.23,3.35-1.54,9.78-8.09,11.16-2-8.9-6.91-16.59-10.63-24.83-.07-3.5-2.4-5.15-4.86-6.82l-7.25,16.11c-6.54,1-2.82-3.73-2.58-5.38,2.36-16.31-1.47-31.46-8.45-45.94-1.32-2.73-4.37-6.46-6.71.09-2.28,6.38-4.79,12.69-7.6,18.86-7,15.26-15.44,29.51-28.19,40.79C222.27,294,222.83,288.83,219.67,285.67Zm111.62-41.31c-7.33,0-10.85,3.29-10.92,10.11-.06,6.32,5.13,12.15,10.69,12a12.12,12.12,0,0,0,11.43-12.27C342.32,247.47,338.72,244.32,331.29,244.36ZM295.16,239c0,3.23,1.43,5,4.62,5.28,4.06.39,5.94-2,6.06-5.42.1-2.58-1-5.36-4.37-5.41C297.8,233.43,295.94,235.81,295.16,239Z" transform="translate(-1.13 -0.94)"/><path class="15714744-e60f-4d37-9eb6-4f67bcf01662" d="M459.26,670.6H309.81c4.9-26.3,10.84-52.23,13.61-78.7l1.12-7.94c1.86-8.32-.63-16.28-2-24.34,21.65,13.65,47.17,16.72,70.52,25.74,15.16,5.86,30.73,10.68,46.09,16,9.73,3.38,15.79,9.14,16.23,20.52C456,638.17,457.91,654.38,459.26,670.6Z" transform="translate(-1.13 -0.94)"/><path class="15714744-e60f-4d37-9eb6-4f67bcf01662" d="M216.53,558.76c-3.93,7.39-.91,14.7.23,22l1.37,9.83a1.21,1.21,0,0,0,.19,1.47L219,595c2.52,25.29,7.29,50.25,11.46,75.52H91.39C93,652,94.88,633.39,96.26,614.79c.56-7.51,4.72-11.3,11.23-13.43q36.31-11.87,72.64-23.7c13.32-4.37,25.87-10.15,36-20.21A2.37,2.37,0,0,0,216.53,558.76Z" transform="translate(-1.13 -0.94)"/><path class="e99aa9f1-8476-401f-885b-04248764dc33" d="M228.76,538.38c-15-8.49-18.38-22.7-18.89-38.33L209,495.8c-1.82-17.95-4.7-35.82-3.88-54,3.69-4.48,8.25-8.45,8.52-14.88l.37-.25c3.21,1.07,6.79,1.57,9.57,3.32,12.54,7.89,26.36,12.38,40.41,16.6,8.18,2.46,17.17,1.43,24.76,6.08-1.28.8-4.55,2.31-.27,2.5s8.59-1.75,12.89-2.76l37.85,2.1c.51,11.18-3,22-3.14,33.09-2.37.31-6.41-.77-5.89,3,.88,6.31-1.8,13.22,2.81,19,.68,11.59-5.86,19.6-13.58,26.91-3.2,3-6.8,5.61-10.22,8.4l-.91,1.21-.22.47c-5.49,3.82-10.92,7.73-16.48,11.45-10.28,6.87-21.07,9.93-32.9,3.86-2.41-4-6.67-5.6-10.44-7.71-5.87-3.28-13.68-4.13-13.63-13.69C234.63,537.34,231,538.46,228.76,538.38Zm43,4.54c5.51,0,11-.1,16.53,0,3.55.09,5.61-1.05,5.15-4.94-1.21-10.2-2.88-20.28-9.3-28.75-7.16-9.45-16.81-8.95-24,.58-6.31,8.4-7.36,18.26-9.06,28-.66,3.78,1.2,5.2,4.89,5.09C261.25,542.8,266.51,542.92,271.75,542.92ZM233.29,487.5c-5.34.31-11.43,1.18-11.76,6.88-.35,5.92,5.6,7.28,10.79,7.44s11.18-1,11.56-6.71C244.29,489,238.1,488.24,233.29,487.5Zm75.49-.12c-3.58-.57-7.92,2.43-8.06,7.5-.15,5.59,5,7.26,10.2,7,5-.27,10.86-.12,10.87-7.11S315.95,487.93,308.78,487.38Zm-2.63-15.26c-.76-4.77-1-11-6.94-10.66-5.58.36-6,6.37-5.84,11.29s.5,10.78,6.55,10.47C305.8,482.92,305.45,476.64,306.15,472.12Zm-55.32-.58c-.29-3.15.28-10.59-6.94-10s-5.56,8.14-5,13.2c.41,3.82.91,9.28,6.74,8.62C250.93,482.73,251,478,250.82,471.54Zm8.85-17.42c-12.75-3.95-22.27-12.38-34.85-19.59C233.06,448.83,248.74,457.34,259.67,454.12Z" transform="translate(-1.13 -0.94)"/><path class="7ee08b28-b64c-4f60-b8c7-75d75d2c1c99" d="M190.86,418.16c-2.55-14.36-4.88-28.64-.28-43.14,1.83-5.76,4.93-10.86,7-16.46l7.17,6.31c4.78,7.39,13.13,2.4,19.54,5.27-2.9,9.22-5.55,18.21,4,25a1,1,0,0,0,1,.75c8,6.47,18.15,6.59,24.9.3l0,0c2.39-1.47,2.95-3.86,3.24-6.39l-.09.08,1.46-.72c1,.26,1.1-.25.89-1l.48-4.56c2.41-7-3-12.62-3.17-19.15l17.88.28a18.75,18.75,0,0,0,8,7.51c1.71,1.93,3.52,3.78,5.12,5.79,8.07,10.13,28,12.78,38.73,5.12l7.57-4.83q.52.54,1.07,1.05c-3,9.69-4.45,19,5.64,25.88l.49.15q0,.92.9.92c7.08,2,13.64,1.33,19.31-3.8,4.46-.68,5.89-3.88,6.47-7.79,2.79-6.61-.11-12-3.56-17.36-1-1.51-5.28-3.2-.54-5.45,4.06-.35,7.41-2.37,10.7-4.53,2.55-1.67,4.27-1.13,5.38,1.82,6.86,18.32,1,43.08-12.76,54.81-4.66,4-10.46,5.56-15.69,8.33-4.52-1-8.18,1.32-12,3.13l-20.82.43c-2.83-3.21-6.42-1.78-9.8-1.59-21.78-1.3-42.67-6.91-63.5-13-11.3-3.28-22.13-2.77-31.57,5.37l-.36.26-8.05,4.14c-3.29.46-.77,6.28-5.08,5.63-3.72-.56-3-4.46-4.53-6.65C193.39,426.47,194.81,421.17,190.86,418.16Z" transform="translate(-1.13 -0.94)"/><path class="8217efba-491f-46ff-ad04-2a300fa871ea" d="M256.92,364.4c.14,6.53,5.58,12.19,3.17,19.15a10.4,10.4,0,0,0-2.82,6.3l.09-.08c-4.27.51-3,3.86-3.24,6.39l0,0c-2.8-1.37-.55-6.65-5.14-6.62a1.86,1.86,0,0,0,0-1.29c3.61-4-.93-5.73-2.67-7.17a6.06,6.06,0,0,0-7.85.58c-4.34,3.9-9.05,7.58-9.21,14.21a1,1,0,0,1-1-.75c0-1.28.46-2.82-.09-3.78-4.63-8.11-3.58-16,.51-23.89.32-3.32,2.32-5.72,4.25-8.26,3.32-4.36,3.38-9-.87-12.63A33,33,0,0,1,221.3,330c-5.63,4.89-4.13,12.76-11.25,16.87-5.37,3.1-3.74,11.33-2.15,17.6l-3.18.36-7.17-6.31c-1-7.54-3.8-15-.81-22.7,2.28-2,5.57,5.94,6.21.28,1-8.88,7.06-10.32,13.44-11.86,1.95-.47,2.43-1.05,2.81-2.73,1.9-8.26,7.77-15.47,6.55-24.57C238.51,285.71,247,271.46,254,256.2c2.81-6.16,5.32-12.48,7.6-18.86,2.34-6.56,5.39-2.82,6.71-.09,7,14.48,10.81,29.63,8.45,45.94-.24,1.65-4,6.43,2.58,5.38a7.69,7.69,0,0,0,6.17-6.21c.75-3.92,3.38-3.2,5.94-3.08,3.72,8.24,8.67,15.93,10.63,24.83,6.55-1.38,4.86-7.81,8.09-11.16,4.27,4.82,4.19,11.25,6.62,16.67a129.83,129.83,0,0,0,14.45,24.78,60.71,60.71,0,0,1,11.41,25.33c-4.35,7.13-4.11,8.64,2.81,15.17v-14.3l4.89-9.35,5.12,11.52c.72,2.74,3.44,4.71,3,7.88a5.87,5.87,0,0,1-3.23,4.94l-.24-.11c-2.42-2.35-4.51-2.5-6.09.9-3.21,4.21-3.29,8.4.06,12.58-9.21,2.19-7.66,9.68-8,16.24-10.09-6.84-8.65-16.19-5.65-25.88.13-.58.27-1.15.41-1.73l-1.47.68-7.57,4.83c1.85-6.67,3.62-13.59-1.63-19.38a87.48,87.48,0,0,1-14.12-21.42c-4.84-5-9.92-4.64-15.16-.68a1.71,1.71,0,0,1-.76.82c-3.93,1.05-4.78,3.58-3.42,7.16s-1,5.36-3.16,7.31c-1.27,1.17-3,1.61-4.32.63-2.93-2.09-1.66-5.33-1.33-8,.38-3.06,2-6,2.6-9,1.76-8.4-4.1-16-12.77-16.71-2.17-.18-2.35-1.68-2.63-3.21-.44-2.43.83-5.42-2.33-6.94,1.16-5.84,1-11.15-6.42-12.34-2.2-.35-5.23-.33-6.32,2-2.13,4.53-1.3,9,1.71,13.09-7.29,6.41-13.72,12.32-10.93,24.28C247.79,349.8,246.57,359.53,256.92,364.4Z" transform="translate(-1.13 -0.94)"/><path class="5c47c817-b942-4105-bd52-0f1ddfdb1482" d="M763.76,141.13c9.95-11.74,20.4-23,28.12-36.55,3.64-6.37,9.88-10.55,15.76-14.77a34.64,34.64,0,0,0,7.1-6.88c3.64-1.24,6.8-.16,10.22,1.41,11.73,5.37,23.64,10.36,35.48,15.49-4.75,8.08-5.18,17.59-8.78,26.15-4.4,10.46-8.76,20.9-14.31,30.79-4.48,8-11,8-16,.21-6.16,13.34-8.72,14.65-15.05,7.73.6-2.34.79-4.59-1.85-6.67l-3.61,6.73a10.41,10.41,0,0,1-7.61.47c-3.56-1-6.23-2-8.91,2.49-2.44,4.06-7.71,1.33-11.7,1.81l-2-8.43a8.1,8.1,0,0,0,4.7-8.36c2.24-2.84,3.1-6.14,4-10.08C769.14,148.1,767,147.82,763.76,141.13Zm42.76,13.26-.32-.64c-.14.19-.39.37-.4.56s.18.43.29.64Z" transform="translate(-1.13 -0.94)"/><path class="4f6aa43e-fde8-43b8-bd2b-720c61405217" d="M364.89,479.45c7-1.45,14-2.94,21-4.35,5.4-1.09,10.82-2.11,16.24-3.14,1.24-.24,3.07-.11,2.94-1.82-.44-5.57,6.21-7.23,6.83-9.62,2.65-10.21,13.14-10.07,18.59-16.33,5.83-6.69,16.33-4.23,20.45,3.75,1.68,3.26,4.43,5.45,6.61,8.07,5.65,6.8,11.82,13.66,14.19,22.64.55,2.07-.18,4.12-1,6.12-2.54,6.2-18,18.64-24.69,19-3.32.19-5.17,2.08-7.46,3.75-6.78,5-14.08,4.09-19.44-2.38-2.6-3.13-4.8-6.46-9.08-7.79-1.49-.46-3.57-2.62-3.5-3.9.53-9.09-6.2-7.77-11.53-8.42C385,483.83,374.84,483.85,364.89,479.45Z" transform="translate(-1.13 -0.94)"/><path class="4f6aa43e-fde8-43b8-bd2b-720c61405217" d="M179.81,481.78c-7.43.89-14.34,1.77-21.27,2.54-4.7.52-9.4,1-14.12,1.32-3.55.24-6.26,1.11-5.7,5.5a2.1,2.1,0,0,1-.1.78c-1.29,4.82-17.91,18.37-22.89,18.58-4.11.18-7.89-.89-10.73-4-1.9-2.07-3.7-3.23-6.75-2.81a9.57,9.57,0,0,1-10.41-5.5c-1.29-2.52-3.2-3.61-5.75-4.73-7.21-3.16-11.43-10.51-8.2-17.31,3.72-7.83,7.11-16.57,15.16-21.43,2.67-1.61,3-4,4.18-6.3,4.84-9.38,15.94-10.79,22.73-2.69,2,2.34,3.54,4.3,6.88,4.21,1.2,0,3.25.59,3.5,1.36,2.45,7.72,12.16,10,13.64,18.24.56,3.12,3.11,2.37,4.93,2.74,10,2.06,20.07,4,30.11,5.89C176.52,478.51,178.25,478.22,179.81,481.78Z" transform="translate(-1.13 -0.94)"/><path class="666c70d2-8b6d-492e-b753-35dba26af296" d="M873.27,449.94c-2.82.5-4.85.4-5.13-3.46s-2.43-6.7-9.39-7.15c19.51-10.21,8.42-22.93,5.45-33.82-6.39-23.41-14.45-46.37-21.71-69.55-6-19.22-11.84-38.51-17.77-57.76-6.46-21-12.67-42-19.54-62.86-4.51-13.7-12.35-24.61-28.3-27.06,11.45.45,21.24.83,31.23,10,12.6,11.61,14,26.57,18.73,40.39,4.78,14.06,9.66,28.19,13.68,42.57,6.82,24.4,14.35,48.61,21.73,72.85,4.4,14.46,9.3,28.75,13.63,43.24,2.17,7.26,4.16,14.59,6.45,21.83.31,1,.74,2.31.34,3.08-4.4,8.58-3.93,18.24-6.21,27.28Z" transform="translate(-1.13 -0.94)"/><path class="e99aa9f1-8476-401f-885b-04248764dc33" d="M669.55,100.8c-.45,2.55.72,5.29-.87,7.71-3.83-.12-3.73,2.48-4,5.27-.81,9.16-4.41,17.67-6.7,26.48-.82,3.17-3.25,2.86-6.3,1.84-14.49-4.86-29-11.29-44.4-2.81a2.43,2.43,0,0,1-2.18-.1c-6.11-5-7.86,1-10.68,4.13-2-1.2.87-4.59-2.09-5.07-1.28-.21-1.7,1.67-1.8,3A16.62,16.62,0,0,1,580,147.19c-7-1.76-7.61-4.84-2.52-9.91,4.07-4.06,7.59-8.67,11.35-13,8.73-.79,12.61-5.83,9.59-12.47,2.87-8.51,9.61-13.88,16.17-19.17A98.68,98.68,0,0,0,625.9,82.38c1.13-1.19,2-1.53,3.89-.63,7.28,3.46,14.77,6.47,22.17,9.67C658.08,94.07,664.86,95.49,669.55,100.8Zm-54.31,24.78c11.29-5.95,20.66-13.2,25.1-25.46.58-1.6.94-3.17-1.14-3.81-1.57-.48-2.35.6-2.76,2-2.81,9.7-10.62,15.25-17.75,21.36C617,121.11,614.39,121.86,615.24,125.59Z" transform="translate(-1.13 -0.94)"/><path class="c582a99a-7783-4b7c-a47c-329ec7efddc1" d="M872,3l1.29-.23c8.93,0,17.86-.1,26.8,0,2.79,0,5.85-.86,8.19,1.63-6.73,19-15.94,37-23.74,55.52-3.65,8.67-7.51,17.25-11.41,25.81-1.11,2.42-1.48,6-5.66,5.17l-28.9-13.46c3.35-.84,4.08-3.92,5.23-6.45C847.73,62.38,852,53.9,855.12,45,860.17,30.77,868.65,17.91,872,3Zm-4.29,70.24c-2.34.1-4.11,1.25-4.23,4.15s1.25,4.4,4.1,4.56,4.43-1.37,4.58-4.09S871,73.43,867.72,73.24ZM878,64.73c-.38-2.77-2.06-4.25-4.75-4.16s-4.49,1.81-4.37,4.54,1.86,4.2,4.7,4.11S877.72,67.44,878,64.73Z" transform="translate(-1.13 -0.94)"/><path class="2a436a46-e4f3-48d1-a6d8-b67b884bc0dd" d="M580,147.19a16.62,16.62,0,0,0,10.53-5.91c2.57,6-1.62,10-4.35,14.45A167.93,167.93,0,0,0,541.06,180c-17.13,12.83-35.38,24.16-52.71,36.75-6.33,4.6-8.72,3-11.41-3.33s-6.37-12.59-9.73-18.8c-2-3.74-2-6.08,2.9-7.42,11-3,21.13-8.45,32.81-10,7.15-.92,13.63-6.21,20.77-8.34C543.06,163.14,562.29,157.15,580,147.19Z" transform="translate(-1.13 -0.94)"/><path class="2a436a46-e4f3-48d1-a6d8-b67b884bc0dd" d="M651.74,2.5l33.82.43c-4.39,10.52-8.47,21.17-13.22,31.52-6.73,14.63-11.09,30.36-20.18,43.9-2.91-1.08-5.8-2.23-8.74-3.23C636.86,72.9,631.29,68,623.9,68c-.24-9.92,5.77-17.69,9.49-26.11C639.25,28.68,643.6,14.69,651.74,2.5Z" transform="translate(-1.13 -0.94)"/><path class="5c47c817-b942-4105-bd52-0f1ddfdb1482" d="M586.19,155.73c2.74-4.43,6.92-8.42,4.35-14.45.1-1.35.52-3.23,1.8-3,3,.48.08,3.87,2.09,5.07,2.83-3.1,4.58-9.1,10.68-4.13a2.43,2.43,0,0,0,2.18.1c15.4-8.49,29.91-2.05,44.4,2.81,3,1,5.47,1.33,6.3-1.84,2.29-8.81,5.9-17.32,6.7-26.48.25-2.8.14-5.39,4-5.27-.86,13.53-5.45,26.06-10.45,38.46-1.58.86-3.18-2.68-4.6-.16-1.81,3.21-3.23,6.6-.38,10.06-2.76,3.78-5.3,7.74-8.34,11.29-2,2.39-6,5.17-8.07,2.58-4.06-5.1-7.84-3.64-12.67-2.25-4.51,1.29-8.49-6.07-13.66-1.45-7-5.37-10.87-3-15.9,4-3.27,4.55-10.1-.24-9.58-6.73C585.27,161.43,585.8,158.59,586.19,155.73Zm52-12.06a1.91,1.91,0,0,0-.65.22c-.06,0,.09.37.14.56a2,2,0,0,0,.65-.22C638.37,144.19,638.22,143.87,638.17,143.67Z" transform="translate(-1.13 -0.94)"/><path class="462fc781-cb26-4919-b010-2cf5b3afd5b5" d="M322.57,559.63c1.33,8.06,3.83,16,2,24.34-6.25,4.43-9.49,11.33-14,17.17-7.06,9.16-12.54,19.52-20.74,28-2.11-2.29-1.91-4.91-2.92-6.88-2.63-5.12.41-11.66-4.33-16.1.57-5.45-2.14-9.68-5.16-13.79l1.93-3.45c6.84-2.62,12.6-7.1,18.84-10.76,9.54-5.6,16.49-12.27,12-24.65-.11-.29.46-.83.72-1.26C315.63,553.38,322,551.89,322.57,559.63Z" transform="translate(-1.13 -0.94)"/><path class="5c47c817-b942-4105-bd52-0f1ddfdb1482" d="M279.33,588.92l-1.94,3.44c-4.77-2.67-10-1.45-15-1.73-11.45-4.72-21.41-11.84-31.19-19.26-2.15-1.63-2.33-4-2.55-6.34a38,38,0,0,0,2.73-13.74c.79-4.64.83-9.13-2.61-12.91,2.23.08,5.87-1,5.85,2.08-.06,9.55,7.76,10.4,13.63,13.69,3.77,2.11,8,3.7,10.44,7.71-.19,2.78,1.46,4.65,2.87,6.87C266.45,576.41,274.3,581.42,279.33,588.92Z" transform="translate(-1.13 -0.94)"/><path class="00834dd1-a5c0-4562-bda1-2c6637bdc990" d="M279.33,588.92c-5-7.5-12.89-12.51-17.79-20.19-1.41-2.21-3.06-4.08-2.87-6.87,11.83,6.06,22.62,3,32.9-3.86,5.56-3.72,11-7.63,16.48-11.45-.51,2.63,1.17,4.17,2.84,5.71-.25.42-.82,1-.72,1.26,4.48,12.37-2.48,19-12,24.65C291.93,581.82,286.17,586.3,279.33,588.92Z" transform="translate(-1.13 -0.94)"/><path class="2a436a46-e4f3-48d1-a6d8-b67b884bc0dd" d="M653.25,156.88c-2.85-3.46-1.43-6.85.38-10.06,1.43-2.53,3,1,4.6.16,7.8,8.47,15.82,16.77,26.2,22.1,13.33,6.84,26.83,6.45,39.89-.7,1.86-1,1.86.11,2.69.5,1.5,2.85,2.58,5.8,2.22,9.11-13.06,3.05-25.63,8.25-39.72,3.32-11.4-4-20.52-10.74-29-18.76C658.24,160.37,655.66,158.79,653.25,156.88Z" transform="translate(-1.13 -0.94)"/><path class="2a436a46-e4f3-48d1-a6d8-b67b884bc0dd" d="M190.86,418.16c3.95,3,2.53,8.31,5.11,11.91,1.57,2.19.81,6.09,4.53,6.65,4.3.65,1.79-5.17,5.08-5.63l-.47,10.74c-.83,18.14,2.06,36,3.88,54-.23,1-.14,2.43-.74,2.8-2.21,1.36-2.21-.82-2.93-2.07a143.55,143.55,0,0,1-14.18-34.46C188.73,447.45,186.6,432.83,190.86,418.16Z" transform="translate(-1.13 -0.94)"/><path class="4f6aa43e-fde8-43b8-bd2b-720c61405217" d="M623.9,68c7.39-.07,13,4.87,19.51,7.1,2.94,1,5.83,2.15,8.74,3.23l28.72,13.87c-1.92,5.31-4.51,9.74-11.33,8.58-4.69-5.31-11.47-6.74-17.58-9.38-7.4-3.21-14.89-6.21-22.17-9.67-1.88-.89-2.76-.56-3.89.63C620.3,78.28,622.41,73.11,623.9,68Z" transform="translate(-1.13 -0.94)"/><path class="4f6aa43e-fde8-43b8-bd2b-720c61405217" d="M838.58,77.41l28.9,13.46c-1.6,3.57.31,9.9-7,9C848.6,94.69,836.69,89.71,825,84.34c-3.43-1.57-6.58-2.64-10.22-1.41-3.91-4.66-7.1-9.46-3-15.66C821.4,68.72,829.24,75.06,838.58,77.41Z" transform="translate(-1.13 -0.94)"/><path class="5ecaa7dd-334d-406d-8662-cd93d52302b2" d="M763.76,141.13c3.26,6.69,5.38,7,15.52,1.54-.89,3.94-1.75,7.24-4,10.08-3.65-1.38-6.88-4.83-11.84-2C766,153.6,766,157,765,160.43c-2.25-.3-4.5-.62-6.51.87-8.57,6.49-8.85,9.7-1.61,18.68l-8,2.79c-3.65-1.68-5.79-6.59-10.93-5.11,4.52-9.17,3.57-11.46-5.39-13,3-3,7.38-4.47,8.67-9.45.88-3.41,3.66-2.61,6.15-.68s5.06,2.15,5.7-1.74c.54-3.31,3.36-2.66,5.22-3.74A10.07,10.07,0,0,0,763.76,141.13Z" transform="translate(-1.13 -0.94)"/><path class="00834dd1-a5c0-4562-bda1-2c6637bdc990" d="M225.76,297c1.22,9.1-4.65,16.31-6.55,24.57-.39,1.68-.86,2.26-2.81,2.73-6.38,1.53-12.43,3-13.44,11.86-.65,5.65-3.93-2.26-6.21-.28-.84-8.19,2.53-17.8,7.67-20.48,13.18-6.87,8.2-21,15.25-29.72C222.83,288.83,222.27,294,225.76,297Z" transform="translate(-1.13 -0.94)"/><path class="2a436a46-e4f3-48d1-a6d8-b67b884bc0dd" d="M339.68,435.45c3.79-1.81,7.45-4.13,12-3.13a113.59,113.59,0,0,1-.64,23.29c-3.62,12.66-6.34,25.68-14.4,37.52l-.54-5.49c.1-11.12,3.65-21.91,3.14-33.09Z" transform="translate(-1.13 -0.94)"/><path class="5c47c817-b942-4105-bd52-0f1ddfdb1482" d="M336.07,487.64l.54,5.49c8.06-11.84,10.78-24.86,14.4-37.52,7,11.84,6.55,23.82.42,35.75-1.72,3.35-4.57,6.18-8.68,5.6-5.58-.78-7.44,1.54-7.58,6.75-.06,2-1.41,3.9-2.17,5.85-4.61-5.73-1.93-12.64-2.81-19C329.65,486.87,333.69,487.95,336.07,487.64Z" transform="translate(-1.13 -0.94)"/><path class="5c47c817-b942-4105-bd52-0f1ddfdb1482" d="M191.14,462.07a143.55,143.55,0,0,0,14.18,34.46c.72,1.24.72,3.42,2.93,2.07.6-.37.51-1.84.74-2.8l.89,4.26c-18.4-5.76-23.53-13.15-21.63-31.05C188.52,466.38,188.71,463.77,191.14,462.07Z" transform="translate(-1.13 -0.94)"/><path class="d41d8e61-9e2a-421d-9932-f74ed731c7b8" d="M748.9,182.77l8-2.79c4-1.08,8.53-1.15,11.06-5.32,4.55-.43,9.06,0,13.71-1,5.14-1.18,3.47,3.05,2.77,5.85-11.53,3.37-23.37,5.78-34.36,10.88C744.89,188.55,746.28,185.75,748.9,182.77Z" transform="translate(-1.13 -0.94)"/><path class="4f6aa43e-fde8-43b8-bd2b-720c61405217" d="M236.74,222c-.23,6-3.81,9.12-9,9s-8.59-3.34-8.5-9.12,3.66-8.68,8.9-8.68C233.66,213.26,236.56,216.75,236.74,222Z" transform="translate(-1.13 -0.94)"/><path class="4f6aa43e-fde8-43b8-bd2b-720c61405217" d="M205,290.17c-.44,4.95-3.63,7.74-8.28,7.48s-7.76-3.18-7.53-8.38,3.38-7.58,8.22-7.57C202.68,281.71,204.33,285.48,205,290.17Z" transform="translate(-1.13 -0.94)"/><path class="4f6aa43e-fde8-43b8-bd2b-720c61405217" d="M296.95,172.66c-.21,5.23-2,8.4-6.9,8.41-4.55,0-7.39-2.47-7.49-7.1s2.75-7.2,7.3-7.24A6.64,6.64,0,0,1,296.95,172.66Z" transform="translate(-1.13 -0.94)"/><path class="d41d8e61-9e2a-421d-9932-f74ed731c7b8" d="M823.95,465.55c-6.87-7.25-7.15-12.13-1.11-14.6,4.29-1.76,6.64-.56,7.45,3.68.63,3.28,1.68,6.07,4.83,7.65A16.44,16.44,0,0,1,823.95,465.55Z" transform="translate(-1.13 -0.94)"/><path class="4f6aa43e-fde8-43b8-bd2b-720c61405217" d="M767.92,174.66c-2.54,4.17-7,4.23-11.06,5.32-7.24-9-7-12.19,1.6-18.67-.44,2.47-.88,4.93-1.46,8.23,5.17-3.61,9.24-2.67,12.76,1.41Z" transform="translate(-1.13 -0.94)"/><path class="4f6aa43e-fde8-43b8-bd2b-720c61405217" d="M421.53,327.72c-.26,2.9-2.4,5.11-6.41,5.15-4.55,0-6.51-2.62-6.54-6.92,0-4.81,3-6.39,7.15-6.14S421.68,322.58,421.53,327.72Z" transform="translate(-1.13 -0.94)"/><path class="4f6aa43e-fde8-43b8-bd2b-720c61405217" d="M380.49,200.15c-.42,3.85-2.24,6.37-6.35,6.34s-6.22-2.4-6.22-6.35c0-3.69,2.42-5.87,5.83-6C377.61,193.89,379.88,196.27,380.49,200.15Z" transform="translate(-1.13 -0.94)"/><path class="5c47c817-b942-4105-bd52-0f1ddfdb1482" d="M732.58,164.66c9,1.54,9.91,3.84,5.39,13l-8.74.32c.37-3.31-.72-6.26-2.22-9.11C729.26,168,729.66,164.65,732.58,164.66Z" transform="translate(-1.13 -0.94)"/><path class="e99aa9f1-8476-401f-885b-04248764dc33" d="M769.75,170.93c-3.51-4.08-7.59-5-12.76-1.41.58-3.3,1-5.76,1.46-8.23,2-1.49,4.27-1.17,6.52-.87l5.62.68,2,8.43C772.27,171.27,771.07,171.23,769.75,170.93Z" transform="translate(-1.13 -0.94)"/><path class="4f6aa43e-fde8-43b8-bd2b-720c61405217" d="M231.37,551.29A38,38,0,0,1,228.64,565c-8.12.31-8.23-5.08-7.76-10.88C224.14,552.32,227.78,551.91,231.37,551.29Zm-7.92,5.12a5.56,5.56,0,0,0-.65,1.84c0,.81.57,1.66,1.48,1.23a2.43,2.43,0,0,0,.94-1.83C225.26,556.85,224.75,556.18,223.45,556.41Z" transform="translate(-1.13 -0.94)"/><path class="00834dd1-a5c0-4562-bda1-2c6637bdc990" d="M355.22,375.61a5.88,5.88,0,0,0,3.23-4.94l5.6,1.22c-4.77,2.25-.46,3.94.51,5.45,3.45,5.38,6.35,10.75,3.56,17.36.15-5.33-2.5-9.49-5.25-14.08-2.08,2.68-.95,6.78-5,7.09C360.92,382.82,360.49,378.69,355.22,375.61Z" transform="translate(-1.13 -0.94)"/><path class="5c47c817-b942-4105-bd52-0f1ddfdb1482" d="M598.44,111.77c3,6.64-.86,11.68-9.59,12.47C591.89,120,594,114.94,598.44,111.77Z" transform="translate(-1.13 -0.94)"/><path class="4f6aa43e-fde8-43b8-bd2b-720c61405217" d="M175,314.72c3,.3,4.28,2.2,4,4.76-.19,2.07-1.23,4-4,3.86s-4.46-1.64-4.5-4.31S172.52,315,175,314.72Z" transform="translate(-1.13 -0.94)"/><path class="00834dd1-a5c0-4562-bda1-2c6637bdc990" d="M800.82,164.77l3.61-6.73c2.64,2.08,2.45,4.33,1.85,6.67Z" transform="translate(-1.13 -0.94)"/><path class="4f6aa43e-fde8-43b8-bd2b-720c61405217" d="M216.53,558.76a2.37,2.37,0,0,1-.38-1.32c1.35-.72.79-3.4,3.16-3.06C219.32,556.44,219.38,558.52,216.53,558.76Z" transform="translate(-1.13 -0.94)"/><path class="00834dd1-a5c0-4562-bda1-2c6637bdc990" d="M308.27,546.07l.91-1.21A1.77,1.77,0,0,1,308.27,546.07Z" transform="translate(-1.13 -0.94)"/><path class="c582a99a-7783-4b7c-a47c-329ec7efddc1" d="M680.88,92.22,652.16,78.35c9.09-13.54,13.46-29.26,20.18-43.9,4.76-10.35,8.84-21,13.22-31.52a5.94,5.94,0,0,1,1.26-.23l34.6.07c-3.1,12.73-10.2,23.81-14.93,35.89-6.27,16-13.58,31.64-20.68,47.33C684.76,88.33,684.79,92,680.88,92.22Zm-5-14.24a4.35,4.35,0,0,0,4.37,4.61,4.31,4.31,0,0,0,4.73-4.86,4.23,4.23,0,0,0-4.74-4.05C677.46,73.81,676.14,75.49,675.85,78Zm14.49-13.33c-.25-2-1.52-3.64-4.4-3.63s-4.4,1.73-4.39,4.37,1.56,4.49,4.4,4.42S690.28,68.25,690.34,64.65Z" transform="translate(-1.13 -0.94)"/><path class="2a436a46-e4f3-48d1-a6d8-b67b884bc0dd" d="M838.58,77.41c-9.35-2.35-17.18-8.7-26.87-10.14-2.24-3.69.73-6.57,1.91-9.42,7.48-18,15.29-35.8,23-53.65.28-.64,1.12-1,1.71-1.55L872,3c-3.36,14.92-11.84,27.78-16.89,42C852,53.9,847.73,62.38,843.82,71,842.66,73.49,841.94,76.58,838.58,77.41Z" transform="translate(-1.13 -0.94)"/><path class="5ecaa7dd-334d-406d-8662-cd93d52302b2" d="M262.38,590.64c5,.28,10.25-.95,15,1.73,3,4.11,5.73,8.34,5.16,13.79-3,4.1-2.95,8.4-1.48,13.12,2.06,6.66,3.64,13.47,5.43,20.21.82,8.88,1.48,17.77,2.53,26.62.48,4-1,4.91-4.68,4.84-10.23-.19-20.48-.25-30.7,0-4.22.12-4.69-1.73-4.4-5.18,1.33-15.67,2.07-31.42,7.86-46.33.64-1.66,1.85-4.13,1.17-5.11C251.78,605,258.72,598.12,262.38,590.64Z" transform="translate(-1.13 -0.94)"/><path class="4f6aa43e-fde8-43b8-bd2b-720c61405217" d="M286.5,639.49c-1.79-6.75-3.37-13.55-5.43-20.21-1.46-4.73-1.49-9,1.48-13.12,4.75,4.44,1.71,11,4.33,16.1,1,2,.8,4.58,2.92,6.88,8.2-8.47,13.68-18.83,20.74-28,4.5-5.84,7.75-12.74,14-17.17l-1.12,7.94c-8.94,5.66-12.12,15.89-18.6,23.55S293.73,632.32,286.5,639.49Z" transform="translate(-1.13 -0.94)"/><path class="4f6aa43e-fde8-43b8-bd2b-720c61405217" d="M219,595l-.71-2.93,1.22-.92-1.41-.55-1.37-9.83c5.86,2.64,6.42,9.07,9.56,13.63,7.37,10.71,14.14,21.84,21.22,32.75,1.35,2.08,3.07,4.9.72,6.21-3.2,1.78-3.12-2.23-4.26-4-6.28-9.61-12.49-19.27-18.93-28.78C223.56,598.39,222.64,595.16,219,595Z" transform="translate(-1.13 -0.94)"/><path class="d41d8e61-9e2a-421d-9932-f74ed731c7b8" d="M759.29,194.83c-9.89,12.52-10,26.53-5.85,40.42C765.63,275.7,778.49,316,791,356.3q12.15,39.08,24.12,78.21c1.64,5.36,3.3,10.61,10.24,12.5a18.3,18.3,0,0,1-8.89,2.84c-6.67.24-11.19-.5-13.72-8.85-20.46-67.56-41.69-134.89-62.55-202.33C734.91,221.52,744,199.42,759.29,194.83Z" transform="translate(-1.13 -0.94)"/><path class="462fc781-cb26-4919-b010-2cf5b3afd5b5" d="M331.29,244.36c7.43,0,11,3.12,11.2,9.81a12.12,12.12,0,0,1-11.43,12.27c-5.55.16-10.75-5.66-10.69-12C320.45,247.65,324,244.39,331.29,244.36Z" transform="translate(-1.13 -0.94)"/><path class="462fc781-cb26-4919-b010-2cf5b3afd5b5" d="M295.16,239c.78-3.24,2.63-5.61,6.31-5.56,3.34.05,4.46,2.83,4.37,5.41-.13,3.45-2,5.81-6.06,5.42C296.59,244,295.2,242.28,295.16,239Z" transform="translate(-1.13 -0.94)"/><path class="c3c99a8b-e431-4804-9c88-dc5fc3a11eb5" d="M345.42,360.62v14.3c-6.92-6.53-7.16-8-2.81-15.17Z" transform="translate(-1.13 -0.94)"/><path class="5c47c817-b942-4105-bd52-0f1ddfdb1482" d="M291.4,279.28c-2.56-.12-5.19-.84-5.94,3.08a7.69,7.69,0,0,1-6.17,6.21l7.25-16.11C289,274.13,291.33,275.78,291.4,279.28Z" transform="translate(-1.13 -0.94)"/><path class="462fc781-cb26-4919-b010-2cf5b3afd5b5" d="M218.13,590.63l1.41.55-1.22.92A1.21,1.21,0,0,1,218.13,590.63Z" transform="translate(-1.13 -0.94)"/><path class="00834dd1-a5c0-4562-bda1-2c6637bdc990" d="M214,426.71c9.44-8.14,20.27-8.65,31.57-5.37,20.82,6,41.72,11.65,63.5,13l6.3,2.28c-3.24,2.41-5.93,4.84-9,6.61-5.79,3.33-11.05,7.65-17.61,9.54-7.59-4.65-16.58-3.62-24.76-6.08-14.05-4.23-27.87-8.71-40.41-16.6C220.78,428.28,217.2,427.78,214,426.71Z" transform="translate(-1.13 -0.94)"/><path class="00834dd1-a5c0-4562-bda1-2c6637bdc990" d="M271.75,542.92c-5.25,0-10.5-.12-15.75,0-3.7.11-5.55-1.32-4.89-5.09,1.7-9.75,2.75-19.62,9.06-28,7.16-9.53,16.81-10,24-.58,6.42,8.47,8.1,18.56,9.3,28.75.46,3.89-1.61,5-5.15,4.94C282.78,542.82,277.27,542.92,271.75,542.92Z" transform="translate(-1.13 -0.94)"/><path class="00834dd1-a5c0-4562-bda1-2c6637bdc990" d="M339.68,435.45l-.47,19.1-37.86-2.09c7-4.34,14.19-8.4,17.52-16.58Z" transform="translate(-1.13 -0.94)"/><path class="d41d8e61-9e2a-421d-9932-f74ed731c7b8" d="M233.29,487.5c4.81.74,11,1.54,10.59,7.62-.38,5.68-6.33,6.87-11.56,6.71s-11.14-1.52-10.79-7.44C221.86,488.68,228,487.81,233.29,487.5Z" transform="translate(-1.13 -0.94)"/><path class="d41d8e61-9e2a-421d-9932-f74ed731c7b8" d="M308.78,487.38c7.17.55,13,.35,13,7.37s-5.83,6.84-10.87,7.11c-5.25.28-10.34-1.39-10.2-7C300.86,489.81,305.2,486.81,308.78,487.38Z" transform="translate(-1.13 -0.94)"/><path class="2a436a46-e4f3-48d1-a6d8-b67b884bc0dd" d="M306.15,472.12c-.7,4.52-.34,10.8-6.23,11.11-6.05.31-6.42-5.62-6.55-10.47s.26-10.93,5.84-11.29C305.14,461.08,305.39,467.35,306.15,472.12Z" transform="translate(-1.13 -0.94)"/><path class="2a436a46-e4f3-48d1-a6d8-b67b884bc0dd" d="M250.82,471.54c.17,6.43.11,11.19-5.21,11.8-5.83.67-6.33-4.8-6.74-8.62-.54-5.06-2.15-12.63,5-13.2S250.54,468.39,250.82,471.54Z" transform="translate(-1.13 -0.94)"/><path class="5ecaa7dd-334d-406d-8662-cd93d52302b2" d="M259.67,454.12c-10.93,3.22-26.61-5.29-34.85-19.59C237.39,441.74,246.92,450.17,259.67,454.12Z" transform="translate(-1.13 -0.94)"/><path class="5ecaa7dd-334d-406d-8662-cd93d52302b2" d="M318.86,435.88c-3.33,8.18-10.55,12.24-17.52,16.58-4.3,1-8.64,2.94-12.88,2.75s-1-1.7.27-2.5c6.56-1.89,11.83-6.21,17.62-9.54,3.08-1.77,5.77-4.2,9-6.61l-6.3-2.28C312.44,434.1,316,432.67,318.86,435.88Z" transform="translate(-1.13 -0.94)"/><path class="00834dd1-a5c0-4562-bda1-2c6637bdc990" d="M205.11,441.84l.47-10.74,8.05-4.14C213.36,433.4,208.79,437.37,205.11,441.84Z" transform="translate(-1.13 -0.94)"/><path class="cc3d4f7e-a30f-4be3-a110-5bbc874ca3fb" d="M256.92,364.4c-10.35-4.87-9.13-14.61-11.24-23.7-2.78-12,3.65-17.86,10.93-24.27,4,.46,7.84.17,11-2.72,3.16,1.52,1.88,4.51,2.33,6.94.28,1.53.46,3,2.63,3.21,8.67.7,14.53,8.31,12.77,16.71-.64,3.06-2.22,6-2.6,9-.33,2.64-1.59,5.88,1.33,8,1.37,1,3.05.54,4.32-.63,2.14-2,4.47-3.86,3.16-7.31s-.51-6.11,3.42-7.16c-1.23,4.52-3.26,9.42,2.28,12.42,4.76,2.58,9,1.56,11.89-3.42,3.21-2.54,1.14-6.1,1.75-9.14A87.47,87.47,0,0,0,325,363.73c5.26,5.79,3.48,12.7,1.63,19.38-10.76,7.66-30.66,5-38.73-5.12-1.6-2-3.41-3.86-5.12-5.79,1.64-1.2,3.25-2.45,4.93-3.59,2.17-1.46,5.08-2.82,2.65-6a4.53,4.53,0,0,0-7-.44c-2.61,2.77-5.7,1.93-8.64,2.46Z" transform="translate(-1.13 -0.94)"/><path class="cc3d4f7e-a30f-4be3-a110-5bbc874ca3fb" d="M229.25,395.91c.16-6.62,4.87-10.31,9.21-14.21a6.06,6.06,0,0,1,7.85-.58c1.74,1.44,6.28,3.21,2.67,7.17-1.29-.85-2.52-1.81-3.88-2.54-2-1.07-3.67-.23-4.53,1.6a5.42,5.42,0,0,0-.19,3.67c.72,2.2,2.69,1.91,4.57,1.84,2.29-.08,2.49-2.47,4.07-3.27,4.59,0,2.34,5.26,5.14,6.62C247.41,402.49,237.24,402.37,229.25,395.91Z" transform="translate(-1.13 -0.94)"/><path class="cc3d4f7e-a30f-4be3-a110-5bbc874ca3fb" d="M341,405.21c.34-6.56-1.21-14.05,8-16.24l7.39.21c1.77,4.43,6,7.91,5.31,13.3-5.68,5.13-12.23,5.79-19.31,3.81a1.15,1.15,0,0,0-.9-.93Z" transform="translate(-1.13 -0.94)"/><path class="8217efba-491f-46ff-ad04-2a300fa871ea" d="M361.65,402.48c.64-5.4-3.55-8.87-5.31-13.3l1.49-1.48c4.1-.31,3-4.4,5-7.09,2.75,4.59,5.41,8.75,5.25,14.08C367.54,398.6,366.11,401.8,361.65,402.48Z" transform="translate(-1.13 -0.94)"/><path class="00834dd1-a5c0-4562-bda1-2c6637bdc990" d="M204.73,364.88l3.18-.36c6.24,5.79,13.83,2.21,20.79,3-4.09,7.88-5.13,15.78-.51,23.89.55,1,.08,2.51.09,3.78-9.56-6.81-6.91-15.79-4-25C217.86,367.28,209.5,372.27,204.73,364.88Z" transform="translate(-1.13 -0.94)"/><path class="4f6aa43e-fde8-43b8-bd2b-720c61405217" d="M274.8,364.68c2.94-.53,6,.31,8.64-2.46a4.53,4.53,0,0,1,7,.44c2.43,3.13-.48,4.49-2.65,6-1.68,1.14-3.29,2.39-4.93,3.59A18.75,18.75,0,0,1,274.8,364.68Z" transform="translate(-1.13 -0.94)"/><path class="cc3d4f7e-a30f-4be3-a110-5bbc874ca3fb" d="M254.12,396.16c.29-2.53-1-5.88,3.24-6.39C257.06,392.3,256.51,394.69,254.12,396.16Z" transform="translate(-1.13 -0.94)"/><path class="cc3d4f7e-a30f-4be3-a110-5bbc874ca3fb" d="M257.27,389.85a10.4,10.4,0,0,1,2.82-6.3l-.48,4.56a1.21,1.21,0,0,0-.89,1Z" transform="translate(-1.13 -0.94)"/><path class="8217efba-491f-46ff-ad04-2a300fa871ea" d="M258.73,389.13a1.21,1.21,0,0,1,.89-1C259.82,388.89,259.71,389.39,258.73,389.13Z" transform="translate(-1.13 -0.94)"/><path class="8217efba-491f-46ff-ad04-2a300fa871ea" d="M341.45,405.36a1.15,1.15,0,0,1,.9.93Q341.4,406.28,341.45,405.36Z" transform="translate(-1.13 -0.94)"/><path class="cc3d4f7e-a30f-4be3-a110-5bbc874ca3fb" d="M228.69,367.48c-7-.76-14.54,2.82-20.79-3-1.59-6.26-3.22-14.5,2.15-17.6,7.12-4.11,5.62-12,11.25-16.87a33,33,0,0,0,10.78,16.55c4.25,3.65,4.19,8.28.87,12.63C231,361.76,229,364.16,228.69,367.48Z" transform="translate(-1.13 -0.94)"/><path class="4f6aa43e-fde8-43b8-bd2b-720c61405217" d="M309.17,351.44c-2.86,5-7.13,6-11.89,3.42-5.54-3-3.51-7.9-2.28-12.42a1.67,1.67,0,0,0,.76-.82C306.39,339.64,308.48,341.17,309.17,351.44Z" transform="translate(-1.13 -0.94)"/><path class="4f6aa43e-fde8-43b8-bd2b-720c61405217" d="M267.64,313.71c-3.19,2.89-7,3.18-11,2.72-3-4.05-3.84-8.57-1.71-13.09,1.08-2.3,4.11-2.32,6.32-2C268.68,302.56,268.8,307.87,267.64,313.71Z" transform="translate(-1.13 -0.94)"/><path class="4f6aa43e-fde8-43b8-bd2b-720c61405217" d="M357.83,387.71l-1.49,1.48L349,389c-3.34-4.18-3.26-8.37-.05-12.58l6.09-.9.24.11C360.49,378.69,360.92,382.82,357.83,387.71Z" transform="translate(-1.13 -0.94)"/><path class="4f6aa43e-fde8-43b8-bd2b-720c61405217" d="M249,389.58c-1.58.8-1.78,3.2-4.07,3.27-1.89.06-3.86.35-4.57-1.84a5.42,5.42,0,0,1,.19-3.67c.86-1.83,2.53-2.67,4.53-1.6,1.36.72,2.59,1.68,3.88,2.54A1.86,1.86,0,0,1,249,389.58Z" transform="translate(-1.13 -0.94)"/><path class="5c47c817-b942-4105-bd52-0f1ddfdb1482" d="M309.17,351.44c-.69-10.27-2.78-11.8-13.41-9.82,5.24-4,10.32-4.35,15.16.68C310.31,345.35,312.38,348.9,309.17,351.44Z" transform="translate(-1.13 -0.94)"/><path class="00834dd1-a5c0-4562-bda1-2c6637bdc990" d="M355,375.5l-6.09.9C350.47,373,352.57,373.15,355,375.5Z" transform="translate(-1.13 -0.94)"/><path class="7ee08b28-b64c-4f60-b8c7-75d75d2c1c99" d="M334.24,378.28l1.47-.68c-.14.57-.28,1.15-.41,1.73C334.94,379,334.59,378.64,334.24,378.28Z" transform="translate(-1.13 -0.94)"/><path class="c3c99a8b-e431-4804-9c88-dc5fc3a11eb5" d="M770.59,161.11l-5.62-.68c1.06-3.47,1-6.83-1.52-9.69,5-2.82,8.19.63,11.84,2A8.1,8.1,0,0,1,770.59,161.11Z" transform="translate(-1.13 -0.94)"/><path class="00834dd1-a5c0-4562-bda1-2c6637bdc990" d="M806.52,154.39l-.43.56c-.11-.21-.31-.44-.29-.64s.26-.38.4-.56Z" transform="translate(-1.13 -0.94)"/><path class="5c47c817-b942-4105-bd52-0f1ddfdb1482" d="M615.24,125.59c-.85-3.73,1.79-4.48,3.46-5.9,7.13-6.11,14.94-11.66,17.75-21.36.41-1.41,1.19-2.49,2.76-2,2.08.64,1.72,2.21,1.14,3.81C635.9,112.39,626.53,119.64,615.24,125.59Z" transform="translate(-1.13 -0.94)"/><path class="4f6aa43e-fde8-43b8-bd2b-720c61405217" d="M867.72,73.24c3.24.2,4.6,1.91,4.45,4.62s-1.71,4.26-4.58,4.09-4.21-1.75-4.1-4.56S865.38,73.33,867.72,73.24Z" transform="translate(-1.13 -0.94)"/><path class="4f6aa43e-fde8-43b8-bd2b-720c61405217" d="M878,64.73c-.26,2.71-1.53,4.4-4.42,4.49s-4.58-1.42-4.7-4.11,1.64-4.44,4.37-4.54S877.61,62,878,64.73Z" transform="translate(-1.13 -0.94)"/><path class="e99aa9f1-8476-401f-885b-04248764dc33" d="M638.17,143.67c.05.19.21.51.15.56a2,2,0,0,1-.65.22c-.05-.2-.21-.51-.14-.56A1.91,1.91,0,0,1,638.17,143.67Z" transform="translate(-1.13 -0.94)"/><path class="462fc781-cb26-4919-b010-2cf5b3afd5b5" d="M223.45,556.41c1.3-.23,1.81.44,1.77,1.25a2.43,2.43,0,0,1-.94,1.83c-.91.42-1.48-.42-1.48-1.23A5.56,5.56,0,0,1,223.45,556.41Z" transform="translate(-1.13 -0.94)"/><path class="4f6aa43e-fde8-43b8-bd2b-720c61405217" d="M675.85,78c.28-2.5,1.61-4.17,4.35-4.3a4.23,4.23,0,0,1,4.74,4.05,4.31,4.31,0,0,1-4.73,4.86A4.35,4.35,0,0,1,675.85,78Z" transform="translate(-1.13 -0.94)"/><path class="4f6aa43e-fde8-43b8-bd2b-720c61405217" d="M690.34,64.65c-.06,3.6-1.68,5.09-4.38,5.16s-4.39-1.79-4.4-4.42S683.09,61,685.94,61,690.09,62.7,690.34,64.65Z" transform="translate(-1.13 -0.94)"/></g></g></svg>