<svg id="80a60d00-2d4d-401a-951b-667b47b519d2" data-name="Слой 1" xmlns="http://www.w3.org/2000/svg" viewBox="0 0 1000 1000"><defs><style>.\35 8f3e825-4dbf-4c14-bf9b-255a6c148d12{fill:#fefdfb;}.\38 5fefb80-f280-4ac7-978b-cdabbe9dceea{fill:#fefcf9;}.\30 b97e5ae-0161-4c77-ade3-4a126ef9d1d5{fill:#fcd8a5;}.\37 72329fc-4ca0-42e3-b27d-f81ac079f8b9{fill:#fdebd1;}.\39 72ab7d2-6914-476c-bcf8-ca6cdcb43a47{fill:#fcb34e;}.\37 57c3ebb-e580-4306-8761-5a8feedf162b{fill:#e49034;}.\32 f3c611e-1ec2-4557-a903-98919d125e84{fill:#fdf9f4;}.aee57ca2-bd76-4759-87c6-db6710b49453{fill:#fdfbf7;}.\33 a91e443-04e7-403f-879c-eb8aa2e14a58{fill:#e7973e;}.\34 b09f211-dde9-4cda-b373-7ef5a0091d6e{fill:#e59339;}.f8bfe5ed-8d25-4f92-abbc-c4f9fa1ae8eb{fill:#e5953d;}.\33 70c0691-1948-42c9-890b-b28f091b5700{fill:#e6963e;}.c6219b47-2d0a-4490-bd09-8aaa4f3c09a6{fill:#f8e6d2;}.\31 cb7c967-afd9-454d-9d5b-d5b4b8b0ff5a{fill:#fbf1e7;}</style></defs><title>Монтажная область 1</title><path class="58f3e825-4dbf-4c14-bf9b-255a6c148d12" d="M830.45,9.77c40.71,0,81.6,2.36,122.06-.79,29.44-2.29,35.2,5.83,35.08,35-1.32,317.52-.83,635-.83,952.57-311,0-622-.5-933,.83-29.15.12-37.71-5.63-34.94-35.09,3.19-33.89.74-68.32.74-102.52l4.09.78,4.17,0c25.28,90.24,72,126.23,163.94,126.23q309.45,0,618.9,0c96.34,0,164.66-62,165.62-157.52,1.7-168.88-.44-337.81-1-506.71.56-40.55,1.63-81.1,1.57-121.65-.15-101.63-46.89-160-145.91-183Q830.68,13.81,830.45,9.77Z"/><path class="85fefb80-f280-4ac7-978b-cdabbe9dceea" d="M19.54,156.32c.8-48.85-16.73-114.25,7.93-141.56,21.57-23.9,90.57-5,138.62-5a69.88,69.88,0,0,1-.38,8.52C91.29,35.24,43,78.58,27.51,155.09A13.13,13.13,0,0,0,19.54,156.32Z"/><path class="0b97e5ae-0161-4c77-ade3-4a126ef9d1d5" d="M19.54,156.32a13.12,13.12,0,0,1,8-1.23c.59,21.05,1.64,42.1,1.7,63.15Q30,534.47,30.48,850.71q-1.35,4.89-2.68,9.8l-4.17,0-4.09-.78Z"/><path class="772329fc-4ca0-42e3-b27d-f81ac079f8b9" d="M165.71,18.29a69.88,69.88,0,0,0,.38-8.52H830.45q.23,4,.5,8.08Z"/><path class="972ab7d2-6914-476c-bcf8-ca6cdcb43a47" d="M165.71,18.29l665.24-.44c99,23,145.76,81.36,145.91,183,.06,40.55-1,81.1-1.57,121.65-53.81-41.15-90.64-100.85-149.36-136.64-23.16-29.1-52.36-46.65-90.07-50.71-111.91-12-224.1-3.28-336.13-5.06-50.18-.8-100.64-4.75-150.68,5.83-78.77,16.66-98.87,72-48.69,135.72,26.45,33.6,62.57,56.45,93.17,85.41,2.21,11.11,10.36,13.76,20.11,14.12l9.38,6.76c24.3,54.59,65.49,92.61,117.62,119.9l-.56-.42c-.33,8.58,1.07,16.34,9.75,20.67-14.5,56.16-53.86,105-49.32,166.77l9.82,19.37c-4.82.6-9.79,2.3-14.42,1.63-47.8-7-73.92,7.4-64.4,61.45,2.29,13,3.93,27.51-17.73,33.12-46.41,12-31.51,30.25-2,47.41,17.77,31.64,48.48,51.45,71.53,78.24,6,6.95,16.69,13,11.45,24-5.11,10.81-16.85,7.22-26,7.29-45.22.36-90.78-3.3-135.61.91C140.79,967,73.57,932.72,30.49,850.71q-.6-316.24-1.28-632.47c-.05-21-1.1-42.1-1.7-63.15C43,78.58,91.29,35.24,165.71,18.29Z"/><path class="757c3ebb-e580-4306-8761-5a8feedf162b" d="M825.93,185.86c58.72,35.78,95.56,95.49,149.36,136.64.53,168.91,2.68,337.83,1,506.71-1,95.48-69.29,157.52-165.62,157.52q-309.45,0-618.9,0c-91.94,0-138.67-36-163.94-126.23q1.34-4.9,2.68-9.8c43.09,82,110.31,116.28,202.72,107.6,44.83-4.21,90.39-.54,135.61-.91,9.12-.07,20.86,3.51,26-7.29,5.24-11.07-5.47-17.08-11.45-24-23.06-26.8-53.76-46.6-71.53-78.24q166-.65,332-1.37c13-.06,26.09-.07,38.92-1.77,10-1.33,18.38-6.74,19.88-18.27,1.39-10.74-1.94-22.44-12.52-23.09-39.72-2.46-36.11-30.61-33.47-55.89,3.45-33-10-41.75-41.42-41.19-68.27,1.21-136.61-1.13-204.91-2l-9.82-19.37c24.4-.25,48.8-.71,73.2-.73,135.67-.07,135.67,0,81.73-128.11-26.78-63.58-12.8-106.09,48.44-141.25,75.17-43.16,144.42-92.53,201.32-159.65C824.56,232.29,831.61,212.78,825.93,185.86Z"/><path class="2f3c611e-1ec2-4557-a903-98919d125e84" d="M825.93,185.86c5.68,26.93-1.37,46.43-20.73,69.28C748.3,322.25,679.05,371.62,603.88,414.78c-61.24,35.16-75.21,77.68-48.44,141.25,53.94,128.07,53.94,128-81.73,128.11-24.4,0-48.8.47-73.2.73-4.54-61.8,34.82-110.61,49.32-166.78,4-10.31-2-15.9-9.75-20.67l.56.42c-.79-15.73-1.85-29.18-14.9-43C395.6,423,362.84,396.16,323,377.94l-9.38-6.76-20.11-14.11c-30.6-29-66.72-51.81-93.17-85.41C150.18,207.92,170.28,152.59,249,135.93c50-10.59,100.5-6.63,150.68-5.83,112,1.78,224.23-7,336.13,5.06C773.57,139.21,802.78,156.76,825.93,185.86Zm-328.33,188c54.07-7.68,81.42-35.19,81.28-81.78-.14-46-28-73.64-81.79-81.22l-8.31-5.6c11.88-40.53-2.66-56.13-45-53-33.68,2.47-67.82-.66-101.72-2-19.6-.79-31.41,3.95-27.14,27.14C331.79,269.25,362.33,355.27,424.62,427c14.59,16.79,33.42,38.2,56.63,29.7,21.17-7.76,7.7-34.13,10.42-52.08,1.19-7.83-.47-16.09-.85-24.16Zm151-28.1c49.87-27.93,93.85-62.83,127.16-109.77,11.14-15.7,14.12-34.63.72-49.45C759,167.24,734,164.79,709.19,165.3c-21.28.44-20.41,19.18-22.24,31.87-7.22,50.15-30.87,95-43.82,143.21-1.84,2.23-5.68,5.71-5.19,6.49C641.79,353.08,645.29,349.13,648.59,345.75Zm-304.11,3.73c-19.81-59.4-38.5-103.66-44.91-151.38-1.67-12.44.21-31.93-21.16-32.46-24.69-.6-49.05,2.59-66.14,23-12.2,14.6-8,30.73,1.78,44.84C245.34,278.67,286.89,312,344.47,349.48Z"/><path class="aee57ca2-bd76-4759-87c6-db6710b49453" d="M410.33,704.24c68.31.89,136.64,3.23,204.91,2,31.38-.56,44.87,8.22,41.42,41.19-2.64,25.28-6.25,53.43,33.47,55.89,10.58.66,13.91,12.36,12.52,23.09-1.5,11.54-9.87,16.95-19.88,18.27-12.83,1.7-25.93,1.71-38.92,1.77q-166,.82-332,1.37c-29.53-17.17-44.43-35.4,2-47.42,21.65-5.61,20-20.09,17.73-33.12-9.52-54,16.59-68.41,64.4-61.45C400.54,706.54,405.51,704.84,410.33,704.24Z"/><path class="3a91e443-04e7-403f-879c-eb8aa2e14a58" d="M323,377.94c39.82,18.23,72.58,45.11,102.71,76.94,13.05,13.79,14.12,27.24,14.9,43C388.51,470.54,347.32,432.53,323,377.94Z"/><path class="3a91e443-04e7-403f-879c-eb8aa2e14a58" d="M293.53,357.06l20.11,14.11C303.89,370.81,295.74,368.17,293.53,357.06Z"/><path class="3a91e443-04e7-403f-879c-eb8aa2e14a58" d="M440.08,497.41c7.74,4.77,13.75,10.36,9.75,20.67C441.15,513.75,439.74,506,440.08,497.41Z"/><path class="4b09f211-dde9-4cda-b373-7ef5a0091d6e" d="M490.83,380.41c.37,8.07,2,16.33.84,24.16-2.73,17.95,10.75,44.32-10.42,52.08-23.21,8.51-42-12.9-56.63-29.7-62.29-71.68-92.83-157.7-109.72-249.62-4.26-23.19,7.54-27.93,27.14-27.14,33.9,1.37,68,4.5,101.72,2,42.36-3.1,56.9,12.5,45,53-55.52,11.53-79.89,37.48-80.53,85.73C407.6,340.89,433.52,369,490.83,380.41Z"/><path class="f8bfe5ed-8d25-4f92-abbc-c4f9fa1ae8eb" d="M643.12,340.38c13-48.21,36.6-93.06,43.83-143.21,1.83-12.69,1-31.43,22.24-31.87,24.76-.52,49.84,1.94,67.27,21.22,13.4,14.82,10.43,33.75-.72,49.45-33.31,46.94-77.29,81.85-127.16,109.77Q645.9,343,643.12,340.38Z"/><path class="f8bfe5ed-8d25-4f92-abbc-c4f9fa1ae8eb" d="M344.47,349.48C286.89,312,245.34,278.67,214,233.51c-9.77-14.1-14-30.24-1.78-44.84,17.09-20.44,41.45-23.63,66.14-23,21.37.52,19.49,20,21.16,32.46C306,245.82,324.66,290.08,344.47,349.48Z"/><path class="370c0691-1948-42c9-890b-b28f091b5700" d="M497.08,210.83c53.84,7.6,81.66,35.23,81.79,81.24.14,46.59-27.21,74.1-81.27,81.77,4.11-16.84-9.91-22.4-19.22-30.88l1.06-12.4c19,5.47,34.54,1.31,29.35-21.26-4.93-21.41,23.65-59.08-26.24-61.43a75.85,75.85,0,0,1-6.25-6.49C487.79,234.3,502.27,229.26,497.08,210.83Z"/><path class="c6219b47-2d0a-4490-bd09-8aaa4f3c09a6" d="M478.38,343c9.31,8.49,23.33,14,19.22,30.88l-6.77,6.57C433.52,369,407.6,340.89,408.25,291c.63-48.25,25-74.2,80.53-85.73l8.31,5.59c5.19,18.42-9.29,23.46-20.78,30.55C424.77,275.16,425.57,314.48,478.38,343Z"/><path class="f8bfe5ed-8d25-4f92-abbc-c4f9fa1ae8eb" d="M648.59,345.75c-3.3,3.38-6.8,7.33-10.64,1.14-.49-.79,3.35-4.26,5.18-6.5Q645.9,343,648.59,345.75Z"/><path class="4b09f211-dde9-4cda-b373-7ef5a0091d6e" d="M478.38,343c-52.81-28.48-53.61-67.8-2.08-101.58a75.76,75.76,0,0,0,6.23,6.46q-1.56,41.34-3.09,82.71Z"/><path class="1cb7c967-afd9-454d-9d5b-d5b4b8b0ff5a" d="M479.44,330.56q1.54-41.36,3.09-82.71c49.9,2.37,21.33,40,26.25,61.45C514,331.86,498.47,336,479.44,330.56Z"/></svg>